G04 #@! TF.GenerationSoftware,KiCad,Pcbnew,(5.1.4-0-10_14)*
G04 #@! TF.CreationDate,2020-02-03T15:25:23+11:00*
G04 #@! TF.ProjectId,SmartWatch+,536d6172-7457-4617-9463-682b2e6b6963,rev?*
G04 #@! TF.SameCoordinates,Original*
G04 #@! TF.FileFunction,Legend,Top*
G04 #@! TF.FilePolarity,Positive*
%FSLAX46Y46*%
G04 Gerber Fmt 4.6, Leading zero omitted, Abs format (unit mm)*
G04 Created by KiCad (PCBNEW (5.1.4-0-10_14)) date 2020-02-03 15:25:23*
%MOMM*%
%LPD*%
G04 APERTURE LIST*
%ADD10C,0.300000*%
%ADD11C,0.250000*%
%ADD12C,0.152400*%
%ADD13C,0.150000*%
G04 APERTURE END LIST*
D10*
X33719666Y-32369142D02*
X34005380Y-32464380D01*
X34100619Y-32559619D01*
X34195857Y-32750095D01*
X34195857Y-33035809D01*
X34100619Y-33226285D01*
X34005380Y-33321523D01*
X33814904Y-33416761D01*
X33053000Y-33416761D01*
X33053000Y-31416761D01*
X33719666Y-31416761D01*
X33910142Y-31512000D01*
X34005380Y-31607238D01*
X34100619Y-31797714D01*
X34100619Y-31988190D01*
X34005380Y-32178666D01*
X33910142Y-32273904D01*
X33719666Y-32369142D01*
X33053000Y-32369142D01*
X35053000Y-33416761D02*
X35053000Y-31416761D01*
X36386333Y-31416761D02*
X36767285Y-31416761D01*
X36957761Y-31512000D01*
X37148238Y-31702476D01*
X37243476Y-32083428D01*
X37243476Y-32750095D01*
X37148238Y-33131047D01*
X36957761Y-33321523D01*
X36767285Y-33416761D01*
X36386333Y-33416761D01*
X36195857Y-33321523D01*
X36005380Y-33131047D01*
X35910142Y-32750095D01*
X35910142Y-32083428D01*
X36005380Y-31702476D01*
X36195857Y-31512000D01*
X36386333Y-31416761D01*
X38005380Y-33321523D02*
X38291095Y-33416761D01*
X38767285Y-33416761D01*
X38957761Y-33321523D01*
X39053000Y-33226285D01*
X39148238Y-33035809D01*
X39148238Y-32845333D01*
X39053000Y-32654857D01*
X38957761Y-32559619D01*
X38767285Y-32464380D01*
X38386333Y-32369142D01*
X38195857Y-32273904D01*
X38100619Y-32178666D01*
X38005380Y-31988190D01*
X38005380Y-31797714D01*
X38100619Y-31607238D01*
X38195857Y-31512000D01*
X38386333Y-31416761D01*
X38862523Y-31416761D01*
X39148238Y-31512000D01*
X48767285Y-33416761D02*
X48100619Y-32464380D01*
X47624428Y-33416761D02*
X47624428Y-31416761D01*
X48386333Y-31416761D01*
X48576809Y-31512000D01*
X48672047Y-31607238D01*
X48767285Y-31797714D01*
X48767285Y-32083428D01*
X48672047Y-32273904D01*
X48576809Y-32369142D01*
X48386333Y-32464380D01*
X47624428Y-32464380D01*
X50005380Y-31416761D02*
X50386333Y-31416761D01*
X50576809Y-31512000D01*
X50767285Y-31702476D01*
X50862523Y-32083428D01*
X50862523Y-32750095D01*
X50767285Y-33131047D01*
X50576809Y-33321523D01*
X50386333Y-33416761D01*
X50005380Y-33416761D01*
X49814904Y-33321523D01*
X49624428Y-33131047D01*
X49529190Y-32750095D01*
X49529190Y-32083428D01*
X49624428Y-31702476D01*
X49814904Y-31512000D01*
X50005380Y-31416761D01*
X51719666Y-33416761D02*
X51719666Y-31416761D01*
X52386333Y-32845333D01*
X53053000Y-31416761D01*
X53053000Y-33416761D01*
X24968285Y-43618571D02*
X25825428Y-43618571D01*
X25396857Y-45118571D02*
X25396857Y-43618571D01*
X26968285Y-45118571D02*
X26968285Y-44332857D01*
X26896857Y-44190000D01*
X26754000Y-44118571D01*
X26468285Y-44118571D01*
X26325428Y-44190000D01*
X26968285Y-45047142D02*
X26825428Y-45118571D01*
X26468285Y-45118571D01*
X26325428Y-45047142D01*
X26254000Y-44904285D01*
X26254000Y-44761428D01*
X26325428Y-44618571D01*
X26468285Y-44547142D01*
X26825428Y-44547142D01*
X26968285Y-44475714D01*
X27682571Y-44118571D02*
X27682571Y-45118571D01*
X27682571Y-44261428D02*
X27754000Y-44190000D01*
X27896857Y-44118571D01*
X28111142Y-44118571D01*
X28254000Y-44190000D01*
X28325428Y-44332857D01*
X28325428Y-45118571D01*
X29682571Y-45118571D02*
X29682571Y-43618571D01*
X29682571Y-45047142D02*
X29539714Y-45118571D01*
X29254000Y-45118571D01*
X29111142Y-45047142D01*
X29039714Y-44975714D01*
X28968285Y-44832857D01*
X28968285Y-44404285D01*
X29039714Y-44261428D01*
X29111142Y-44190000D01*
X29254000Y-44118571D01*
X29539714Y-44118571D01*
X29682571Y-44190000D01*
X30254000Y-44118571D02*
X30611142Y-45118571D01*
X30968285Y-44118571D02*
X30611142Y-45118571D01*
X30468285Y-45475714D01*
X30396857Y-45547142D01*
X30254000Y-45618571D01*
X33468285Y-45118571D02*
X32611142Y-45118571D01*
X33039714Y-45118571D02*
X33039714Y-43618571D01*
X32896857Y-43832857D01*
X32754000Y-43975714D01*
X32611142Y-44047142D01*
X34396857Y-43618571D02*
X34539714Y-43618571D01*
X34682571Y-43690000D01*
X34754000Y-43761428D01*
X34825428Y-43904285D01*
X34896857Y-44190000D01*
X34896857Y-44547142D01*
X34825428Y-44832857D01*
X34754000Y-44975714D01*
X34682571Y-45047142D01*
X34539714Y-45118571D01*
X34396857Y-45118571D01*
X34254000Y-45047142D01*
X34182571Y-44975714D01*
X34111142Y-44832857D01*
X34039714Y-44547142D01*
X34039714Y-44190000D01*
X34111142Y-43904285D01*
X34182571Y-43761428D01*
X34254000Y-43690000D01*
X34396857Y-43618571D01*
X35825428Y-43618571D02*
X35968285Y-43618571D01*
X36111142Y-43690000D01*
X36182571Y-43761428D01*
X36254000Y-43904285D01*
X36325428Y-44190000D01*
X36325428Y-44547142D01*
X36254000Y-44832857D01*
X36182571Y-44975714D01*
X36111142Y-45047142D01*
X35968285Y-45118571D01*
X35825428Y-45118571D01*
X35682571Y-45047142D01*
X35611142Y-44975714D01*
X35539714Y-44832857D01*
X35468285Y-44547142D01*
X35468285Y-44190000D01*
X35539714Y-43904285D01*
X35611142Y-43761428D01*
X35682571Y-43690000D01*
X35825428Y-43618571D01*
X37254000Y-43618571D02*
X37396857Y-43618571D01*
X37539714Y-43690000D01*
X37611142Y-43761428D01*
X37682571Y-43904285D01*
X37754000Y-44190000D01*
X37754000Y-44547142D01*
X37682571Y-44832857D01*
X37611142Y-44975714D01*
X37539714Y-45047142D01*
X37396857Y-45118571D01*
X37254000Y-45118571D01*
X37111142Y-45047142D01*
X37039714Y-44975714D01*
X36968285Y-44832857D01*
X36896857Y-44547142D01*
X36896857Y-44190000D01*
X36968285Y-43904285D01*
X37039714Y-43761428D01*
X37111142Y-43690000D01*
X37254000Y-43618571D01*
X24789714Y-47597142D02*
X25004000Y-47668571D01*
X25361142Y-47668571D01*
X25504000Y-47597142D01*
X25575428Y-47525714D01*
X25646857Y-47382857D01*
X25646857Y-47240000D01*
X25575428Y-47097142D01*
X25504000Y-47025714D01*
X25361142Y-46954285D01*
X25075428Y-46882857D01*
X24932571Y-46811428D01*
X24861142Y-46740000D01*
X24789714Y-46597142D01*
X24789714Y-46454285D01*
X24861142Y-46311428D01*
X24932571Y-46240000D01*
X25075428Y-46168571D01*
X25432571Y-46168571D01*
X25646857Y-46240000D01*
X26289714Y-47668571D02*
X26289714Y-46668571D01*
X26289714Y-46811428D02*
X26361142Y-46740000D01*
X26504000Y-46668571D01*
X26718285Y-46668571D01*
X26861142Y-46740000D01*
X26932571Y-46882857D01*
X26932571Y-47668571D01*
X26932571Y-46882857D02*
X27004000Y-46740000D01*
X27146857Y-46668571D01*
X27361142Y-46668571D01*
X27504000Y-46740000D01*
X27575428Y-46882857D01*
X27575428Y-47668571D01*
X28932571Y-47668571D02*
X28932571Y-46882857D01*
X28861142Y-46740000D01*
X28718285Y-46668571D01*
X28432571Y-46668571D01*
X28289714Y-46740000D01*
X28932571Y-47597142D02*
X28789714Y-47668571D01*
X28432571Y-47668571D01*
X28289714Y-47597142D01*
X28218285Y-47454285D01*
X28218285Y-47311428D01*
X28289714Y-47168571D01*
X28432571Y-47097142D01*
X28789714Y-47097142D01*
X28932571Y-47025714D01*
X29646857Y-47668571D02*
X29646857Y-46668571D01*
X29646857Y-46954285D02*
X29718285Y-46811428D01*
X29789714Y-46740000D01*
X29932571Y-46668571D01*
X30075428Y-46668571D01*
X30361142Y-46668571D02*
X30932571Y-46668571D01*
X30575428Y-46168571D02*
X30575428Y-47454285D01*
X30646857Y-47597142D01*
X30789714Y-47668571D01*
X30932571Y-47668571D01*
X31289714Y-46168571D02*
X31646857Y-47668571D01*
X31932571Y-46597142D01*
X32218285Y-47668571D01*
X32575428Y-46168571D01*
X33789714Y-47668571D02*
X33789714Y-46882857D01*
X33718285Y-46740000D01*
X33575428Y-46668571D01*
X33289714Y-46668571D01*
X33146857Y-46740000D01*
X33789714Y-47597142D02*
X33646857Y-47668571D01*
X33289714Y-47668571D01*
X33146857Y-47597142D01*
X33075428Y-47454285D01*
X33075428Y-47311428D01*
X33146857Y-47168571D01*
X33289714Y-47097142D01*
X33646857Y-47097142D01*
X33789714Y-47025714D01*
X34289714Y-46668571D02*
X34861142Y-46668571D01*
X34504000Y-46168571D02*
X34504000Y-47454285D01*
X34575428Y-47597142D01*
X34718285Y-47668571D01*
X34861142Y-47668571D01*
X36004000Y-47597142D02*
X35861142Y-47668571D01*
X35575428Y-47668571D01*
X35432571Y-47597142D01*
X35361142Y-47525714D01*
X35289714Y-47382857D01*
X35289714Y-46954285D01*
X35361142Y-46811428D01*
X35432571Y-46740000D01*
X35575428Y-46668571D01*
X35861142Y-46668571D01*
X36004000Y-46740000D01*
X36646857Y-47668571D02*
X36646857Y-46168571D01*
X37289714Y-47668571D02*
X37289714Y-46882857D01*
X37218285Y-46740000D01*
X37075428Y-46668571D01*
X36861142Y-46668571D01*
X36718285Y-46740000D01*
X36646857Y-46811428D01*
X38004000Y-47097142D02*
X39146857Y-47097142D01*
X38575428Y-47668571D02*
X38575428Y-46525714D01*
X27789714Y-50218571D02*
X27789714Y-48718571D01*
X27789714Y-49290000D02*
X27932571Y-49218571D01*
X28218285Y-49218571D01*
X28361142Y-49290000D01*
X28432571Y-49361428D01*
X28504000Y-49504285D01*
X28504000Y-49932857D01*
X28432571Y-50075714D01*
X28361142Y-50147142D01*
X28218285Y-50218571D01*
X27932571Y-50218571D01*
X27789714Y-50147142D01*
X29004000Y-49218571D02*
X29361142Y-50218571D01*
X29718285Y-49218571D02*
X29361142Y-50218571D01*
X29218285Y-50575714D01*
X29146857Y-50647142D01*
X29004000Y-50718571D01*
X32075428Y-50218571D02*
X32075428Y-48718571D01*
X32075428Y-50147142D02*
X31932571Y-50218571D01*
X31646857Y-50218571D01*
X31504000Y-50147142D01*
X31432571Y-50075714D01*
X31361142Y-49932857D01*
X31361142Y-49504285D01*
X31432571Y-49361428D01*
X31504000Y-49290000D01*
X31646857Y-49218571D01*
X31932571Y-49218571D01*
X32075428Y-49290000D01*
X33218285Y-48718571D02*
X33218285Y-49790000D01*
X33146857Y-50004285D01*
X33004000Y-50147142D01*
X32789714Y-50218571D01*
X32646857Y-50218571D01*
X34218285Y-48718571D02*
X34504000Y-48718571D01*
X34646857Y-48790000D01*
X34789714Y-48932857D01*
X34861142Y-49218571D01*
X34861142Y-49718571D01*
X34789714Y-50004285D01*
X34646857Y-50147142D01*
X34504000Y-50218571D01*
X34218285Y-50218571D01*
X34075428Y-50147142D01*
X33932571Y-50004285D01*
X33861142Y-49718571D01*
X33861142Y-49218571D01*
X33932571Y-48932857D01*
X34075428Y-48790000D01*
X34218285Y-48718571D01*
X35432571Y-50147142D02*
X35646857Y-50218571D01*
X36004000Y-50218571D01*
X36146857Y-50147142D01*
X36218285Y-50075714D01*
X36289714Y-49932857D01*
X36289714Y-49790000D01*
X36218285Y-49647142D01*
X36146857Y-49575714D01*
X36004000Y-49504285D01*
X35718285Y-49432857D01*
X35575428Y-49361428D01*
X35504000Y-49290000D01*
X35432571Y-49147142D01*
X35432571Y-49004285D01*
X35504000Y-48861428D01*
X35575428Y-48790000D01*
X35718285Y-48718571D01*
X36075428Y-48718571D01*
X36289714Y-48790000D01*
D11*
X58490700Y-36377400D02*
X21290700Y-36377400D01*
X21290700Y-23577400D02*
X21290700Y-36377400D01*
X58490700Y-23577400D02*
X21290700Y-23577400D01*
X58490700Y-23577400D02*
X58490700Y-29177400D01*
X58490700Y-36377400D02*
X58490700Y-30777400D01*
X58490700Y-30777400D02*
G75*
G02X58490700Y-29177400I372J800000D01*
G01*
X61767300Y-38942800D02*
X24567300Y-38942800D01*
X24567300Y-26142800D02*
X24567300Y-38942800D01*
X61767300Y-26142800D02*
X24567300Y-26142800D01*
X61767300Y-26142800D02*
X61767300Y-31742800D01*
X61767300Y-38942800D02*
X61767300Y-33342800D01*
X61767300Y-33342800D02*
G75*
G02X61767300Y-31742800I372J800000D01*
G01*
D12*
X40894000Y-49657000D02*
X60706000Y-49657000D01*
X60769500Y-49657000D02*
X60769500Y-47625000D01*
X60706000Y-44323000D02*
X40894000Y-44323000D01*
X40830500Y-44323000D02*
X40830500Y-49657000D01*
X60706000Y-46355000D02*
G75*
G03X60706000Y-47625000I0J-635000D01*
G01*
X60769500Y-46355000D02*
X60769500Y-44323000D01*
D11*
X63500000Y-45085000D02*
X65278000Y-45085000D01*
X63373000Y-45085000D02*
X63500000Y-45085000D01*
X65405000Y-45085000D02*
X65405000Y-50546000D01*
X65405000Y-45085000D02*
X65278000Y-45085000D01*
X65278000Y-44704000D02*
X65278000Y-45085000D01*
X63373000Y-45085000D02*
X63373000Y-50546000D01*
X63500000Y-44704000D02*
X63500000Y-45085000D01*
X65151000Y-50800000D02*
X63627000Y-50800000D01*
X65405000Y-50545999D02*
G75*
G02X65151000Y-50800000I-253838J-163D01*
G01*
X63627001Y-50800000D02*
G75*
G02X63373000Y-50546000I-163J253838D01*
G01*
X65278000Y-44704000D02*
X63500000Y-44704000D01*
X68670000Y-41142000D02*
G75*
G02X76872000Y-41142000I4101000J8581062D01*
G01*
X75772000Y-46482000D02*
X76872000Y-41182000D01*
X69770000Y-46482000D02*
X68670000Y-41182000D01*
X69770000Y-46482000D02*
X75772000Y-46482000D01*
D13*
X46950857Y-47315380D02*
X46950857Y-46315380D01*
X47188952Y-46315380D01*
X47331809Y-46363000D01*
X47427047Y-46458238D01*
X47474666Y-46553476D01*
X47522285Y-46743952D01*
X47522285Y-46886809D01*
X47474666Y-47077285D01*
X47427047Y-47172523D01*
X47331809Y-47267761D01*
X47188952Y-47315380D01*
X46950857Y-47315380D01*
X47903238Y-47267761D02*
X48046095Y-47315380D01*
X48284190Y-47315380D01*
X48379428Y-47267761D01*
X48427047Y-47220142D01*
X48474666Y-47124904D01*
X48474666Y-47029666D01*
X48427047Y-46934428D01*
X48379428Y-46886809D01*
X48284190Y-46839190D01*
X48093714Y-46791571D01*
X47998476Y-46743952D01*
X47950857Y-46696333D01*
X47903238Y-46601095D01*
X47903238Y-46505857D01*
X47950857Y-46410619D01*
X47998476Y-46363000D01*
X48093714Y-46315380D01*
X48331809Y-46315380D01*
X48474666Y-46363000D01*
X49427047Y-47315380D02*
X48855619Y-47315380D01*
X49141333Y-47315380D02*
X49141333Y-46315380D01*
X49046095Y-46458238D01*
X48950857Y-46553476D01*
X48855619Y-46601095D01*
X49760380Y-46315380D02*
X50379428Y-46315380D01*
X50046095Y-46696333D01*
X50188952Y-46696333D01*
X50284190Y-46743952D01*
X50331809Y-46791571D01*
X50379428Y-46886809D01*
X50379428Y-47124904D01*
X50331809Y-47220142D01*
X50284190Y-47267761D01*
X50188952Y-47315380D01*
X49903238Y-47315380D01*
X49808000Y-47267761D01*
X49760380Y-47220142D01*
X51331809Y-47315380D02*
X50760380Y-47315380D01*
X51046095Y-47315380D02*
X51046095Y-46315380D01*
X50950857Y-46458238D01*
X50855619Y-46553476D01*
X50760380Y-46601095D01*
X52236571Y-46315380D02*
X51760380Y-46315380D01*
X51712761Y-46791571D01*
X51760380Y-46743952D01*
X51855619Y-46696333D01*
X52093714Y-46696333D01*
X52188952Y-46743952D01*
X52236571Y-46791571D01*
X52284190Y-46886809D01*
X52284190Y-47124904D01*
X52236571Y-47220142D01*
X52188952Y-47267761D01*
X52093714Y-47315380D01*
X51855619Y-47315380D01*
X51760380Y-47267761D01*
X51712761Y-47220142D01*
X52712761Y-46934428D02*
X53474666Y-46934428D01*
X54427047Y-46315380D02*
X53950857Y-46315380D01*
X53903238Y-46791571D01*
X53950857Y-46743952D01*
X54046095Y-46696333D01*
X54284190Y-46696333D01*
X54379428Y-46743952D01*
X54427047Y-46791571D01*
X54474666Y-46886809D01*
X54474666Y-47124904D01*
X54427047Y-47220142D01*
X54379428Y-47267761D01*
X54284190Y-47315380D01*
X54046095Y-47315380D01*
X53950857Y-47267761D01*
X53903238Y-47220142D01*
X54903238Y-46934428D02*
X55665142Y-46934428D01*
X55284190Y-47315380D02*
X55284190Y-46553476D01*
X69475047Y-49348571D02*
X69414571Y-49409047D01*
X69233142Y-49469523D01*
X69112190Y-49469523D01*
X68930761Y-49409047D01*
X68809809Y-49288095D01*
X68749333Y-49167142D01*
X68688857Y-48925238D01*
X68688857Y-48743809D01*
X68749333Y-48501904D01*
X68809809Y-48380952D01*
X68930761Y-48260000D01*
X69112190Y-48199523D01*
X69233142Y-48199523D01*
X69414571Y-48260000D01*
X69475047Y-48320476D01*
X70745047Y-49469523D02*
X70321714Y-48864761D01*
X70019333Y-49469523D02*
X70019333Y-48199523D01*
X70503142Y-48199523D01*
X70624095Y-48260000D01*
X70684571Y-48320476D01*
X70745047Y-48441428D01*
X70745047Y-48622857D01*
X70684571Y-48743809D01*
X70624095Y-48804285D01*
X70503142Y-48864761D01*
X70019333Y-48864761D01*
X71954571Y-49469523D02*
X71228857Y-49469523D01*
X71591714Y-49469523D02*
X71591714Y-48199523D01*
X71470761Y-48380952D01*
X71349809Y-48501904D01*
X71228857Y-48562380D01*
X73043142Y-48199523D02*
X72801238Y-48199523D01*
X72680285Y-48260000D01*
X72619809Y-48320476D01*
X72498857Y-48501904D01*
X72438380Y-48743809D01*
X72438380Y-49227619D01*
X72498857Y-49348571D01*
X72559333Y-49409047D01*
X72680285Y-49469523D01*
X72922190Y-49469523D01*
X73043142Y-49409047D01*
X73103619Y-49348571D01*
X73164095Y-49227619D01*
X73164095Y-48925238D01*
X73103619Y-48804285D01*
X73043142Y-48743809D01*
X72922190Y-48683333D01*
X72680285Y-48683333D01*
X72559333Y-48743809D01*
X72498857Y-48804285D01*
X72438380Y-48925238D01*
X73587428Y-48199523D02*
X74373619Y-48199523D01*
X73950285Y-48683333D01*
X74131714Y-48683333D01*
X74252666Y-48743809D01*
X74313142Y-48804285D01*
X74373619Y-48925238D01*
X74373619Y-49227619D01*
X74313142Y-49348571D01*
X74252666Y-49409047D01*
X74131714Y-49469523D01*
X73768857Y-49469523D01*
X73647904Y-49409047D01*
X73587428Y-49348571D01*
X74857428Y-48320476D02*
X74917904Y-48260000D01*
X75038857Y-48199523D01*
X75341238Y-48199523D01*
X75462190Y-48260000D01*
X75522666Y-48320476D01*
X75583142Y-48441428D01*
X75583142Y-48562380D01*
X75522666Y-48743809D01*
X74796952Y-49469523D01*
X75583142Y-49469523D01*
M02*
