M48
; DRILL file {KiCad (5.1.4-0-10_14)} date Monday, 03 February 2020 at 03:25:19 pm
; FORMAT={-:-/ absolute / metric / decimal}
; #@! TF.CreationDate,2020-02-03T15:25:19+11:00
; #@! TF.GenerationSoftware,Kicad,Pcbnew,(5.1.4-0-10_14)
; #@! TF.FileFunction,Plated,1,2,PTH
FMAT,2
METRIC
T1C0.813
T2C0.900
T3C1.016
T4C1.100
%
G90
G05
T1
X63.119Y-43.053
X65.659Y-43.053
T2
X26.657Y-24.943
X26.657Y-40.183
X29.197Y-24.943
X29.197Y-40.183
X31.737Y-24.943
X31.737Y-40.183
X34.277Y-24.943
X34.277Y-40.183
X36.817Y-24.943
X36.817Y-40.183
X39.357Y-24.943
X39.357Y-40.183
X41.897Y-24.943
X41.897Y-40.183
X44.437Y-24.943
X44.437Y-40.183
X46.977Y-24.943
X46.977Y-40.183
X49.517Y-24.943
X49.517Y-40.183
X52.057Y-24.943
X52.057Y-40.183
X54.597Y-24.943
X54.597Y-40.183
X57.137Y-24.943
X57.137Y-40.183
X59.677Y-24.943
X59.677Y-40.183
X23.381Y-22.377
X23.381Y-37.617
X25.921Y-22.377
X25.921Y-37.617
X28.461Y-22.377
X28.461Y-37.617
X31.001Y-22.377
X31.001Y-37.617
X33.541Y-22.377
X33.541Y-37.617
X36.081Y-22.377
X36.081Y-37.617
X38.621Y-22.377
X38.621Y-37.617
X41.161Y-22.377
X41.161Y-37.617
X43.701Y-22.377
X43.701Y-37.617
X46.241Y-22.377
X46.241Y-37.617
X48.781Y-22.377
X48.781Y-37.617
X51.321Y-22.377
X51.321Y-37.617
X53.861Y-22.377
X53.861Y-37.617
X56.401Y-22.377
X56.401Y-37.617
T3
X41.91Y-43.18
X41.91Y-50.8
X44.45Y-43.18
X44.45Y-50.8
X46.99Y-43.18
X46.99Y-50.8
X49.53Y-43.18
X49.53Y-50.8
X52.07Y-43.18
X52.07Y-50.8
X54.61Y-43.18
X54.61Y-50.8
X57.15Y-43.18
X57.15Y-50.8
X59.69Y-43.18
X59.69Y-50.8
T4
X72.771Y-26.722
X72.771Y-43.382
T0
M30
