%FSLAX45Y45*%
G04 Gerber Fmt 4.5, Leading zero omitted, Abs format (unit mm)*
G04 Created by KiCad (PCBNEW (5.1.5-0-10_14)) date 2020-05-18 10:40:34*
%MOMM*%
%LPD*%
G04 APERTURE LIST*
%TA.AperFunction,Profile*%
%ADD10C,0.100000*%
%TD*%
%ADD11C,0.200000*%
%ADD12C,0.300000*%
G04 APERTURE END LIST*
D10*
X8331200Y-2057400D02*
X2062480Y-2052320D01*
X8331200Y-5270500D02*
X8331200Y-2057400D01*
X2059940Y-5275580D02*
X8331200Y-5270500D01*
X2062480Y-2052320D02*
X2059940Y-5275580D01*
D11*
X6271250Y-4264650D02*
X6352550Y-4345950D01*
X6352550Y-4264650D02*
X6271250Y-4345950D01*
X6525250Y-4264650D02*
X6606550Y-4345950D01*
X6606550Y-4264650D02*
X6525250Y-4345950D01*
X2710730Y-2494280D02*
G75*
G03X2710730Y-2494280I-45000J0D01*
G01*
X2710730Y-4018280D02*
G75*
G03X2710730Y-4018280I-45000J0D01*
G01*
X2964730Y-2494280D02*
G75*
G03X2964730Y-2494280I-45000J0D01*
G01*
X2964730Y-4018280D02*
G75*
G03X2964730Y-4018280I-45000J0D01*
G01*
X3218730Y-2494280D02*
G75*
G03X3218730Y-2494280I-45000J0D01*
G01*
X3218730Y-4018280D02*
G75*
G03X3218730Y-4018280I-45000J0D01*
G01*
X3472730Y-2494280D02*
G75*
G03X3472730Y-2494280I-45000J0D01*
G01*
X3472730Y-4018280D02*
G75*
G03X3472730Y-4018280I-45000J0D01*
G01*
X3726730Y-2494280D02*
G75*
G03X3726730Y-2494280I-45000J0D01*
G01*
X3726730Y-4018280D02*
G75*
G03X3726730Y-4018280I-45000J0D01*
G01*
X3980730Y-2494280D02*
G75*
G03X3980730Y-2494280I-45000J0D01*
G01*
X3980730Y-4018280D02*
G75*
G03X3980730Y-4018280I-45000J0D01*
G01*
X4234730Y-2494280D02*
G75*
G03X4234730Y-2494280I-45000J0D01*
G01*
X4234730Y-4018280D02*
G75*
G03X4234730Y-4018280I-45000J0D01*
G01*
X4488730Y-2494280D02*
G75*
G03X4488730Y-2494280I-45000J0D01*
G01*
X4488730Y-4018280D02*
G75*
G03X4488730Y-4018280I-45000J0D01*
G01*
X4742730Y-2494280D02*
G75*
G03X4742730Y-2494280I-45000J0D01*
G01*
X4742730Y-4018280D02*
G75*
G03X4742730Y-4018280I-45000J0D01*
G01*
X4996730Y-2494280D02*
G75*
G03X4996730Y-2494280I-45000J0D01*
G01*
X4996730Y-4018280D02*
G75*
G03X4996730Y-4018280I-45000J0D01*
G01*
X5250730Y-2494280D02*
G75*
G03X5250730Y-2494280I-45000J0D01*
G01*
X5250730Y-4018280D02*
G75*
G03X5250730Y-4018280I-45000J0D01*
G01*
X5504730Y-2494280D02*
G75*
G03X5504730Y-2494280I-45000J0D01*
G01*
X5504730Y-4018280D02*
G75*
G03X5504730Y-4018280I-45000J0D01*
G01*
X5758730Y-2494280D02*
G75*
G03X5758730Y-2494280I-45000J0D01*
G01*
X5758730Y-4018280D02*
G75*
G03X5758730Y-4018280I-45000J0D01*
G01*
X6012730Y-2494280D02*
G75*
G03X6012730Y-2494280I-45000J0D01*
G01*
X6012730Y-4018280D02*
G75*
G03X6012730Y-4018280I-45000J0D01*
G01*
X2383070Y-2237740D02*
G75*
G03X2383070Y-2237740I-45000J0D01*
G01*
X2383070Y-3761740D02*
G75*
G03X2383070Y-3761740I-45000J0D01*
G01*
X2637070Y-2237740D02*
G75*
G03X2637070Y-2237740I-45000J0D01*
G01*
X2637070Y-3761740D02*
G75*
G03X2637070Y-3761740I-45000J0D01*
G01*
X2891070Y-2237740D02*
G75*
G03X2891070Y-2237740I-45000J0D01*
G01*
X2891070Y-3761740D02*
G75*
G03X2891070Y-3761740I-45000J0D01*
G01*
X3145070Y-2237740D02*
G75*
G03X3145070Y-2237740I-45000J0D01*
G01*
X3145070Y-3761740D02*
G75*
G03X3145070Y-3761740I-45000J0D01*
G01*
X3399070Y-2237740D02*
G75*
G03X3399070Y-2237740I-45000J0D01*
G01*
X3399070Y-3761740D02*
G75*
G03X3399070Y-3761740I-45000J0D01*
G01*
X3653070Y-2237740D02*
G75*
G03X3653070Y-2237740I-45000J0D01*
G01*
X3653070Y-3761740D02*
G75*
G03X3653070Y-3761740I-45000J0D01*
G01*
X3907070Y-2237740D02*
G75*
G03X3907070Y-2237740I-45000J0D01*
G01*
X3907070Y-3761740D02*
G75*
G03X3907070Y-3761740I-45000J0D01*
G01*
X4161070Y-2237740D02*
G75*
G03X4161070Y-2237740I-45000J0D01*
G01*
X4161070Y-3761740D02*
G75*
G03X4161070Y-3761740I-45000J0D01*
G01*
X4415070Y-2237740D02*
G75*
G03X4415070Y-2237740I-45000J0D01*
G01*
X4415070Y-3761740D02*
G75*
G03X4415070Y-3761740I-45000J0D01*
G01*
X4669070Y-2237740D02*
G75*
G03X4669070Y-2237740I-45000J0D01*
G01*
X4669070Y-3761740D02*
G75*
G03X4669070Y-3761740I-45000J0D01*
G01*
X4923070Y-2237740D02*
G75*
G03X4923070Y-2237740I-45000J0D01*
G01*
X4923070Y-3761740D02*
G75*
G03X4923070Y-3761740I-45000J0D01*
G01*
X5177070Y-2237740D02*
G75*
G03X5177070Y-2237740I-45000J0D01*
G01*
X5177070Y-3761740D02*
G75*
G03X5177070Y-3761740I-45000J0D01*
G01*
X5431070Y-2237740D02*
G75*
G03X5431070Y-2237740I-45000J0D01*
G01*
X5431070Y-3761740D02*
G75*
G03X5431070Y-3761740I-45000J0D01*
G01*
X5685070Y-2237740D02*
G75*
G03X5685070Y-2237740I-45000J0D01*
G01*
X5685070Y-3761740D02*
G75*
G03X5685070Y-3761740I-45000J0D01*
G01*
X4191000Y-4267200D02*
X4191000Y-4368800D01*
X4140200Y-4318000D02*
X4241800Y-4318000D01*
X4191000Y-5029200D02*
X4191000Y-5130800D01*
X4140200Y-5080000D02*
X4241800Y-5080000D01*
X4445000Y-4267200D02*
X4445000Y-4368800D01*
X4394200Y-4318000D02*
X4495800Y-4318000D01*
X4445000Y-5029200D02*
X4445000Y-5130800D01*
X4394200Y-5080000D02*
X4495800Y-5080000D01*
X4699000Y-4267200D02*
X4699000Y-4368800D01*
X4648200Y-4318000D02*
X4749800Y-4318000D01*
X4699000Y-5029200D02*
X4699000Y-5130800D01*
X4648200Y-5080000D02*
X4749800Y-5080000D01*
X4953000Y-4267200D02*
X4953000Y-4368800D01*
X4902200Y-4318000D02*
X5003800Y-4318000D01*
X4953000Y-5029200D02*
X4953000Y-5130800D01*
X4902200Y-5080000D02*
X5003800Y-5080000D01*
X5207000Y-4267200D02*
X5207000Y-4368800D01*
X5156200Y-4318000D02*
X5257800Y-4318000D01*
X5207000Y-5029200D02*
X5207000Y-5130800D01*
X5156200Y-5080000D02*
X5257800Y-5080000D01*
X5461000Y-4267200D02*
X5461000Y-4368800D01*
X5410200Y-4318000D02*
X5511800Y-4318000D01*
X5461000Y-5029200D02*
X5461000Y-5130800D01*
X5410200Y-5080000D02*
X5511800Y-5080000D01*
X5715000Y-4267200D02*
X5715000Y-4368800D01*
X5664200Y-4318000D02*
X5765800Y-4318000D01*
X5715000Y-5029200D02*
X5715000Y-5130800D01*
X5664200Y-5080000D02*
X5765800Y-5080000D01*
X5969000Y-4267200D02*
X5969000Y-4368800D01*
X5918200Y-4318000D02*
X6019800Y-4318000D01*
X5969000Y-5029200D02*
X5969000Y-5130800D01*
X5918200Y-5080000D02*
X6019800Y-5080000D01*
X7315991Y-2711091D02*
X7315991Y-2633309D01*
X7238209Y-2633309D01*
X7238209Y-2711091D01*
X7315991Y-2711091D01*
X7315991Y-4377091D02*
X7315991Y-4299309D01*
X7238209Y-4299309D01*
X7238209Y-4377091D01*
X7315991Y-4377091D01*
D12*
X2341368Y-5746294D02*
X2341368Y-5446294D01*
X2412797Y-5446294D01*
X2455654Y-5460580D01*
X2484226Y-5489152D01*
X2498511Y-5517723D01*
X2512797Y-5574866D01*
X2512797Y-5617723D01*
X2498511Y-5674866D01*
X2484226Y-5703437D01*
X2455654Y-5732009D01*
X2412797Y-5746294D01*
X2341368Y-5746294D01*
X2641368Y-5746294D02*
X2641368Y-5546294D01*
X2641368Y-5603437D02*
X2655654Y-5574866D01*
X2669940Y-5560580D01*
X2698511Y-5546294D01*
X2727083Y-5546294D01*
X2827083Y-5746294D02*
X2827083Y-5546294D01*
X2827083Y-5446294D02*
X2812797Y-5460580D01*
X2827083Y-5474866D01*
X2841368Y-5460580D01*
X2827083Y-5446294D01*
X2827083Y-5474866D01*
X3012797Y-5746294D02*
X2984226Y-5732009D01*
X2969940Y-5703437D01*
X2969940Y-5446294D01*
X3169940Y-5746294D02*
X3141368Y-5732009D01*
X3127083Y-5703437D01*
X3127083Y-5446294D01*
X3512797Y-5746294D02*
X3512797Y-5446294D01*
X3612797Y-5660580D01*
X3712797Y-5446294D01*
X3712797Y-5746294D01*
X3984226Y-5746294D02*
X3984226Y-5589152D01*
X3969940Y-5560580D01*
X3941368Y-5546294D01*
X3884226Y-5546294D01*
X3855654Y-5560580D01*
X3984226Y-5732009D02*
X3955654Y-5746294D01*
X3884226Y-5746294D01*
X3855654Y-5732009D01*
X3841368Y-5703437D01*
X3841368Y-5674866D01*
X3855654Y-5646294D01*
X3884226Y-5632009D01*
X3955654Y-5632009D01*
X3984226Y-5617723D01*
X4127083Y-5546294D02*
X4127083Y-5846294D01*
X4127083Y-5560580D02*
X4155654Y-5546294D01*
X4212797Y-5546294D01*
X4241368Y-5560580D01*
X4255654Y-5574866D01*
X4269940Y-5603437D01*
X4269940Y-5689151D01*
X4255654Y-5717723D01*
X4241368Y-5732009D01*
X4212797Y-5746294D01*
X4155654Y-5746294D01*
X4127083Y-5732009D01*
X4398511Y-5717723D02*
X4412797Y-5732009D01*
X4398511Y-5746294D01*
X4384226Y-5732009D01*
X4398511Y-5717723D01*
X4398511Y-5746294D01*
X4398511Y-5560580D02*
X4412797Y-5574866D01*
X4398511Y-5589152D01*
X4384226Y-5574866D01*
X4398511Y-5560580D01*
X4398511Y-5589152D01*
X1973640Y-6199930D02*
X2054940Y-6281230D01*
X2054940Y-6199930D02*
X1973640Y-6281230D01*
X2398511Y-6076294D02*
X2427083Y-6076294D01*
X2455654Y-6090580D01*
X2469940Y-6104866D01*
X2484226Y-6133437D01*
X2498511Y-6190580D01*
X2498511Y-6262009D01*
X2484226Y-6319151D01*
X2469940Y-6347723D01*
X2455654Y-6362009D01*
X2427083Y-6376294D01*
X2398511Y-6376294D01*
X2369940Y-6362009D01*
X2355654Y-6347723D01*
X2341368Y-6319151D01*
X2327083Y-6262009D01*
X2327083Y-6190580D01*
X2341368Y-6133437D01*
X2355654Y-6104866D01*
X2369940Y-6090580D01*
X2398511Y-6076294D01*
X2627083Y-6347723D02*
X2641368Y-6362009D01*
X2627083Y-6376294D01*
X2612797Y-6362009D01*
X2627083Y-6347723D01*
X2627083Y-6376294D01*
X2812797Y-6204866D02*
X2784226Y-6190580D01*
X2769940Y-6176294D01*
X2755654Y-6147723D01*
X2755654Y-6133437D01*
X2769940Y-6104866D01*
X2784226Y-6090580D01*
X2812797Y-6076294D01*
X2869940Y-6076294D01*
X2898511Y-6090580D01*
X2912797Y-6104866D01*
X2927083Y-6133437D01*
X2927083Y-6147723D01*
X2912797Y-6176294D01*
X2898511Y-6190580D01*
X2869940Y-6204866D01*
X2812797Y-6204866D01*
X2784226Y-6219151D01*
X2769940Y-6233437D01*
X2755654Y-6262009D01*
X2755654Y-6319151D01*
X2769940Y-6347723D01*
X2784226Y-6362009D01*
X2812797Y-6376294D01*
X2869940Y-6376294D01*
X2898511Y-6362009D01*
X2912797Y-6347723D01*
X2927083Y-6319151D01*
X2927083Y-6262009D01*
X2912797Y-6233437D01*
X2898511Y-6219151D01*
X2869940Y-6204866D01*
X3212797Y-6376294D02*
X3041368Y-6376294D01*
X3127083Y-6376294D02*
X3127083Y-6076294D01*
X3098511Y-6119151D01*
X3069940Y-6147723D01*
X3041368Y-6162009D01*
X3341368Y-6376294D02*
X3341368Y-6176294D01*
X3341368Y-6204866D02*
X3355654Y-6190580D01*
X3384226Y-6176294D01*
X3427083Y-6176294D01*
X3455654Y-6190580D01*
X3469940Y-6219151D01*
X3469940Y-6376294D01*
X3469940Y-6219151D02*
X3484226Y-6190580D01*
X3512797Y-6176294D01*
X3555654Y-6176294D01*
X3584226Y-6190580D01*
X3598511Y-6219151D01*
X3598511Y-6376294D01*
X3741368Y-6376294D02*
X3741368Y-6176294D01*
X3741368Y-6204866D02*
X3755654Y-6190580D01*
X3784226Y-6176294D01*
X3827083Y-6176294D01*
X3855654Y-6190580D01*
X3869940Y-6219151D01*
X3869940Y-6376294D01*
X3869940Y-6219151D02*
X3884226Y-6190580D01*
X3912797Y-6176294D01*
X3955654Y-6176294D01*
X3984226Y-6190580D01*
X3998511Y-6219151D01*
X3998511Y-6376294D01*
X4584226Y-6062009D02*
X4327083Y-6447723D01*
X4969940Y-6076294D02*
X4998511Y-6076294D01*
X5027083Y-6090580D01*
X5041368Y-6104866D01*
X5055654Y-6133437D01*
X5069940Y-6190580D01*
X5069940Y-6262009D01*
X5055654Y-6319151D01*
X5041368Y-6347723D01*
X5027083Y-6362009D01*
X4998511Y-6376294D01*
X4969940Y-6376294D01*
X4941368Y-6362009D01*
X4927083Y-6347723D01*
X4912797Y-6319151D01*
X4898511Y-6262009D01*
X4898511Y-6190580D01*
X4912797Y-6133437D01*
X4927083Y-6104866D01*
X4941368Y-6090580D01*
X4969940Y-6076294D01*
X5198511Y-6347723D02*
X5212797Y-6362009D01*
X5198511Y-6376294D01*
X5184226Y-6362009D01*
X5198511Y-6347723D01*
X5198511Y-6376294D01*
X5398511Y-6076294D02*
X5427083Y-6076294D01*
X5455654Y-6090580D01*
X5469940Y-6104866D01*
X5484226Y-6133437D01*
X5498511Y-6190580D01*
X5498511Y-6262009D01*
X5484226Y-6319151D01*
X5469940Y-6347723D01*
X5455654Y-6362009D01*
X5427083Y-6376294D01*
X5398511Y-6376294D01*
X5369940Y-6362009D01*
X5355654Y-6347723D01*
X5341368Y-6319151D01*
X5327083Y-6262009D01*
X5327083Y-6190580D01*
X5341368Y-6133437D01*
X5355654Y-6104866D01*
X5369940Y-6090580D01*
X5398511Y-6076294D01*
X5598511Y-6076294D02*
X5784226Y-6076294D01*
X5684226Y-6190580D01*
X5727083Y-6190580D01*
X5755654Y-6204866D01*
X5769940Y-6219151D01*
X5784226Y-6247723D01*
X5784226Y-6319151D01*
X5769940Y-6347723D01*
X5755654Y-6362009D01*
X5727083Y-6376294D01*
X5641368Y-6376294D01*
X5612797Y-6362009D01*
X5598511Y-6347723D01*
X5898511Y-6104866D02*
X5912797Y-6090580D01*
X5941368Y-6076294D01*
X6012797Y-6076294D01*
X6041368Y-6090580D01*
X6055654Y-6104866D01*
X6069940Y-6133437D01*
X6069940Y-6162009D01*
X6055654Y-6204866D01*
X5884226Y-6376294D01*
X6069940Y-6376294D01*
X6184226Y-6076294D02*
X6184226Y-6133437D01*
X6298511Y-6076294D02*
X6298511Y-6133437D01*
X6741368Y-6490580D02*
X6727083Y-6476294D01*
X6698511Y-6433437D01*
X6684226Y-6404866D01*
X6669940Y-6362009D01*
X6655654Y-6290580D01*
X6655654Y-6233437D01*
X6669940Y-6162009D01*
X6684226Y-6119151D01*
X6698511Y-6090580D01*
X6727083Y-6047723D01*
X6741368Y-6033437D01*
X6841368Y-6104866D02*
X6855654Y-6090580D01*
X6884226Y-6076294D01*
X6955654Y-6076294D01*
X6984226Y-6090580D01*
X6998511Y-6104866D01*
X7012797Y-6133437D01*
X7012797Y-6162009D01*
X6998511Y-6204866D01*
X6827083Y-6376294D01*
X7012797Y-6376294D01*
X7369940Y-6376294D02*
X7369940Y-6076294D01*
X7498511Y-6376294D02*
X7498511Y-6219151D01*
X7484226Y-6190580D01*
X7455654Y-6176294D01*
X7412797Y-6176294D01*
X7384226Y-6190580D01*
X7369940Y-6204866D01*
X7684226Y-6376294D02*
X7655654Y-6362009D01*
X7641368Y-6347723D01*
X7627083Y-6319151D01*
X7627083Y-6233437D01*
X7641368Y-6204866D01*
X7655654Y-6190580D01*
X7684226Y-6176294D01*
X7727083Y-6176294D01*
X7755654Y-6190580D01*
X7769940Y-6204866D01*
X7784226Y-6233437D01*
X7784226Y-6319151D01*
X7769940Y-6347723D01*
X7755654Y-6362009D01*
X7727083Y-6376294D01*
X7684226Y-6376294D01*
X7955654Y-6376294D02*
X7927083Y-6362009D01*
X7912797Y-6333437D01*
X7912797Y-6076294D01*
X8184226Y-6362009D02*
X8155654Y-6376294D01*
X8098511Y-6376294D01*
X8069940Y-6362009D01*
X8055654Y-6333437D01*
X8055654Y-6219151D01*
X8069940Y-6190580D01*
X8098511Y-6176294D01*
X8155654Y-6176294D01*
X8184226Y-6190580D01*
X8198511Y-6219151D01*
X8198511Y-6247723D01*
X8055654Y-6276294D01*
X8312797Y-6362009D02*
X8341368Y-6376294D01*
X8398511Y-6376294D01*
X8427083Y-6362009D01*
X8441368Y-6333437D01*
X8441368Y-6319151D01*
X8427083Y-6290580D01*
X8398511Y-6276294D01*
X8355654Y-6276294D01*
X8327083Y-6262009D01*
X8312797Y-6233437D01*
X8312797Y-6219151D01*
X8327083Y-6190580D01*
X8355654Y-6176294D01*
X8398511Y-6176294D01*
X8427083Y-6190580D01*
X8541368Y-6490580D02*
X8555654Y-6476294D01*
X8584226Y-6433437D01*
X8598511Y-6404866D01*
X8612797Y-6362009D01*
X8627083Y-6290580D01*
X8627083Y-6233437D01*
X8612797Y-6162009D01*
X8598511Y-6119151D01*
X8584226Y-6090580D01*
X8555654Y-6047723D01*
X8541368Y-6033437D01*
X2054940Y-6636580D02*
G75*
G03X2054940Y-6636580I-45000J0D01*
G01*
X2398511Y-6472294D02*
X2427083Y-6472294D01*
X2455654Y-6486580D01*
X2469940Y-6500866D01*
X2484226Y-6529437D01*
X2498511Y-6586580D01*
X2498511Y-6658009D01*
X2484226Y-6715151D01*
X2469940Y-6743723D01*
X2455654Y-6758009D01*
X2427083Y-6772294D01*
X2398511Y-6772294D01*
X2369940Y-6758009D01*
X2355654Y-6743723D01*
X2341368Y-6715151D01*
X2327083Y-6658009D01*
X2327083Y-6586580D01*
X2341368Y-6529437D01*
X2355654Y-6500866D01*
X2369940Y-6486580D01*
X2398511Y-6472294D01*
X2627083Y-6743723D02*
X2641368Y-6758009D01*
X2627083Y-6772294D01*
X2612797Y-6758009D01*
X2627083Y-6743723D01*
X2627083Y-6772294D01*
X2784226Y-6772294D02*
X2841368Y-6772294D01*
X2869940Y-6758009D01*
X2884226Y-6743723D01*
X2912797Y-6700866D01*
X2927083Y-6643723D01*
X2927083Y-6529437D01*
X2912797Y-6500866D01*
X2898511Y-6486580D01*
X2869940Y-6472294D01*
X2812797Y-6472294D01*
X2784226Y-6486580D01*
X2769940Y-6500866D01*
X2755654Y-6529437D01*
X2755654Y-6600866D01*
X2769940Y-6629437D01*
X2784226Y-6643723D01*
X2812797Y-6658009D01*
X2869940Y-6658009D01*
X2898511Y-6643723D01*
X2912797Y-6629437D01*
X2927083Y-6600866D01*
X3112797Y-6472294D02*
X3141368Y-6472294D01*
X3169940Y-6486580D01*
X3184226Y-6500866D01*
X3198511Y-6529437D01*
X3212797Y-6586580D01*
X3212797Y-6658009D01*
X3198511Y-6715151D01*
X3184226Y-6743723D01*
X3169940Y-6758009D01*
X3141368Y-6772294D01*
X3112797Y-6772294D01*
X3084226Y-6758009D01*
X3069940Y-6743723D01*
X3055654Y-6715151D01*
X3041368Y-6658009D01*
X3041368Y-6586580D01*
X3055654Y-6529437D01*
X3069940Y-6500866D01*
X3084226Y-6486580D01*
X3112797Y-6472294D01*
X3341368Y-6772294D02*
X3341368Y-6572294D01*
X3341368Y-6600866D02*
X3355654Y-6586580D01*
X3384226Y-6572294D01*
X3427083Y-6572294D01*
X3455654Y-6586580D01*
X3469940Y-6615151D01*
X3469940Y-6772294D01*
X3469940Y-6615151D02*
X3484226Y-6586580D01*
X3512797Y-6572294D01*
X3555654Y-6572294D01*
X3584226Y-6586580D01*
X3598511Y-6615151D01*
X3598511Y-6772294D01*
X3741368Y-6772294D02*
X3741368Y-6572294D01*
X3741368Y-6600866D02*
X3755654Y-6586580D01*
X3784226Y-6572294D01*
X3827083Y-6572294D01*
X3855654Y-6586580D01*
X3869940Y-6615151D01*
X3869940Y-6772294D01*
X3869940Y-6615151D02*
X3884226Y-6586580D01*
X3912797Y-6572294D01*
X3955654Y-6572294D01*
X3984226Y-6586580D01*
X3998511Y-6615151D01*
X3998511Y-6772294D01*
X4584226Y-6458009D02*
X4327083Y-6843723D01*
X4969940Y-6472294D02*
X4998511Y-6472294D01*
X5027083Y-6486580D01*
X5041368Y-6500866D01*
X5055654Y-6529437D01*
X5069940Y-6586580D01*
X5069940Y-6658009D01*
X5055654Y-6715151D01*
X5041368Y-6743723D01*
X5027083Y-6758009D01*
X4998511Y-6772294D01*
X4969940Y-6772294D01*
X4941368Y-6758009D01*
X4927083Y-6743723D01*
X4912797Y-6715151D01*
X4898511Y-6658009D01*
X4898511Y-6586580D01*
X4912797Y-6529437D01*
X4927083Y-6500866D01*
X4941368Y-6486580D01*
X4969940Y-6472294D01*
X5198511Y-6743723D02*
X5212797Y-6758009D01*
X5198511Y-6772294D01*
X5184226Y-6758009D01*
X5198511Y-6743723D01*
X5198511Y-6772294D01*
X5398511Y-6472294D02*
X5427083Y-6472294D01*
X5455654Y-6486580D01*
X5469940Y-6500866D01*
X5484226Y-6529437D01*
X5498511Y-6586580D01*
X5498511Y-6658009D01*
X5484226Y-6715151D01*
X5469940Y-6743723D01*
X5455654Y-6758009D01*
X5427083Y-6772294D01*
X5398511Y-6772294D01*
X5369940Y-6758009D01*
X5355654Y-6743723D01*
X5341368Y-6715151D01*
X5327083Y-6658009D01*
X5327083Y-6586580D01*
X5341368Y-6529437D01*
X5355654Y-6500866D01*
X5369940Y-6486580D01*
X5398511Y-6472294D01*
X5598511Y-6472294D02*
X5784226Y-6472294D01*
X5684226Y-6586580D01*
X5727083Y-6586580D01*
X5755654Y-6600866D01*
X5769940Y-6615151D01*
X5784226Y-6643723D01*
X5784226Y-6715151D01*
X5769940Y-6743723D01*
X5755654Y-6758009D01*
X5727083Y-6772294D01*
X5641368Y-6772294D01*
X5612797Y-6758009D01*
X5598511Y-6743723D01*
X6055654Y-6472294D02*
X5912797Y-6472294D01*
X5898511Y-6615151D01*
X5912797Y-6600866D01*
X5941368Y-6586580D01*
X6012797Y-6586580D01*
X6041368Y-6600866D01*
X6055654Y-6615151D01*
X6069940Y-6643723D01*
X6069940Y-6715151D01*
X6055654Y-6743723D01*
X6041368Y-6758009D01*
X6012797Y-6772294D01*
X5941368Y-6772294D01*
X5912797Y-6758009D01*
X5898511Y-6743723D01*
X6184226Y-6472294D02*
X6184226Y-6529437D01*
X6298511Y-6472294D02*
X6298511Y-6529437D01*
X6741368Y-6886580D02*
X6727083Y-6872294D01*
X6698511Y-6829437D01*
X6684226Y-6800866D01*
X6669940Y-6758009D01*
X6655654Y-6686580D01*
X6655654Y-6629437D01*
X6669940Y-6558009D01*
X6684226Y-6515151D01*
X6698511Y-6486580D01*
X6727083Y-6443723D01*
X6741368Y-6429437D01*
X6998511Y-6472294D02*
X6855654Y-6472294D01*
X6841368Y-6615151D01*
X6855654Y-6600866D01*
X6884226Y-6586580D01*
X6955654Y-6586580D01*
X6984226Y-6600866D01*
X6998511Y-6615151D01*
X7012797Y-6643723D01*
X7012797Y-6715151D01*
X6998511Y-6743723D01*
X6984226Y-6758009D01*
X6955654Y-6772294D01*
X6884226Y-6772294D01*
X6855654Y-6758009D01*
X6841368Y-6743723D01*
X7269940Y-6472294D02*
X7212797Y-6472294D01*
X7184226Y-6486580D01*
X7169940Y-6500866D01*
X7141368Y-6543723D01*
X7127083Y-6600866D01*
X7127083Y-6715151D01*
X7141368Y-6743723D01*
X7155654Y-6758009D01*
X7184226Y-6772294D01*
X7241368Y-6772294D01*
X7269940Y-6758009D01*
X7284226Y-6743723D01*
X7298511Y-6715151D01*
X7298511Y-6643723D01*
X7284226Y-6615151D01*
X7269940Y-6600866D01*
X7241368Y-6586580D01*
X7184226Y-6586580D01*
X7155654Y-6600866D01*
X7141368Y-6615151D01*
X7127083Y-6643723D01*
X7655654Y-6772294D02*
X7655654Y-6472294D01*
X7784226Y-6772294D02*
X7784226Y-6615151D01*
X7769940Y-6586580D01*
X7741368Y-6572294D01*
X7698511Y-6572294D01*
X7669940Y-6586580D01*
X7655654Y-6600866D01*
X7969940Y-6772294D02*
X7941368Y-6758009D01*
X7927083Y-6743723D01*
X7912797Y-6715151D01*
X7912797Y-6629437D01*
X7927083Y-6600866D01*
X7941368Y-6586580D01*
X7969940Y-6572294D01*
X8012797Y-6572294D01*
X8041368Y-6586580D01*
X8055654Y-6600866D01*
X8069940Y-6629437D01*
X8069940Y-6715151D01*
X8055654Y-6743723D01*
X8041368Y-6758009D01*
X8012797Y-6772294D01*
X7969940Y-6772294D01*
X8241368Y-6772294D02*
X8212797Y-6758009D01*
X8198511Y-6729437D01*
X8198511Y-6472294D01*
X8469940Y-6758009D02*
X8441368Y-6772294D01*
X8384226Y-6772294D01*
X8355654Y-6758009D01*
X8341368Y-6729437D01*
X8341368Y-6615151D01*
X8355654Y-6586580D01*
X8384226Y-6572294D01*
X8441368Y-6572294D01*
X8469940Y-6586580D01*
X8484226Y-6615151D01*
X8484226Y-6643723D01*
X8341368Y-6672294D01*
X8598511Y-6758009D02*
X8627083Y-6772294D01*
X8684226Y-6772294D01*
X8712797Y-6758009D01*
X8727083Y-6729437D01*
X8727083Y-6715151D01*
X8712797Y-6686580D01*
X8684226Y-6672294D01*
X8641368Y-6672294D01*
X8612797Y-6658009D01*
X8598511Y-6629437D01*
X8598511Y-6615151D01*
X8612797Y-6586580D01*
X8641368Y-6572294D01*
X8684226Y-6572294D01*
X8712797Y-6586580D01*
X8827083Y-6886580D02*
X8841368Y-6872294D01*
X8869940Y-6829437D01*
X8884226Y-6800866D01*
X8898511Y-6758009D01*
X8912797Y-6686580D01*
X8912797Y-6629437D01*
X8898511Y-6558009D01*
X8884226Y-6515151D01*
X8869940Y-6486580D01*
X8841368Y-6443723D01*
X8827083Y-6429437D01*
X2004140Y-6981780D02*
X2004140Y-7083380D01*
X1953340Y-7032580D02*
X2054940Y-7032580D01*
X2498511Y-7168294D02*
X2327083Y-7168294D01*
X2412797Y-7168294D02*
X2412797Y-6868294D01*
X2384226Y-6911151D01*
X2355654Y-6939723D01*
X2327083Y-6954009D01*
X2627083Y-7139723D02*
X2641368Y-7154009D01*
X2627083Y-7168294D01*
X2612797Y-7154009D01*
X2627083Y-7139723D01*
X2627083Y-7168294D01*
X2827083Y-6868294D02*
X2855654Y-6868294D01*
X2884226Y-6882580D01*
X2898511Y-6896866D01*
X2912797Y-6925437D01*
X2927083Y-6982580D01*
X2927083Y-7054009D01*
X2912797Y-7111151D01*
X2898511Y-7139723D01*
X2884226Y-7154009D01*
X2855654Y-7168294D01*
X2827083Y-7168294D01*
X2798511Y-7154009D01*
X2784226Y-7139723D01*
X2769940Y-7111151D01*
X2755654Y-7054009D01*
X2755654Y-6982580D01*
X2769940Y-6925437D01*
X2784226Y-6896866D01*
X2798511Y-6882580D01*
X2827083Y-6868294D01*
X3041368Y-6896866D02*
X3055654Y-6882580D01*
X3084226Y-6868294D01*
X3155654Y-6868294D01*
X3184226Y-6882580D01*
X3198511Y-6896866D01*
X3212797Y-6925437D01*
X3212797Y-6954009D01*
X3198511Y-6996866D01*
X3027083Y-7168294D01*
X3212797Y-7168294D01*
X3341368Y-7168294D02*
X3341368Y-6968294D01*
X3341368Y-6996866D02*
X3355654Y-6982580D01*
X3384226Y-6968294D01*
X3427083Y-6968294D01*
X3455654Y-6982580D01*
X3469940Y-7011151D01*
X3469940Y-7168294D01*
X3469940Y-7011151D02*
X3484226Y-6982580D01*
X3512797Y-6968294D01*
X3555654Y-6968294D01*
X3584226Y-6982580D01*
X3598511Y-7011151D01*
X3598511Y-7168294D01*
X3741368Y-7168294D02*
X3741368Y-6968294D01*
X3741368Y-6996866D02*
X3755654Y-6982580D01*
X3784226Y-6968294D01*
X3827083Y-6968294D01*
X3855654Y-6982580D01*
X3869940Y-7011151D01*
X3869940Y-7168294D01*
X3869940Y-7011151D02*
X3884226Y-6982580D01*
X3912797Y-6968294D01*
X3955654Y-6968294D01*
X3984226Y-6982580D01*
X3998511Y-7011151D01*
X3998511Y-7168294D01*
X4584226Y-6854009D02*
X4327083Y-7239723D01*
X4969940Y-6868294D02*
X4998511Y-6868294D01*
X5027083Y-6882580D01*
X5041368Y-6896866D01*
X5055654Y-6925437D01*
X5069940Y-6982580D01*
X5069940Y-7054009D01*
X5055654Y-7111151D01*
X5041368Y-7139723D01*
X5027083Y-7154009D01*
X4998511Y-7168294D01*
X4969940Y-7168294D01*
X4941368Y-7154009D01*
X4927083Y-7139723D01*
X4912797Y-7111151D01*
X4898511Y-7054009D01*
X4898511Y-6982580D01*
X4912797Y-6925437D01*
X4927083Y-6896866D01*
X4941368Y-6882580D01*
X4969940Y-6868294D01*
X5198511Y-7139723D02*
X5212797Y-7154009D01*
X5198511Y-7168294D01*
X5184226Y-7154009D01*
X5198511Y-7139723D01*
X5198511Y-7168294D01*
X5398511Y-6868294D02*
X5427083Y-6868294D01*
X5455654Y-6882580D01*
X5469940Y-6896866D01*
X5484226Y-6925437D01*
X5498511Y-6982580D01*
X5498511Y-7054009D01*
X5484226Y-7111151D01*
X5469940Y-7139723D01*
X5455654Y-7154009D01*
X5427083Y-7168294D01*
X5398511Y-7168294D01*
X5369940Y-7154009D01*
X5355654Y-7139723D01*
X5341368Y-7111151D01*
X5327083Y-7054009D01*
X5327083Y-6982580D01*
X5341368Y-6925437D01*
X5355654Y-6896866D01*
X5369940Y-6882580D01*
X5398511Y-6868294D01*
X5755654Y-6968294D02*
X5755654Y-7168294D01*
X5684226Y-6854009D02*
X5612797Y-7068294D01*
X5798511Y-7068294D01*
X5969940Y-6868294D02*
X5998511Y-6868294D01*
X6027083Y-6882580D01*
X6041368Y-6896866D01*
X6055654Y-6925437D01*
X6069940Y-6982580D01*
X6069940Y-7054009D01*
X6055654Y-7111151D01*
X6041368Y-7139723D01*
X6027083Y-7154009D01*
X5998511Y-7168294D01*
X5969940Y-7168294D01*
X5941368Y-7154009D01*
X5927083Y-7139723D01*
X5912797Y-7111151D01*
X5898511Y-7054009D01*
X5898511Y-6982580D01*
X5912797Y-6925437D01*
X5927083Y-6896866D01*
X5941368Y-6882580D01*
X5969940Y-6868294D01*
X6184226Y-6868294D02*
X6184226Y-6925437D01*
X6298511Y-6868294D02*
X6298511Y-6925437D01*
X6741368Y-7282580D02*
X6727083Y-7268294D01*
X6698511Y-7225437D01*
X6684226Y-7196866D01*
X6669940Y-7154009D01*
X6655654Y-7082580D01*
X6655654Y-7025437D01*
X6669940Y-6954009D01*
X6684226Y-6911151D01*
X6698511Y-6882580D01*
X6727083Y-6839723D01*
X6741368Y-6825437D01*
X7012797Y-7168294D02*
X6841368Y-7168294D01*
X6927083Y-7168294D02*
X6927083Y-6868294D01*
X6898511Y-6911151D01*
X6869940Y-6939723D01*
X6841368Y-6954009D01*
X7269940Y-6868294D02*
X7212797Y-6868294D01*
X7184226Y-6882580D01*
X7169940Y-6896866D01*
X7141368Y-6939723D01*
X7127083Y-6996866D01*
X7127083Y-7111151D01*
X7141368Y-7139723D01*
X7155654Y-7154009D01*
X7184226Y-7168294D01*
X7241368Y-7168294D01*
X7269940Y-7154009D01*
X7284226Y-7139723D01*
X7298511Y-7111151D01*
X7298511Y-7039723D01*
X7284226Y-7011151D01*
X7269940Y-6996866D01*
X7241368Y-6982580D01*
X7184226Y-6982580D01*
X7155654Y-6996866D01*
X7141368Y-7011151D01*
X7127083Y-7039723D01*
X7655654Y-7168294D02*
X7655654Y-6868294D01*
X7784226Y-7168294D02*
X7784226Y-7011151D01*
X7769940Y-6982580D01*
X7741368Y-6968294D01*
X7698511Y-6968294D01*
X7669940Y-6982580D01*
X7655654Y-6996866D01*
X7969940Y-7168294D02*
X7941368Y-7154009D01*
X7927083Y-7139723D01*
X7912797Y-7111151D01*
X7912797Y-7025437D01*
X7927083Y-6996866D01*
X7941368Y-6982580D01*
X7969940Y-6968294D01*
X8012797Y-6968294D01*
X8041368Y-6982580D01*
X8055654Y-6996866D01*
X8069940Y-7025437D01*
X8069940Y-7111151D01*
X8055654Y-7139723D01*
X8041368Y-7154009D01*
X8012797Y-7168294D01*
X7969940Y-7168294D01*
X8241368Y-7168294D02*
X8212797Y-7154009D01*
X8198511Y-7125437D01*
X8198511Y-6868294D01*
X8469940Y-7154009D02*
X8441368Y-7168294D01*
X8384226Y-7168294D01*
X8355654Y-7154009D01*
X8341368Y-7125437D01*
X8341368Y-7011151D01*
X8355654Y-6982580D01*
X8384226Y-6968294D01*
X8441368Y-6968294D01*
X8469940Y-6982580D01*
X8484226Y-7011151D01*
X8484226Y-7039723D01*
X8341368Y-7068294D01*
X8598511Y-7154009D02*
X8627083Y-7168294D01*
X8684226Y-7168294D01*
X8712797Y-7154009D01*
X8727083Y-7125437D01*
X8727083Y-7111151D01*
X8712797Y-7082580D01*
X8684226Y-7068294D01*
X8641368Y-7068294D01*
X8612797Y-7054009D01*
X8598511Y-7025437D01*
X8598511Y-7011151D01*
X8612797Y-6982580D01*
X8641368Y-6968294D01*
X8684226Y-6968294D01*
X8712797Y-6982580D01*
X8827083Y-7282580D02*
X8841368Y-7268294D01*
X8869940Y-7225437D01*
X8884226Y-7196866D01*
X8898511Y-7154009D01*
X8912797Y-7082580D01*
X8912797Y-7025437D01*
X8898511Y-6954009D01*
X8884226Y-6911151D01*
X8869940Y-6882580D01*
X8841368Y-6839723D01*
X8827083Y-6825437D01*
X2038831Y-7467471D02*
X2038831Y-7389689D01*
X1961049Y-7389689D01*
X1961049Y-7467471D01*
X2038831Y-7467471D01*
X2498511Y-7564294D02*
X2327083Y-7564294D01*
X2412797Y-7564294D02*
X2412797Y-7264294D01*
X2384226Y-7307151D01*
X2355654Y-7335723D01*
X2327083Y-7350009D01*
X2627083Y-7535723D02*
X2641368Y-7550009D01*
X2627083Y-7564294D01*
X2612797Y-7550009D01*
X2627083Y-7535723D01*
X2627083Y-7564294D01*
X2927083Y-7564294D02*
X2755654Y-7564294D01*
X2841368Y-7564294D02*
X2841368Y-7264294D01*
X2812797Y-7307151D01*
X2784226Y-7335723D01*
X2755654Y-7350009D01*
X3112797Y-7264294D02*
X3141368Y-7264294D01*
X3169940Y-7278580D01*
X3184226Y-7292866D01*
X3198511Y-7321437D01*
X3212797Y-7378580D01*
X3212797Y-7450009D01*
X3198511Y-7507151D01*
X3184226Y-7535723D01*
X3169940Y-7550009D01*
X3141368Y-7564294D01*
X3112797Y-7564294D01*
X3084226Y-7550009D01*
X3069940Y-7535723D01*
X3055654Y-7507151D01*
X3041368Y-7450009D01*
X3041368Y-7378580D01*
X3055654Y-7321437D01*
X3069940Y-7292866D01*
X3084226Y-7278580D01*
X3112797Y-7264294D01*
X3341368Y-7564294D02*
X3341368Y-7364294D01*
X3341368Y-7392866D02*
X3355654Y-7378580D01*
X3384226Y-7364294D01*
X3427083Y-7364294D01*
X3455654Y-7378580D01*
X3469940Y-7407151D01*
X3469940Y-7564294D01*
X3469940Y-7407151D02*
X3484226Y-7378580D01*
X3512797Y-7364294D01*
X3555654Y-7364294D01*
X3584226Y-7378580D01*
X3598511Y-7407151D01*
X3598511Y-7564294D01*
X3741368Y-7564294D02*
X3741368Y-7364294D01*
X3741368Y-7392866D02*
X3755654Y-7378580D01*
X3784226Y-7364294D01*
X3827083Y-7364294D01*
X3855654Y-7378580D01*
X3869940Y-7407151D01*
X3869940Y-7564294D01*
X3869940Y-7407151D02*
X3884226Y-7378580D01*
X3912797Y-7364294D01*
X3955654Y-7364294D01*
X3984226Y-7378580D01*
X3998511Y-7407151D01*
X3998511Y-7564294D01*
X4584226Y-7250009D02*
X4327083Y-7635723D01*
X4969940Y-7264294D02*
X4998511Y-7264294D01*
X5027083Y-7278580D01*
X5041368Y-7292866D01*
X5055654Y-7321437D01*
X5069940Y-7378580D01*
X5069940Y-7450009D01*
X5055654Y-7507151D01*
X5041368Y-7535723D01*
X5027083Y-7550009D01*
X4998511Y-7564294D01*
X4969940Y-7564294D01*
X4941368Y-7550009D01*
X4927083Y-7535723D01*
X4912797Y-7507151D01*
X4898511Y-7450009D01*
X4898511Y-7378580D01*
X4912797Y-7321437D01*
X4927083Y-7292866D01*
X4941368Y-7278580D01*
X4969940Y-7264294D01*
X5198511Y-7535723D02*
X5212797Y-7550009D01*
X5198511Y-7564294D01*
X5184226Y-7550009D01*
X5198511Y-7535723D01*
X5198511Y-7564294D01*
X5398511Y-7264294D02*
X5427083Y-7264294D01*
X5455654Y-7278580D01*
X5469940Y-7292866D01*
X5484226Y-7321437D01*
X5498511Y-7378580D01*
X5498511Y-7450009D01*
X5484226Y-7507151D01*
X5469940Y-7535723D01*
X5455654Y-7550009D01*
X5427083Y-7564294D01*
X5398511Y-7564294D01*
X5369940Y-7550009D01*
X5355654Y-7535723D01*
X5341368Y-7507151D01*
X5327083Y-7450009D01*
X5327083Y-7378580D01*
X5341368Y-7321437D01*
X5355654Y-7292866D01*
X5369940Y-7278580D01*
X5398511Y-7264294D01*
X5755654Y-7364294D02*
X5755654Y-7564294D01*
X5684226Y-7250009D02*
X5612797Y-7464294D01*
X5798511Y-7464294D01*
X5884226Y-7264294D02*
X6069940Y-7264294D01*
X5969940Y-7378580D01*
X6012797Y-7378580D01*
X6041368Y-7392866D01*
X6055654Y-7407151D01*
X6069940Y-7435723D01*
X6069940Y-7507151D01*
X6055654Y-7535723D01*
X6041368Y-7550009D01*
X6012797Y-7564294D01*
X5927083Y-7564294D01*
X5898511Y-7550009D01*
X5884226Y-7535723D01*
X6184226Y-7264294D02*
X6184226Y-7321437D01*
X6298511Y-7264294D02*
X6298511Y-7321437D01*
X6741368Y-7678580D02*
X6727083Y-7664294D01*
X6698511Y-7621437D01*
X6684226Y-7592866D01*
X6669940Y-7550009D01*
X6655654Y-7478580D01*
X6655654Y-7421437D01*
X6669940Y-7350009D01*
X6684226Y-7307151D01*
X6698511Y-7278580D01*
X6727083Y-7235723D01*
X6741368Y-7221437D01*
X6841368Y-7292866D02*
X6855654Y-7278580D01*
X6884226Y-7264294D01*
X6955654Y-7264294D01*
X6984226Y-7278580D01*
X6998511Y-7292866D01*
X7012797Y-7321437D01*
X7012797Y-7350009D01*
X6998511Y-7392866D01*
X6827083Y-7564294D01*
X7012797Y-7564294D01*
X7369940Y-7564294D02*
X7369940Y-7264294D01*
X7498511Y-7564294D02*
X7498511Y-7407151D01*
X7484226Y-7378580D01*
X7455654Y-7364294D01*
X7412797Y-7364294D01*
X7384226Y-7378580D01*
X7369940Y-7392866D01*
X7684226Y-7564294D02*
X7655654Y-7550009D01*
X7641368Y-7535723D01*
X7627083Y-7507151D01*
X7627083Y-7421437D01*
X7641368Y-7392866D01*
X7655654Y-7378580D01*
X7684226Y-7364294D01*
X7727083Y-7364294D01*
X7755654Y-7378580D01*
X7769940Y-7392866D01*
X7784226Y-7421437D01*
X7784226Y-7507151D01*
X7769940Y-7535723D01*
X7755654Y-7550009D01*
X7727083Y-7564294D01*
X7684226Y-7564294D01*
X7955654Y-7564294D02*
X7927083Y-7550009D01*
X7912797Y-7521437D01*
X7912797Y-7264294D01*
X8184226Y-7550009D02*
X8155654Y-7564294D01*
X8098511Y-7564294D01*
X8069940Y-7550009D01*
X8055654Y-7521437D01*
X8055654Y-7407151D01*
X8069940Y-7378580D01*
X8098511Y-7364294D01*
X8155654Y-7364294D01*
X8184226Y-7378580D01*
X8198511Y-7407151D01*
X8198511Y-7435723D01*
X8055654Y-7464294D01*
X8312797Y-7550009D02*
X8341368Y-7564294D01*
X8398511Y-7564294D01*
X8427083Y-7550009D01*
X8441368Y-7521437D01*
X8441368Y-7507151D01*
X8427083Y-7478580D01*
X8398511Y-7464294D01*
X8355654Y-7464294D01*
X8327083Y-7450009D01*
X8312797Y-7421437D01*
X8312797Y-7407151D01*
X8327083Y-7378580D01*
X8355654Y-7364294D01*
X8398511Y-7364294D01*
X8427083Y-7378580D01*
X8541368Y-7678580D02*
X8555654Y-7664294D01*
X8584226Y-7621437D01*
X8598511Y-7592866D01*
X8612797Y-7550009D01*
X8627083Y-7478580D01*
X8627083Y-7421437D01*
X8612797Y-7350009D01*
X8598511Y-7307151D01*
X8584226Y-7278580D01*
X8555654Y-7235723D01*
X8541368Y-7221437D01*
M02*
