G04 #@! TF.GenerationSoftware,KiCad,Pcbnew,(5.1.4-0-10_14)*
G04 #@! TF.CreationDate,2020-02-03T15:25:23+11:00*
G04 #@! TF.ProjectId,SmartWatch+,536d6172-7457-4617-9463-682b2e6b6963,rev?*
G04 #@! TF.SameCoordinates,Original*
G04 #@! TF.FileFunction,Legend,Bot*
G04 #@! TF.FilePolarity,Positive*
%FSLAX46Y46*%
G04 Gerber Fmt 4.6, Leading zero omitted, Abs format (unit mm)*
G04 Created by KiCad (PCBNEW (5.1.4-0-10_14)) date 2020-02-03 15:25:23*
%MOMM*%
%LPD*%
G04 APERTURE LIST*
%ADD10C,0.010000*%
G04 APERTURE END LIST*
D10*
G36*
X76221166Y-38693915D02*
G01*
X75770761Y-38718670D01*
X75464099Y-38796806D01*
X75281435Y-38937596D01*
X75203026Y-39150313D01*
X75200409Y-39173297D01*
X75245012Y-39434397D01*
X75431713Y-39612186D01*
X75751672Y-39700112D01*
X75922505Y-39708667D01*
X76149033Y-39716035D01*
X76253492Y-39763917D01*
X76283133Y-39890976D01*
X76284666Y-40005000D01*
X76298826Y-40204095D01*
X76370646Y-40285756D01*
X76538666Y-40301334D01*
X76792666Y-40301334D01*
X76792666Y-39243000D01*
X76284666Y-39243000D01*
X76254622Y-39397998D01*
X76130353Y-39451463D01*
X76047600Y-39454667D01*
X75838859Y-39422771D01*
X75715549Y-39359683D01*
X75647086Y-39214828D01*
X75723810Y-39097226D01*
X75921579Y-39035004D01*
X75997392Y-39031334D01*
X76193850Y-39048351D01*
X76272612Y-39124082D01*
X76284666Y-39243000D01*
X76792666Y-39243000D01*
X76792666Y-38692667D01*
X76221166Y-38693915D01*
X76221166Y-38693915D01*
G37*
X76221166Y-38693915D02*
X75770761Y-38718670D01*
X75464099Y-38796806D01*
X75281435Y-38937596D01*
X75203026Y-39150313D01*
X75200409Y-39173297D01*
X75245012Y-39434397D01*
X75431713Y-39612186D01*
X75751672Y-39700112D01*
X75922505Y-39708667D01*
X76149033Y-39716035D01*
X76253492Y-39763917D01*
X76283133Y-39890976D01*
X76284666Y-40005000D01*
X76298826Y-40204095D01*
X76370646Y-40285756D01*
X76538666Y-40301334D01*
X76792666Y-40301334D01*
X76792666Y-39243000D01*
X76284666Y-39243000D01*
X76254622Y-39397998D01*
X76130353Y-39451463D01*
X76047600Y-39454667D01*
X75838859Y-39422771D01*
X75715549Y-39359683D01*
X75647086Y-39214828D01*
X75723810Y-39097226D01*
X75921579Y-39035004D01*
X75997392Y-39031334D01*
X76193850Y-39048351D01*
X76272612Y-39124082D01*
X76284666Y-39243000D01*
X76792666Y-39243000D01*
X76792666Y-38692667D01*
X76221166Y-38693915D01*
G36*
X74121761Y-38741113D02*
G01*
X74023513Y-38778623D01*
X73937292Y-38876291D01*
X73840945Y-39062876D01*
X73712322Y-39367136D01*
X73650951Y-39518167D01*
X73333556Y-40301334D01*
X73578466Y-40301334D01*
X73816750Y-40238493D01*
X73914000Y-40132000D01*
X74038400Y-40009216D01*
X74263926Y-39964105D01*
X74334607Y-39962667D01*
X74569555Y-39984900D01*
X74688296Y-40066008D01*
X74718333Y-40132000D01*
X74842663Y-40274297D01*
X74978039Y-40301334D01*
X75132283Y-40279131D01*
X75178585Y-40237834D01*
X75144095Y-40137026D01*
X75056137Y-39919646D01*
X74930343Y-39623714D01*
X74919560Y-39598995D01*
X74487958Y-39598995D01*
X74486506Y-39686436D01*
X74400852Y-39708081D01*
X74337333Y-39708667D01*
X74195218Y-39649097D01*
X74169296Y-39560500D01*
X74214931Y-39356772D01*
X74249102Y-39288202D01*
X74315767Y-39230292D01*
X74380558Y-39311087D01*
X74417139Y-39399547D01*
X74487958Y-39598995D01*
X74919560Y-39598995D01*
X74856600Y-39454667D01*
X74705334Y-39117431D01*
X74595912Y-38906374D01*
X74503619Y-38791972D01*
X74403742Y-38744701D01*
X74271566Y-38735035D01*
X74254189Y-38735000D01*
X74121761Y-38741113D01*
X74121761Y-38741113D01*
G37*
X74121761Y-38741113D02*
X74023513Y-38778623D01*
X73937292Y-38876291D01*
X73840945Y-39062876D01*
X73712322Y-39367136D01*
X73650951Y-39518167D01*
X73333556Y-40301334D01*
X73578466Y-40301334D01*
X73816750Y-40238493D01*
X73914000Y-40132000D01*
X74038400Y-40009216D01*
X74263926Y-39964105D01*
X74334607Y-39962667D01*
X74569555Y-39984900D01*
X74688296Y-40066008D01*
X74718333Y-40132000D01*
X74842663Y-40274297D01*
X74978039Y-40301334D01*
X75132283Y-40279131D01*
X75178585Y-40237834D01*
X75144095Y-40137026D01*
X75056137Y-39919646D01*
X74930343Y-39623714D01*
X74919560Y-39598995D01*
X74487958Y-39598995D01*
X74486506Y-39686436D01*
X74400852Y-39708081D01*
X74337333Y-39708667D01*
X74195218Y-39649097D01*
X74169296Y-39560500D01*
X74214931Y-39356772D01*
X74249102Y-39288202D01*
X74315767Y-39230292D01*
X74380558Y-39311087D01*
X74417139Y-39399547D01*
X74487958Y-39598995D01*
X74919560Y-39598995D01*
X74856600Y-39454667D01*
X74705334Y-39117431D01*
X74595912Y-38906374D01*
X74503619Y-38791972D01*
X74403742Y-38744701D01*
X74271566Y-38735035D01*
X74254189Y-38735000D01*
X74121761Y-38741113D01*
G36*
X72659061Y-38720414D02*
G01*
X72507116Y-38824074D01*
X72325244Y-39034276D01*
X72249044Y-39136184D01*
X71924333Y-39579702D01*
X71882000Y-39157351D01*
X71845103Y-38900996D01*
X71788009Y-38773789D01*
X71690578Y-38735548D01*
X71670333Y-38735000D01*
X71590249Y-38748640D01*
X71538416Y-38810695D01*
X71506995Y-38952864D01*
X71488147Y-39206849D01*
X71476656Y-39518167D01*
X71452312Y-40301334D01*
X71694685Y-40301334D01*
X71850509Y-40274030D01*
X71998347Y-40172036D01*
X72175525Y-39965223D01*
X72269362Y-39837493D01*
X72445781Y-39603184D01*
X72588111Y-39435814D01*
X72665166Y-39371826D01*
X72699934Y-39447341D01*
X72722998Y-39644063D01*
X72728666Y-39835667D01*
X72736016Y-40104775D01*
X72767794Y-40244965D01*
X72838593Y-40296367D01*
X72898000Y-40301334D01*
X72976702Y-40289188D01*
X73026374Y-40231810D01*
X73053627Y-40097790D01*
X73065075Y-39855716D01*
X73067333Y-39497000D01*
X73067333Y-38692667D01*
X72820544Y-38692667D01*
X72659061Y-38720414D01*
X72659061Y-38720414D01*
G37*
X72659061Y-38720414D02*
X72507116Y-38824074D01*
X72325244Y-39034276D01*
X72249044Y-39136184D01*
X71924333Y-39579702D01*
X71882000Y-39157351D01*
X71845103Y-38900996D01*
X71788009Y-38773789D01*
X71690578Y-38735548D01*
X71670333Y-38735000D01*
X71590249Y-38748640D01*
X71538416Y-38810695D01*
X71506995Y-38952864D01*
X71488147Y-39206849D01*
X71476656Y-39518167D01*
X71452312Y-40301334D01*
X71694685Y-40301334D01*
X71850509Y-40274030D01*
X71998347Y-40172036D01*
X72175525Y-39965223D01*
X72269362Y-39837493D01*
X72445781Y-39603184D01*
X72588111Y-39435814D01*
X72665166Y-39371826D01*
X72699934Y-39447341D01*
X72722998Y-39644063D01*
X72728666Y-39835667D01*
X72736016Y-40104775D01*
X72767794Y-40244965D01*
X72838593Y-40296367D01*
X72898000Y-40301334D01*
X72976702Y-40289188D01*
X73026374Y-40231810D01*
X73053627Y-40097790D01*
X73065075Y-39855716D01*
X73067333Y-39497000D01*
X73067333Y-38692667D01*
X72820544Y-38692667D01*
X72659061Y-38720414D01*
G36*
X70725609Y-38698252D02*
G01*
X70663766Y-38736155D01*
X70629790Y-38838092D01*
X70615335Y-39035784D01*
X70612053Y-39360947D01*
X70612000Y-39497000D01*
X70613470Y-39869619D01*
X70623444Y-40104623D01*
X70650270Y-40233730D01*
X70702294Y-40288660D01*
X70787863Y-40301130D01*
X70823666Y-40301334D01*
X70921724Y-40295748D01*
X70983567Y-40257846D01*
X71017543Y-40155908D01*
X71031998Y-39958217D01*
X71035280Y-39633054D01*
X71035333Y-39497000D01*
X71033863Y-39124381D01*
X71023889Y-38889377D01*
X70997063Y-38760270D01*
X70945039Y-38705340D01*
X70859470Y-38692870D01*
X70823666Y-38692667D01*
X70725609Y-38698252D01*
X70725609Y-38698252D01*
G37*
X70725609Y-38698252D02*
X70663766Y-38736155D01*
X70629790Y-38838092D01*
X70615335Y-39035784D01*
X70612053Y-39360947D01*
X70612000Y-39497000D01*
X70613470Y-39869619D01*
X70623444Y-40104623D01*
X70650270Y-40233730D01*
X70702294Y-40288660D01*
X70787863Y-40301130D01*
X70823666Y-40301334D01*
X70921724Y-40295748D01*
X70983567Y-40257846D01*
X71017543Y-40155908D01*
X71031998Y-39958217D01*
X71035280Y-39633054D01*
X71035333Y-39497000D01*
X71033863Y-39124381D01*
X71023889Y-38889377D01*
X70997063Y-38760270D01*
X70945039Y-38705340D01*
X70859470Y-38692870D01*
X70823666Y-38692667D01*
X70725609Y-38698252D01*
G36*
X68996815Y-38737873D02*
G01*
X68744665Y-38852676D01*
X68560327Y-39005851D01*
X68495333Y-39154608D01*
X68562706Y-39265149D01*
X68717961Y-39310475D01*
X68890802Y-39285813D01*
X69009310Y-39189499D01*
X69159727Y-39063595D01*
X69371967Y-39037969D01*
X69565902Y-39120574D01*
X69579066Y-39132934D01*
X69647508Y-39281401D01*
X69680201Y-39509687D01*
X69680666Y-39539334D01*
X69653991Y-39771333D01*
X69588794Y-39934610D01*
X69579066Y-39945734D01*
X69379870Y-40040738D01*
X69156138Y-40006930D01*
X68988759Y-39866762D01*
X68847254Y-39736881D01*
X68682098Y-39745467D01*
X68526370Y-39829809D01*
X68520843Y-39951097D01*
X68664502Y-40131836D01*
X68664666Y-40132000D01*
X68889733Y-40255414D01*
X69204349Y-40307896D01*
X69544325Y-40289498D01*
X69845471Y-40200271D01*
X69959081Y-40130968D01*
X70174390Y-39864378D01*
X70240436Y-39537646D01*
X70151289Y-39180795D01*
X70148109Y-39174033D01*
X69941098Y-38893002D01*
X69636486Y-38736113D01*
X69264767Y-38692667D01*
X68996815Y-38737873D01*
X68996815Y-38737873D01*
G37*
X68996815Y-38737873D02*
X68744665Y-38852676D01*
X68560327Y-39005851D01*
X68495333Y-39154608D01*
X68562706Y-39265149D01*
X68717961Y-39310475D01*
X68890802Y-39285813D01*
X69009310Y-39189499D01*
X69159727Y-39063595D01*
X69371967Y-39037969D01*
X69565902Y-39120574D01*
X69579066Y-39132934D01*
X69647508Y-39281401D01*
X69680201Y-39509687D01*
X69680666Y-39539334D01*
X69653991Y-39771333D01*
X69588794Y-39934610D01*
X69579066Y-39945734D01*
X69379870Y-40040738D01*
X69156138Y-40006930D01*
X68988759Y-39866762D01*
X68847254Y-39736881D01*
X68682098Y-39745467D01*
X68526370Y-39829809D01*
X68520843Y-39951097D01*
X68664502Y-40131836D01*
X68664666Y-40132000D01*
X68889733Y-40255414D01*
X69204349Y-40307896D01*
X69544325Y-40289498D01*
X69845471Y-40200271D01*
X69959081Y-40130968D01*
X70174390Y-39864378D01*
X70240436Y-39537646D01*
X70151289Y-39180795D01*
X70148109Y-39174033D01*
X69941098Y-38893002D01*
X69636486Y-38736113D01*
X69264767Y-38692667D01*
X68996815Y-38737873D01*
G36*
X73645215Y-36785028D02*
G01*
X73341115Y-36967546D01*
X73314820Y-36992821D01*
X73124480Y-37288243D01*
X73061574Y-37631680D01*
X73132456Y-37964714D01*
X73196829Y-38077871D01*
X73340475Y-38199184D01*
X73567303Y-38318834D01*
X73806118Y-38405850D01*
X73985727Y-38429263D01*
X73998666Y-38426665D01*
X74106556Y-38403504D01*
X74228610Y-38379293D01*
X74440400Y-38270107D01*
X74647438Y-38060550D01*
X74798700Y-37813141D01*
X74845333Y-37623633D01*
X74845143Y-37622720D01*
X74337333Y-37622720D01*
X74275864Y-37863233D01*
X74122178Y-38029938D01*
X73922358Y-38096619D01*
X73722488Y-38037063D01*
X73676933Y-37998400D01*
X73608492Y-37849932D01*
X73575798Y-37621647D01*
X73575333Y-37592000D01*
X73621671Y-37292564D01*
X73765650Y-37126859D01*
X73970288Y-37084000D01*
X74168849Y-37159903D01*
X74298334Y-37365654D01*
X74337333Y-37622720D01*
X74845143Y-37622720D01*
X74772445Y-37273700D01*
X74578663Y-36999489D01*
X74301314Y-36816384D01*
X73977723Y-36739769D01*
X73645215Y-36785028D01*
X73645215Y-36785028D01*
G37*
X73645215Y-36785028D02*
X73341115Y-36967546D01*
X73314820Y-36992821D01*
X73124480Y-37288243D01*
X73061574Y-37631680D01*
X73132456Y-37964714D01*
X73196829Y-38077871D01*
X73340475Y-38199184D01*
X73567303Y-38318834D01*
X73806118Y-38405850D01*
X73985727Y-38429263D01*
X73998666Y-38426665D01*
X74106556Y-38403504D01*
X74228610Y-38379293D01*
X74440400Y-38270107D01*
X74647438Y-38060550D01*
X74798700Y-37813141D01*
X74845333Y-37623633D01*
X74845143Y-37622720D01*
X74337333Y-37622720D01*
X74275864Y-37863233D01*
X74122178Y-38029938D01*
X73922358Y-38096619D01*
X73722488Y-38037063D01*
X73676933Y-37998400D01*
X73608492Y-37849932D01*
X73575798Y-37621647D01*
X73575333Y-37592000D01*
X73621671Y-37292564D01*
X73765650Y-37126859D01*
X73970288Y-37084000D01*
X74168849Y-37159903D01*
X74298334Y-37365654D01*
X74337333Y-37622720D01*
X74845143Y-37622720D01*
X74772445Y-37273700D01*
X74578663Y-36999489D01*
X74301314Y-36816384D01*
X73977723Y-36739769D01*
X73645215Y-36785028D01*
G36*
X75711817Y-36830207D02*
G01*
X75402295Y-36964471D01*
X75300369Y-37044600D01*
X75124053Y-37327983D01*
X75092155Y-37647297D01*
X75202055Y-37954493D01*
X75359829Y-38134807D01*
X75525902Y-38254824D01*
X75701991Y-38321391D01*
X75945760Y-38349379D01*
X76209673Y-38354000D01*
X76799021Y-38354000D01*
X76775335Y-37592000D01*
X76284666Y-37592000D01*
X76277957Y-37876877D01*
X76249824Y-38030817D01*
X76188259Y-38091958D01*
X76124713Y-38100000D01*
X75941881Y-38048553D01*
X75775463Y-37946717D01*
X75613803Y-37730962D01*
X75581975Y-37490040D01*
X75665415Y-37271266D01*
X75849559Y-37121953D01*
X76041033Y-37084000D01*
X76175900Y-37091467D01*
X76248694Y-37140472D01*
X76278556Y-37270922D01*
X76284624Y-37522721D01*
X76284666Y-37592000D01*
X76775335Y-37592000D01*
X76774677Y-37570834D01*
X76750333Y-36787667D01*
X76501312Y-36759314D01*
X76098058Y-36757094D01*
X75711817Y-36830207D01*
X75711817Y-36830207D01*
G37*
X75711817Y-36830207D02*
X75402295Y-36964471D01*
X75300369Y-37044600D01*
X75124053Y-37327983D01*
X75092155Y-37647297D01*
X75202055Y-37954493D01*
X75359829Y-38134807D01*
X75525902Y-38254824D01*
X75701991Y-38321391D01*
X75945760Y-38349379D01*
X76209673Y-38354000D01*
X76799021Y-38354000D01*
X76775335Y-37592000D01*
X76284666Y-37592000D01*
X76277957Y-37876877D01*
X76249824Y-38030817D01*
X76188259Y-38091958D01*
X76124713Y-38100000D01*
X75941881Y-38048553D01*
X75775463Y-37946717D01*
X75613803Y-37730962D01*
X75581975Y-37490040D01*
X75665415Y-37271266D01*
X75849559Y-37121953D01*
X76041033Y-37084000D01*
X76175900Y-37091467D01*
X76248694Y-37140472D01*
X76278556Y-37270922D01*
X76284624Y-37522721D01*
X76284666Y-37592000D01*
X76775335Y-37592000D01*
X76774677Y-37570834D01*
X76750333Y-36787667D01*
X76501312Y-36759314D01*
X76098058Y-36757094D01*
X75711817Y-36830207D01*
G36*
X72308555Y-36773283D02*
G01*
X72152814Y-36877989D01*
X71967082Y-37090734D01*
X71907902Y-37168667D01*
X71732936Y-37389801D01*
X71592853Y-37542995D01*
X71525261Y-37592000D01*
X71487266Y-37515826D01*
X71463155Y-37321069D01*
X71458666Y-37168667D01*
X71449751Y-36914750D01*
X71411910Y-36788112D01*
X71328500Y-36747145D01*
X71289333Y-36745334D01*
X71210631Y-36757479D01*
X71160959Y-36814857D01*
X71133706Y-36948877D01*
X71122258Y-37190951D01*
X71120000Y-37549667D01*
X71120000Y-38354000D01*
X71352833Y-38352174D01*
X71506188Y-38320323D01*
X71658407Y-38208011D01*
X71844391Y-37986206D01*
X71924333Y-37876758D01*
X72263000Y-37403168D01*
X72288392Y-37878584D01*
X72308926Y-38149261D01*
X72346632Y-38291461D01*
X72421507Y-38346018D01*
X72521225Y-38354000D01*
X72617329Y-38347944D01*
X72677941Y-38308631D01*
X72711239Y-38204346D01*
X72725405Y-38003375D01*
X72728616Y-37674003D01*
X72728666Y-37549667D01*
X72728666Y-36745334D01*
X72476308Y-36745334D01*
X72308555Y-36773283D01*
X72308555Y-36773283D01*
G37*
X72308555Y-36773283D02*
X72152814Y-36877989D01*
X71967082Y-37090734D01*
X71907902Y-37168667D01*
X71732936Y-37389801D01*
X71592853Y-37542995D01*
X71525261Y-37592000D01*
X71487266Y-37515826D01*
X71463155Y-37321069D01*
X71458666Y-37168667D01*
X71449751Y-36914750D01*
X71411910Y-36788112D01*
X71328500Y-36747145D01*
X71289333Y-36745334D01*
X71210631Y-36757479D01*
X71160959Y-36814857D01*
X71133706Y-36948877D01*
X71122258Y-37190951D01*
X71120000Y-37549667D01*
X71120000Y-38354000D01*
X71352833Y-38352174D01*
X71506188Y-38320323D01*
X71658407Y-38208011D01*
X71844391Y-37986206D01*
X71924333Y-37876758D01*
X72263000Y-37403168D01*
X72288392Y-37878584D01*
X72308926Y-38149261D01*
X72346632Y-38291461D01*
X72421507Y-38346018D01*
X72521225Y-38354000D01*
X72617329Y-38347944D01*
X72677941Y-38308631D01*
X72711239Y-38204346D01*
X72725405Y-38003375D01*
X72728616Y-37674003D01*
X72728666Y-37549667D01*
X72728666Y-36745334D01*
X72476308Y-36745334D01*
X72308555Y-36773283D01*
G36*
X68979965Y-36748163D02*
G01*
X68755002Y-36761426D01*
X68634884Y-36792285D01*
X68587379Y-36847901D01*
X68580000Y-36914667D01*
X68619916Y-37038614D01*
X68768433Y-37082253D01*
X68834000Y-37084000D01*
X69088000Y-37084000D01*
X69088000Y-38354000D01*
X69596000Y-38354000D01*
X69596000Y-37084000D01*
X69850000Y-37084000D01*
X70035920Y-37057390D01*
X70101379Y-36958378D01*
X70104000Y-36914667D01*
X70091267Y-36834215D01*
X70031584Y-36784223D01*
X69892720Y-36757530D01*
X69642447Y-36746973D01*
X69342000Y-36745334D01*
X68979965Y-36748163D01*
X68979965Y-36748163D01*
G37*
X68979965Y-36748163D02*
X68755002Y-36761426D01*
X68634884Y-36792285D01*
X68587379Y-36847901D01*
X68580000Y-36914667D01*
X68619916Y-37038614D01*
X68768433Y-37082253D01*
X68834000Y-37084000D01*
X69088000Y-37084000D01*
X69088000Y-38354000D01*
X69596000Y-38354000D01*
X69596000Y-37084000D01*
X69850000Y-37084000D01*
X70035920Y-37057390D01*
X70101379Y-36958378D01*
X70104000Y-36914667D01*
X70091267Y-36834215D01*
X70031584Y-36784223D01*
X69892720Y-36757530D01*
X69642447Y-36746973D01*
X69342000Y-36745334D01*
X68979965Y-36748163D01*
G36*
X70315954Y-36799825D02*
G01*
X70275632Y-36949566D01*
X70365374Y-37173954D01*
X70405134Y-37234495D01*
X70535257Y-37388136D01*
X70616276Y-37391025D01*
X70660537Y-37236222D01*
X70673559Y-37083561D01*
X70675471Y-36866303D01*
X70629978Y-36769512D01*
X70510266Y-36745582D01*
X70483059Y-36745334D01*
X70315954Y-36799825D01*
X70315954Y-36799825D01*
G37*
X70315954Y-36799825D02*
X70275632Y-36949566D01*
X70365374Y-37173954D01*
X70405134Y-37234495D01*
X70535257Y-37388136D01*
X70616276Y-37391025D01*
X70660537Y-37236222D01*
X70673559Y-37083561D01*
X70675471Y-36866303D01*
X70629978Y-36769512D01*
X70510266Y-36745582D01*
X70483059Y-36745334D01*
X70315954Y-36799825D01*
G36*
X71374201Y-28445516D02*
G01*
X70740591Y-28694788D01*
X70165362Y-29052322D01*
X69662712Y-29505997D01*
X69246843Y-30043694D01*
X68931955Y-30653293D01*
X68732250Y-31322673D01*
X68661926Y-32039715D01*
X68735185Y-32792298D01*
X68876333Y-33324355D01*
X68977149Y-33639058D01*
X69051898Y-33899781D01*
X69086951Y-34058313D01*
X69088000Y-34073217D01*
X69053128Y-34201498D01*
X68960608Y-34436102D01*
X68828584Y-34731926D01*
X68791666Y-34809879D01*
X68611781Y-35215133D01*
X68521049Y-35510696D01*
X68516000Y-35728635D01*
X68593163Y-35901016D01*
X68664666Y-35983334D01*
X68853063Y-36102068D01*
X69118476Y-36136936D01*
X69497918Y-36092608D01*
X69511048Y-36090178D01*
X69694168Y-36035518D01*
X69969738Y-35930407D01*
X70273048Y-35799843D01*
X70554717Y-35668579D01*
X70702519Y-35584556D01*
X70737368Y-35526344D01*
X70680180Y-35472511D01*
X70623670Y-35440574D01*
X70531699Y-35384244D01*
X70388677Y-35384244D01*
X69928838Y-35598295D01*
X69566872Y-35734869D01*
X69234476Y-35803339D01*
X68968064Y-35800996D01*
X68804054Y-35725134D01*
X68778726Y-35683808D01*
X68778239Y-35507006D01*
X68851645Y-35244517D01*
X68977972Y-34950918D01*
X69136248Y-34680788D01*
X69193654Y-34603938D01*
X69384333Y-34367543D01*
X69886505Y-34875894D01*
X70388677Y-35384244D01*
X70531699Y-35384244D01*
X70520104Y-35377143D01*
X70501666Y-35319306D01*
X70586685Y-35238140D01*
X70793489Y-35104726D01*
X70864074Y-35061230D01*
X71115386Y-34892295D01*
X71235916Y-34767739D01*
X71249065Y-34661928D01*
X71243167Y-34645958D01*
X71079270Y-34222876D01*
X70990042Y-33876665D01*
X70962096Y-33539556D01*
X70971830Y-33272636D01*
X71087073Y-32608426D01*
X71137488Y-32490851D01*
X70466640Y-32490851D01*
X70454839Y-32677760D01*
X70356409Y-32852901D01*
X70163107Y-33046211D01*
X69953728Y-33087591D01*
X69709781Y-32975718D01*
X69493736Y-32791151D01*
X69282842Y-32568712D01*
X69193237Y-32405983D01*
X69215423Y-32255116D01*
X69339902Y-32068266D01*
X69348145Y-32057752D01*
X69546013Y-31879897D01*
X69756945Y-31854817D01*
X70006955Y-31982433D01*
X70099412Y-32055466D01*
X70351983Y-32295268D01*
X70466640Y-32490851D01*
X71137488Y-32490851D01*
X71330313Y-32041161D01*
X71643801Y-31645845D01*
X71093946Y-31645845D01*
X71009924Y-31804442D01*
X70906353Y-31921400D01*
X70734347Y-32079799D01*
X70600245Y-32167036D01*
X70574993Y-32172953D01*
X70474153Y-32119697D01*
X70284428Y-31978263D01*
X70041120Y-31775588D01*
X69955833Y-31700523D01*
X69711661Y-31465542D01*
X69527100Y-31255246D01*
X69432788Y-31105714D01*
X69426666Y-31077322D01*
X69480067Y-30898742D01*
X69608645Y-30699269D01*
X69764963Y-30539591D01*
X69893551Y-30480000D01*
X70017115Y-30535355D01*
X70219742Y-30679103D01*
X70462927Y-30877771D01*
X70708166Y-31097886D01*
X70916954Y-31305975D01*
X71050786Y-31468565D01*
X71070360Y-31503029D01*
X71093946Y-31645845D01*
X71643801Y-31645845D01*
X71694555Y-31581844D01*
X72172807Y-31241479D01*
X72302397Y-31179320D01*
X72653043Y-30980906D01*
X73047290Y-30686242D01*
X73107091Y-30632854D01*
X71675351Y-30632854D01*
X71658877Y-30835131D01*
X71535285Y-31044311D01*
X71352357Y-31198887D01*
X71202153Y-31242000D01*
X71079127Y-31187473D01*
X70871132Y-31041698D01*
X70614688Y-30831383D01*
X70497245Y-30726499D01*
X70247440Y-30487218D01*
X70054589Y-30282731D01*
X69947354Y-30144358D01*
X69934666Y-30111801D01*
X69995706Y-29969959D01*
X70141924Y-29791753D01*
X70317973Y-29633390D01*
X70468501Y-29551073D01*
X70489226Y-29548667D01*
X70624759Y-29606412D01*
X70834373Y-29756560D01*
X71080182Y-29964483D01*
X71324302Y-30195551D01*
X71528846Y-30415135D01*
X71655931Y-30588605D01*
X71675351Y-30632854D01*
X73107091Y-30632854D01*
X73334268Y-30430042D01*
X73613522Y-30168660D01*
X73814727Y-30007043D01*
X73976274Y-29922008D01*
X74136551Y-29890375D01*
X74233016Y-29887334D01*
X74513254Y-29933043D01*
X74770303Y-30049975D01*
X74953862Y-30207830D01*
X75014666Y-30358145D01*
X74934638Y-30454456D01*
X74712305Y-30525691D01*
X74668143Y-30533410D01*
X74416846Y-30598228D01*
X74192090Y-30720241D01*
X73972161Y-30921181D01*
X73735345Y-31222781D01*
X73459929Y-31646772D01*
X73315034Y-31887643D01*
X73093387Y-32265986D01*
X72948709Y-32529457D01*
X72870002Y-32707873D01*
X72846268Y-32831053D01*
X72866508Y-32928813D01*
X72903659Y-33002910D01*
X73026106Y-33171333D01*
X73130819Y-33253096D01*
X73245575Y-33211563D01*
X73453839Y-33055275D01*
X73740110Y-32799055D01*
X74088887Y-32457727D01*
X74484669Y-32046116D01*
X74911956Y-31579046D01*
X75082087Y-31386997D01*
X75378970Y-31050946D01*
X75585252Y-30827331D01*
X75721240Y-30700629D01*
X75807238Y-30655317D01*
X75863553Y-30675870D01*
X75910489Y-30746766D01*
X75913125Y-30751673D01*
X75965767Y-30832092D01*
X76018831Y-30841699D01*
X76089998Y-30759965D01*
X76196949Y-30566359D01*
X76357367Y-30240353D01*
X76362300Y-30230154D01*
X76575532Y-29743075D01*
X76684435Y-29370694D01*
X76686484Y-29284123D01*
X76454000Y-29284123D01*
X76418895Y-29433160D01*
X76328733Y-29663380D01*
X76206245Y-29928839D01*
X76074162Y-30183596D01*
X75955214Y-30381710D01*
X75872132Y-30477238D01*
X75862315Y-30480000D01*
X75787000Y-30413328D01*
X75650574Y-30236559D01*
X75479435Y-29984561D01*
X75437302Y-29918619D01*
X75252542Y-29616944D01*
X75170523Y-29421514D01*
X75203939Y-29295166D01*
X75365487Y-29200736D01*
X75667861Y-29101062D01*
X75722230Y-29084551D01*
X76072939Y-29017005D01*
X76317024Y-29054420D01*
X76440987Y-29193114D01*
X76454000Y-29284123D01*
X76686484Y-29284123D01*
X76690940Y-29095869D01*
X76596982Y-28901459D01*
X76519828Y-28833801D01*
X76321099Y-28736558D01*
X76083225Y-28714338D01*
X75769469Y-28769214D01*
X75353333Y-28899660D01*
X74803000Y-29092829D01*
X74208424Y-28773447D01*
X73483302Y-28468471D01*
X72759757Y-28320238D01*
X72051989Y-28316626D01*
X71374201Y-28445516D01*
X71374201Y-28445516D01*
G37*
X71374201Y-28445516D02*
X70740591Y-28694788D01*
X70165362Y-29052322D01*
X69662712Y-29505997D01*
X69246843Y-30043694D01*
X68931955Y-30653293D01*
X68732250Y-31322673D01*
X68661926Y-32039715D01*
X68735185Y-32792298D01*
X68876333Y-33324355D01*
X68977149Y-33639058D01*
X69051898Y-33899781D01*
X69086951Y-34058313D01*
X69088000Y-34073217D01*
X69053128Y-34201498D01*
X68960608Y-34436102D01*
X68828584Y-34731926D01*
X68791666Y-34809879D01*
X68611781Y-35215133D01*
X68521049Y-35510696D01*
X68516000Y-35728635D01*
X68593163Y-35901016D01*
X68664666Y-35983334D01*
X68853063Y-36102068D01*
X69118476Y-36136936D01*
X69497918Y-36092608D01*
X69511048Y-36090178D01*
X69694168Y-36035518D01*
X69969738Y-35930407D01*
X70273048Y-35799843D01*
X70554717Y-35668579D01*
X70702519Y-35584556D01*
X70737368Y-35526344D01*
X70680180Y-35472511D01*
X70623670Y-35440574D01*
X70531699Y-35384244D01*
X70388677Y-35384244D01*
X69928838Y-35598295D01*
X69566872Y-35734869D01*
X69234476Y-35803339D01*
X68968064Y-35800996D01*
X68804054Y-35725134D01*
X68778726Y-35683808D01*
X68778239Y-35507006D01*
X68851645Y-35244517D01*
X68977972Y-34950918D01*
X69136248Y-34680788D01*
X69193654Y-34603938D01*
X69384333Y-34367543D01*
X69886505Y-34875894D01*
X70388677Y-35384244D01*
X70531699Y-35384244D01*
X70520104Y-35377143D01*
X70501666Y-35319306D01*
X70586685Y-35238140D01*
X70793489Y-35104726D01*
X70864074Y-35061230D01*
X71115386Y-34892295D01*
X71235916Y-34767739D01*
X71249065Y-34661928D01*
X71243167Y-34645958D01*
X71079270Y-34222876D01*
X70990042Y-33876665D01*
X70962096Y-33539556D01*
X70971830Y-33272636D01*
X71087073Y-32608426D01*
X71137488Y-32490851D01*
X70466640Y-32490851D01*
X70454839Y-32677760D01*
X70356409Y-32852901D01*
X70163107Y-33046211D01*
X69953728Y-33087591D01*
X69709781Y-32975718D01*
X69493736Y-32791151D01*
X69282842Y-32568712D01*
X69193237Y-32405983D01*
X69215423Y-32255116D01*
X69339902Y-32068266D01*
X69348145Y-32057752D01*
X69546013Y-31879897D01*
X69756945Y-31854817D01*
X70006955Y-31982433D01*
X70099412Y-32055466D01*
X70351983Y-32295268D01*
X70466640Y-32490851D01*
X71137488Y-32490851D01*
X71330313Y-32041161D01*
X71643801Y-31645845D01*
X71093946Y-31645845D01*
X71009924Y-31804442D01*
X70906353Y-31921400D01*
X70734347Y-32079799D01*
X70600245Y-32167036D01*
X70574993Y-32172953D01*
X70474153Y-32119697D01*
X70284428Y-31978263D01*
X70041120Y-31775588D01*
X69955833Y-31700523D01*
X69711661Y-31465542D01*
X69527100Y-31255246D01*
X69432788Y-31105714D01*
X69426666Y-31077322D01*
X69480067Y-30898742D01*
X69608645Y-30699269D01*
X69764963Y-30539591D01*
X69893551Y-30480000D01*
X70017115Y-30535355D01*
X70219742Y-30679103D01*
X70462927Y-30877771D01*
X70708166Y-31097886D01*
X70916954Y-31305975D01*
X71050786Y-31468565D01*
X71070360Y-31503029D01*
X71093946Y-31645845D01*
X71643801Y-31645845D01*
X71694555Y-31581844D01*
X72172807Y-31241479D01*
X72302397Y-31179320D01*
X72653043Y-30980906D01*
X73047290Y-30686242D01*
X73107091Y-30632854D01*
X71675351Y-30632854D01*
X71658877Y-30835131D01*
X71535285Y-31044311D01*
X71352357Y-31198887D01*
X71202153Y-31242000D01*
X71079127Y-31187473D01*
X70871132Y-31041698D01*
X70614688Y-30831383D01*
X70497245Y-30726499D01*
X70247440Y-30487218D01*
X70054589Y-30282731D01*
X69947354Y-30144358D01*
X69934666Y-30111801D01*
X69995706Y-29969959D01*
X70141924Y-29791753D01*
X70317973Y-29633390D01*
X70468501Y-29551073D01*
X70489226Y-29548667D01*
X70624759Y-29606412D01*
X70834373Y-29756560D01*
X71080182Y-29964483D01*
X71324302Y-30195551D01*
X71528846Y-30415135D01*
X71655931Y-30588605D01*
X71675351Y-30632854D01*
X73107091Y-30632854D01*
X73334268Y-30430042D01*
X73613522Y-30168660D01*
X73814727Y-30007043D01*
X73976274Y-29922008D01*
X74136551Y-29890375D01*
X74233016Y-29887334D01*
X74513254Y-29933043D01*
X74770303Y-30049975D01*
X74953862Y-30207830D01*
X75014666Y-30358145D01*
X74934638Y-30454456D01*
X74712305Y-30525691D01*
X74668143Y-30533410D01*
X74416846Y-30598228D01*
X74192090Y-30720241D01*
X73972161Y-30921181D01*
X73735345Y-31222781D01*
X73459929Y-31646772D01*
X73315034Y-31887643D01*
X73093387Y-32265986D01*
X72948709Y-32529457D01*
X72870002Y-32707873D01*
X72846268Y-32831053D01*
X72866508Y-32928813D01*
X72903659Y-33002910D01*
X73026106Y-33171333D01*
X73130819Y-33253096D01*
X73245575Y-33211563D01*
X73453839Y-33055275D01*
X73740110Y-32799055D01*
X74088887Y-32457727D01*
X74484669Y-32046116D01*
X74911956Y-31579046D01*
X75082087Y-31386997D01*
X75378970Y-31050946D01*
X75585252Y-30827331D01*
X75721240Y-30700629D01*
X75807238Y-30655317D01*
X75863553Y-30675870D01*
X75910489Y-30746766D01*
X75913125Y-30751673D01*
X75965767Y-30832092D01*
X76018831Y-30841699D01*
X76089998Y-30759965D01*
X76196949Y-30566359D01*
X76357367Y-30240353D01*
X76362300Y-30230154D01*
X76575532Y-29743075D01*
X76684435Y-29370694D01*
X76686484Y-29284123D01*
X76454000Y-29284123D01*
X76418895Y-29433160D01*
X76328733Y-29663380D01*
X76206245Y-29928839D01*
X76074162Y-30183596D01*
X75955214Y-30381710D01*
X75872132Y-30477238D01*
X75862315Y-30480000D01*
X75787000Y-30413328D01*
X75650574Y-30236559D01*
X75479435Y-29984561D01*
X75437302Y-29918619D01*
X75252542Y-29616944D01*
X75170523Y-29421514D01*
X75203939Y-29295166D01*
X75365487Y-29200736D01*
X75667861Y-29101062D01*
X75722230Y-29084551D01*
X76072939Y-29017005D01*
X76317024Y-29054420D01*
X76440987Y-29193114D01*
X76454000Y-29284123D01*
X76686484Y-29284123D01*
X76690940Y-29095869D01*
X76596982Y-28901459D01*
X76519828Y-28833801D01*
X76321099Y-28736558D01*
X76083225Y-28714338D01*
X75769469Y-28769214D01*
X75353333Y-28899660D01*
X74803000Y-29092829D01*
X74208424Y-28773447D01*
X73483302Y-28468471D01*
X72759757Y-28320238D01*
X72051989Y-28316626D01*
X71374201Y-28445516D01*
G36*
X71204532Y-35329106D02*
G01*
X70864253Y-35532024D01*
X71097960Y-35639662D01*
X71312234Y-35706765D01*
X71616356Y-35765508D01*
X71839666Y-35792834D01*
X72347666Y-35838366D01*
X72178333Y-35647712D01*
X71980922Y-35455945D01*
X71776905Y-35291623D01*
X71544810Y-35126188D01*
X71204532Y-35329106D01*
X71204532Y-35329106D01*
G37*
X71204532Y-35329106D02*
X70864253Y-35532024D01*
X71097960Y-35639662D01*
X71312234Y-35706765D01*
X71616356Y-35765508D01*
X71839666Y-35792834D01*
X72347666Y-35838366D01*
X72178333Y-35647712D01*
X71980922Y-35455945D01*
X71776905Y-35291623D01*
X71544810Y-35126188D01*
X71204532Y-35329106D01*
G36*
X75915952Y-31121912D02*
G01*
X75768241Y-31252838D01*
X75626911Y-31412753D01*
X75453477Y-31613964D01*
X75192688Y-31900860D01*
X74876495Y-32238958D01*
X74536846Y-32593775D01*
X74447214Y-32685970D01*
X74139859Y-33006295D01*
X73880000Y-33287226D01*
X73688575Y-33505327D01*
X73586526Y-33637162D01*
X73575333Y-33661756D01*
X73632028Y-33752287D01*
X73785054Y-33931528D01*
X74008825Y-34170676D01*
X74195539Y-34359971D01*
X74815744Y-34976037D01*
X75163191Y-34599102D01*
X75623711Y-33980326D01*
X75931031Y-33289422D01*
X76085143Y-32526411D01*
X76098149Y-31864695D01*
X76073984Y-31533098D01*
X76042103Y-31268470D01*
X76008254Y-31114887D01*
X75997934Y-31096378D01*
X75915952Y-31121912D01*
X75915952Y-31121912D01*
G37*
X75915952Y-31121912D02*
X75768241Y-31252838D01*
X75626911Y-31412753D01*
X75453477Y-31613964D01*
X75192688Y-31900860D01*
X74876495Y-32238958D01*
X74536846Y-32593775D01*
X74447214Y-32685970D01*
X74139859Y-33006295D01*
X73880000Y-33287226D01*
X73688575Y-33505327D01*
X73586526Y-33637162D01*
X73575333Y-33661756D01*
X73632028Y-33752287D01*
X73785054Y-33931528D01*
X74008825Y-34170676D01*
X74195539Y-34359971D01*
X74815744Y-34976037D01*
X75163191Y-34599102D01*
X75623711Y-33980326D01*
X75931031Y-33289422D01*
X76085143Y-32526411D01*
X76098149Y-31864695D01*
X76073984Y-31533098D01*
X76042103Y-31268470D01*
X76008254Y-31114887D01*
X75997934Y-31096378D01*
X75915952Y-31121912D01*
M02*
