G04 #@! TF.GenerationSoftware,KiCad,Pcbnew,(5.1.5-0-10_14)*
G04 #@! TF.CreationDate,2020-05-18T10:40:38+10:00*
G04 #@! TF.ProjectId,SmartWatch+,536d6172-7457-4617-9463-682b2e6b6963,rev?*
G04 #@! TF.SameCoordinates,Original*
G04 #@! TF.FileFunction,Copper,L1,Top*
G04 #@! TF.FilePolarity,Positive*
%FSLAX46Y46*%
G04 Gerber Fmt 4.6, Leading zero omitted, Abs format (unit mm)*
G04 Created by KiCad (PCBNEW (5.1.5-0-10_14)) date 2020-05-18 10:40:38*
%MOMM*%
%LPD*%
G04 APERTURE LIST*
%ADD10C,1.200000*%
%ADD11R,1.500000X1.500000*%
%ADD12C,1.500000*%
%ADD13C,1.800000*%
%ADD14R,1.800000X1.800000*%
%ADD15R,1.524000X1.524000*%
%ADD16C,1.524000*%
%ADD17C,0.250000*%
%ADD18C,0.254000*%
G04 APERTURE END LIST*
D10*
X63119000Y-43053000D03*
X65659000Y-43053000D03*
D11*
X59677300Y-24942800D03*
D12*
X57137300Y-24942800D03*
X54597300Y-24942800D03*
X52057300Y-24942800D03*
X49517300Y-24942800D03*
X46977300Y-24942800D03*
X44437300Y-24942800D03*
X41897300Y-24942800D03*
X39357300Y-24942800D03*
X36817300Y-24942800D03*
X34277300Y-24942800D03*
X31737300Y-24942800D03*
X29197300Y-24942800D03*
X26657300Y-24942800D03*
X26657300Y-40182800D03*
X29197300Y-40182800D03*
X31737300Y-40182800D03*
X34277300Y-40182800D03*
X36817300Y-40182800D03*
X39357300Y-40182800D03*
X41897300Y-40182800D03*
X44437300Y-40182800D03*
X46977300Y-40182800D03*
X49517300Y-40182800D03*
X52057300Y-40182800D03*
X54597300Y-40182800D03*
X57137300Y-40182800D03*
X59677300Y-40182800D03*
D13*
X72771000Y-26722000D03*
D14*
X72771000Y-43382000D03*
D11*
X56400700Y-22377400D03*
D12*
X53860700Y-22377400D03*
X51320700Y-22377400D03*
X48780700Y-22377400D03*
X46240700Y-22377400D03*
X43700700Y-22377400D03*
X41160700Y-22377400D03*
X38620700Y-22377400D03*
X36080700Y-22377400D03*
X33540700Y-22377400D03*
X31000700Y-22377400D03*
X28460700Y-22377400D03*
X25920700Y-22377400D03*
X23380700Y-22377400D03*
X23380700Y-37617400D03*
X25920700Y-37617400D03*
X28460700Y-37617400D03*
X31000700Y-37617400D03*
X33540700Y-37617400D03*
X36080700Y-37617400D03*
X38620700Y-37617400D03*
X41160700Y-37617400D03*
X43700700Y-37617400D03*
X46240700Y-37617400D03*
X48780700Y-37617400D03*
X51320700Y-37617400D03*
X53860700Y-37617400D03*
X56400700Y-37617400D03*
D15*
X59690000Y-43180000D03*
D16*
X57150000Y-43180000D03*
X54610000Y-43180000D03*
X52070000Y-43180000D03*
X49530000Y-43180000D03*
X46990000Y-43180000D03*
X44450000Y-43180000D03*
X41910000Y-43180000D03*
X41910000Y-50800000D03*
X44450000Y-50800000D03*
X46990000Y-50800000D03*
X49530000Y-50800000D03*
X52070000Y-50800000D03*
X54610000Y-50800000D03*
X57150000Y-50800000D03*
X59690000Y-50800000D03*
D17*
X59817000Y-43053000D02*
X59690000Y-43180000D01*
X63119000Y-43053000D02*
X59817000Y-43053000D01*
X57911999Y-43941999D02*
X57150000Y-43180000D01*
X58547000Y-44577000D02*
X57911999Y-43941999D01*
X64135000Y-44577000D02*
X58547000Y-44577000D01*
X65659000Y-43053000D02*
X64135000Y-44577000D01*
X25946100Y-24942800D02*
X26657300Y-24942800D01*
X42671999Y-42418001D02*
X41910000Y-43180000D01*
X43307000Y-41783000D02*
X42671999Y-42418001D01*
X48133000Y-41783000D02*
X43307000Y-41783000D01*
X49530000Y-43180000D02*
X48133000Y-41783000D01*
X49530000Y-45720000D02*
X54610000Y-50800000D01*
X59541102Y-41910000D02*
X50800000Y-41910000D01*
X50291999Y-42418001D02*
X49530000Y-43180000D01*
X50800000Y-41910000D02*
X50291999Y-42418001D01*
X72771000Y-28680102D02*
X59541102Y-41910000D01*
X26657300Y-24942800D02*
X28436500Y-26722000D01*
X52831999Y-43941999D02*
X52070000Y-43180000D01*
X53917010Y-45027010D02*
X52831999Y-43941999D01*
X72275990Y-45027010D02*
X53917010Y-45027010D01*
X72771000Y-44532000D02*
X72275990Y-45027010D01*
X72771000Y-43382000D02*
X72771000Y-44532000D01*
X56388001Y-51561999D02*
X57150000Y-50800000D01*
X55880000Y-52070000D02*
X56388001Y-51561999D01*
X43180000Y-52070000D02*
X55880000Y-52070000D01*
X41910000Y-50800000D02*
X43180000Y-52070000D01*
X25946100Y-40182800D02*
X26657300Y-40182800D01*
X23380700Y-37617400D02*
X25946100Y-40182800D01*
X28486100Y-40182800D02*
X29197300Y-40182800D01*
X25920700Y-37617400D02*
X28486100Y-40182800D01*
X31026100Y-40182800D02*
X31737300Y-40182800D01*
X28460700Y-37617400D02*
X31026100Y-40182800D01*
X33566100Y-40182800D02*
X34277300Y-40182800D01*
X31000700Y-37617400D02*
X33566100Y-40182800D01*
X36106100Y-40182800D02*
X36817300Y-40182800D01*
X33540700Y-37617400D02*
X36106100Y-40182800D01*
X38646100Y-40182800D02*
X39357300Y-40182800D01*
X36080700Y-37617400D02*
X38646100Y-40182800D01*
X41186100Y-40182800D02*
X41897300Y-40182800D01*
X38620700Y-37617400D02*
X41186100Y-40182800D01*
X43726100Y-40182800D02*
X44437300Y-40182800D01*
X41160700Y-37617400D02*
X43726100Y-40182800D01*
X46266100Y-40182800D02*
X46977300Y-40182800D01*
X43700700Y-37617400D02*
X46266100Y-40182800D01*
X48806100Y-40182800D02*
X49517300Y-40182800D01*
X46240700Y-37617400D02*
X48806100Y-40182800D01*
X51346100Y-40182800D02*
X52057300Y-40182800D01*
X48780700Y-37617400D02*
X51346100Y-40182800D01*
X53886100Y-40182800D02*
X54597300Y-40182800D01*
X51320700Y-37617400D02*
X53886100Y-40182800D01*
X56426100Y-40182800D02*
X57137300Y-40182800D01*
X53860700Y-37617400D02*
X56426100Y-40182800D01*
X58966100Y-40182800D02*
X59677300Y-40182800D01*
X56400700Y-37617400D02*
X58966100Y-40182800D01*
X28486100Y-24942800D02*
X29197300Y-24942800D01*
X25920700Y-22377400D02*
X28486100Y-24942800D01*
X31026100Y-24942800D02*
X31737300Y-24942800D01*
X28460700Y-22377400D02*
X31026100Y-24942800D01*
X33566100Y-24942800D02*
X34277300Y-24942800D01*
X31000700Y-22377400D02*
X33566100Y-24942800D01*
X36106100Y-24942800D02*
X36817300Y-24942800D01*
X33540700Y-22377400D02*
X36106100Y-24942800D01*
X38646100Y-24942800D02*
X39357300Y-24942800D01*
X36080700Y-22377400D02*
X38646100Y-24942800D01*
X41186100Y-24942800D02*
X41897300Y-24942800D01*
X38620700Y-22377400D02*
X41186100Y-24942800D01*
X43726100Y-24942800D02*
X44437300Y-24942800D01*
X41160700Y-22377400D02*
X43726100Y-24942800D01*
X46266100Y-24942800D02*
X46977300Y-24942800D01*
X43700700Y-22377400D02*
X46266100Y-24942800D01*
X48806100Y-24942800D02*
X49517300Y-24942800D01*
X46240700Y-22377400D02*
X48806100Y-24942800D01*
X51346100Y-24942800D02*
X52057300Y-24942800D01*
X48780700Y-22377400D02*
X51346100Y-24942800D01*
X53886100Y-24942800D02*
X54597300Y-24942800D01*
X51320700Y-22377400D02*
X53886100Y-24942800D01*
X56197500Y-24003000D02*
X57137300Y-24942800D01*
X55248502Y-24003000D02*
X56197500Y-24003000D01*
X53860700Y-22615198D02*
X55248502Y-24003000D01*
X53860700Y-22377400D02*
X53860700Y-22615198D01*
X59677300Y-24654000D02*
X59677300Y-24942800D01*
X57400700Y-22377400D02*
X59677300Y-24654000D01*
X56400700Y-22377400D02*
X57400700Y-22377400D01*
D18*
G36*
X22661071Y-21209850D02*
G01*
X22603312Y-21420407D01*
X23380700Y-22197795D01*
X24158088Y-21420407D01*
X24100649Y-21211016D01*
X25172084Y-21211885D01*
X25037814Y-21301601D01*
X24844901Y-21494514D01*
X24693329Y-21721357D01*
X24652189Y-21820679D01*
X24636977Y-21778568D01*
X24576560Y-21665537D01*
X24337693Y-21600012D01*
X23560305Y-22377400D01*
X24337693Y-23154788D01*
X24576560Y-23089263D01*
X24650864Y-22930923D01*
X24693329Y-23033443D01*
X24844901Y-23260286D01*
X25037814Y-23453199D01*
X25264657Y-23604771D01*
X25516711Y-23709175D01*
X25784289Y-23762400D01*
X25941196Y-23762400D01*
X25879912Y-23985807D01*
X26657300Y-24763195D01*
X26671443Y-24749053D01*
X26851048Y-24928658D01*
X26836905Y-24942800D01*
X27614293Y-25720188D01*
X27853160Y-25654663D01*
X27927464Y-25496323D01*
X27969929Y-25598843D01*
X28121501Y-25825686D01*
X28314414Y-26018599D01*
X28541257Y-26170171D01*
X28793311Y-26274575D01*
X29060889Y-26327800D01*
X29333711Y-26327800D01*
X29601289Y-26274575D01*
X29853343Y-26170171D01*
X30080186Y-26018599D01*
X30273099Y-25825686D01*
X30424671Y-25598843D01*
X30467300Y-25495927D01*
X30509929Y-25598843D01*
X30661501Y-25825686D01*
X30854414Y-26018599D01*
X31081257Y-26170171D01*
X31333311Y-26274575D01*
X31600889Y-26327800D01*
X31873711Y-26327800D01*
X32141289Y-26274575D01*
X32393343Y-26170171D01*
X32620186Y-26018599D01*
X32813099Y-25825686D01*
X32964671Y-25598843D01*
X33007300Y-25495927D01*
X33049929Y-25598843D01*
X33201501Y-25825686D01*
X33394414Y-26018599D01*
X33621257Y-26170171D01*
X33873311Y-26274575D01*
X34140889Y-26327800D01*
X34413711Y-26327800D01*
X34681289Y-26274575D01*
X34933343Y-26170171D01*
X35160186Y-26018599D01*
X35353099Y-25825686D01*
X35504671Y-25598843D01*
X35547300Y-25495927D01*
X35589929Y-25598843D01*
X35741501Y-25825686D01*
X35934414Y-26018599D01*
X36161257Y-26170171D01*
X36413311Y-26274575D01*
X36680889Y-26327800D01*
X36953711Y-26327800D01*
X37221289Y-26274575D01*
X37473343Y-26170171D01*
X37700186Y-26018599D01*
X37893099Y-25825686D01*
X38044671Y-25598843D01*
X38087300Y-25495927D01*
X38129929Y-25598843D01*
X38281501Y-25825686D01*
X38474414Y-26018599D01*
X38701257Y-26170171D01*
X38953311Y-26274575D01*
X39220889Y-26327800D01*
X39493711Y-26327800D01*
X39761289Y-26274575D01*
X40013343Y-26170171D01*
X40240186Y-26018599D01*
X40433099Y-25825686D01*
X40584671Y-25598843D01*
X40627300Y-25495927D01*
X40669929Y-25598843D01*
X40821501Y-25825686D01*
X41014414Y-26018599D01*
X41241257Y-26170171D01*
X41493311Y-26274575D01*
X41760889Y-26327800D01*
X42033711Y-26327800D01*
X42301289Y-26274575D01*
X42553343Y-26170171D01*
X42780186Y-26018599D01*
X42973099Y-25825686D01*
X43124671Y-25598843D01*
X43167300Y-25495927D01*
X43209929Y-25598843D01*
X43361501Y-25825686D01*
X43554414Y-26018599D01*
X43781257Y-26170171D01*
X44033311Y-26274575D01*
X44300889Y-26327800D01*
X44573711Y-26327800D01*
X44841289Y-26274575D01*
X45093343Y-26170171D01*
X45320186Y-26018599D01*
X45513099Y-25825686D01*
X45664671Y-25598843D01*
X45707300Y-25495927D01*
X45749929Y-25598843D01*
X45901501Y-25825686D01*
X46094414Y-26018599D01*
X46321257Y-26170171D01*
X46573311Y-26274575D01*
X46840889Y-26327800D01*
X47113711Y-26327800D01*
X47381289Y-26274575D01*
X47633343Y-26170171D01*
X47860186Y-26018599D01*
X48053099Y-25825686D01*
X48204671Y-25598843D01*
X48247300Y-25495927D01*
X48289929Y-25598843D01*
X48441501Y-25825686D01*
X48634414Y-26018599D01*
X48861257Y-26170171D01*
X49113311Y-26274575D01*
X49380889Y-26327800D01*
X49653711Y-26327800D01*
X49921289Y-26274575D01*
X50173343Y-26170171D01*
X50400186Y-26018599D01*
X50593099Y-25825686D01*
X50744671Y-25598843D01*
X50787300Y-25495927D01*
X50829929Y-25598843D01*
X50981501Y-25825686D01*
X51174414Y-26018599D01*
X51401257Y-26170171D01*
X51653311Y-26274575D01*
X51920889Y-26327800D01*
X52193711Y-26327800D01*
X52461289Y-26274575D01*
X52713343Y-26170171D01*
X52940186Y-26018599D01*
X53133099Y-25825686D01*
X53284671Y-25598843D01*
X53327300Y-25495927D01*
X53369929Y-25598843D01*
X53521501Y-25825686D01*
X53714414Y-26018599D01*
X53941257Y-26170171D01*
X54193311Y-26274575D01*
X54460889Y-26327800D01*
X54733711Y-26327800D01*
X55001289Y-26274575D01*
X55253343Y-26170171D01*
X55480186Y-26018599D01*
X55673099Y-25825686D01*
X55824671Y-25598843D01*
X55867300Y-25495927D01*
X55909929Y-25598843D01*
X56061501Y-25825686D01*
X56254414Y-26018599D01*
X56481257Y-26170171D01*
X56733311Y-26274575D01*
X57000889Y-26327800D01*
X57273711Y-26327800D01*
X57541289Y-26274575D01*
X57793343Y-26170171D01*
X58020186Y-26018599D01*
X58213099Y-25825686D01*
X58290855Y-25709317D01*
X58301488Y-25817282D01*
X58337798Y-25936980D01*
X58396763Y-26047294D01*
X58476115Y-26143985D01*
X58572806Y-26223337D01*
X58683120Y-26282302D01*
X58802818Y-26318612D01*
X58927300Y-26330872D01*
X60427300Y-26330872D01*
X60551782Y-26318612D01*
X60671480Y-26282302D01*
X60781794Y-26223337D01*
X60878485Y-26143985D01*
X60957837Y-26047294D01*
X61016802Y-25936980D01*
X61053112Y-25817282D01*
X61065372Y-25692800D01*
X61065372Y-25657920D01*
X71886525Y-25657920D01*
X72771000Y-26542395D01*
X73655475Y-25657920D01*
X73571792Y-25403739D01*
X73299225Y-25272842D01*
X73006358Y-25197635D01*
X72704447Y-25181009D01*
X72405093Y-25223603D01*
X72119801Y-25323778D01*
X71970208Y-25403739D01*
X71886525Y-25657920D01*
X61065372Y-25657920D01*
X61065372Y-24192800D01*
X61053112Y-24068318D01*
X61016802Y-23948620D01*
X60957837Y-23838306D01*
X60878485Y-23741615D01*
X60781794Y-23662263D01*
X60671480Y-23603298D01*
X60551782Y-23566988D01*
X60427300Y-23554728D01*
X59652830Y-23554728D01*
X57964504Y-21866403D01*
X57940701Y-21837399D01*
X57824976Y-21742426D01*
X57788772Y-21723074D01*
X57788772Y-21627400D01*
X57776512Y-21502918D01*
X57740202Y-21383220D01*
X57681237Y-21272906D01*
X57652760Y-21238206D01*
X82627001Y-21258445D01*
X82627000Y-52020555D01*
X60350291Y-52038600D01*
X60351727Y-52038005D01*
X60580535Y-51885120D01*
X60775120Y-51690535D01*
X60928005Y-51461727D01*
X61033314Y-51207490D01*
X61087000Y-50937592D01*
X61087000Y-50662408D01*
X61033314Y-50392510D01*
X60928005Y-50138273D01*
X60775120Y-49909465D01*
X60580535Y-49714880D01*
X60351727Y-49561995D01*
X60097490Y-49456686D01*
X59827592Y-49403000D01*
X59552408Y-49403000D01*
X59282510Y-49456686D01*
X59028273Y-49561995D01*
X58799465Y-49714880D01*
X58604880Y-49909465D01*
X58451995Y-50138273D01*
X58420000Y-50215515D01*
X58388005Y-50138273D01*
X58235120Y-49909465D01*
X58040535Y-49714880D01*
X57811727Y-49561995D01*
X57557490Y-49456686D01*
X57287592Y-49403000D01*
X57012408Y-49403000D01*
X56742510Y-49456686D01*
X56488273Y-49561995D01*
X56259465Y-49714880D01*
X56064880Y-49909465D01*
X55911995Y-50138273D01*
X55882308Y-50209943D01*
X55877636Y-50196977D01*
X55815656Y-50081020D01*
X55575565Y-50014040D01*
X54789605Y-50800000D01*
X54803748Y-50814143D01*
X54624143Y-50993748D01*
X54610000Y-50979605D01*
X54595858Y-50993748D01*
X54416253Y-50814143D01*
X54430395Y-50800000D01*
X53644435Y-50014040D01*
X53404344Y-50081020D01*
X53340515Y-50216760D01*
X53308005Y-50138273D01*
X53155120Y-49909465D01*
X53080090Y-49834435D01*
X53824040Y-49834435D01*
X54610000Y-50620395D01*
X55395960Y-49834435D01*
X55328980Y-49594344D01*
X55079952Y-49477244D01*
X54812865Y-49410977D01*
X54537983Y-49398090D01*
X54265867Y-49439078D01*
X54006977Y-49532364D01*
X53891020Y-49594344D01*
X53824040Y-49834435D01*
X53080090Y-49834435D01*
X52960535Y-49714880D01*
X52731727Y-49561995D01*
X52477490Y-49456686D01*
X52207592Y-49403000D01*
X51932408Y-49403000D01*
X51662510Y-49456686D01*
X51408273Y-49561995D01*
X51179465Y-49714880D01*
X50984880Y-49909465D01*
X50831995Y-50138273D01*
X50800000Y-50215515D01*
X50768005Y-50138273D01*
X50615120Y-49909465D01*
X50420535Y-49714880D01*
X50191727Y-49561995D01*
X49937490Y-49456686D01*
X49667592Y-49403000D01*
X49392408Y-49403000D01*
X49122510Y-49456686D01*
X48868273Y-49561995D01*
X48639465Y-49714880D01*
X48444880Y-49909465D01*
X48291995Y-50138273D01*
X48260000Y-50215515D01*
X48228005Y-50138273D01*
X48075120Y-49909465D01*
X47880535Y-49714880D01*
X47651727Y-49561995D01*
X47397490Y-49456686D01*
X47127592Y-49403000D01*
X46852408Y-49403000D01*
X46582510Y-49456686D01*
X46328273Y-49561995D01*
X46099465Y-49714880D01*
X45904880Y-49909465D01*
X45751995Y-50138273D01*
X45720000Y-50215515D01*
X45688005Y-50138273D01*
X45535120Y-49909465D01*
X45340535Y-49714880D01*
X45111727Y-49561995D01*
X44857490Y-49456686D01*
X44587592Y-49403000D01*
X44312408Y-49403000D01*
X44042510Y-49456686D01*
X43788273Y-49561995D01*
X43559465Y-49714880D01*
X43364880Y-49909465D01*
X43211995Y-50138273D01*
X43180000Y-50215515D01*
X43148005Y-50138273D01*
X42995120Y-49909465D01*
X42800535Y-49714880D01*
X42571727Y-49561995D01*
X42317490Y-49456686D01*
X42047592Y-49403000D01*
X41772408Y-49403000D01*
X41502510Y-49456686D01*
X41248273Y-49561995D01*
X41019465Y-49714880D01*
X40824880Y-49909465D01*
X40671995Y-50138273D01*
X40566686Y-50392510D01*
X40513000Y-50662408D01*
X40513000Y-50937592D01*
X40566686Y-51207490D01*
X40671995Y-51461727D01*
X40824880Y-51690535D01*
X41019465Y-51885120D01*
X41248273Y-52038005D01*
X41286990Y-52054042D01*
X21284940Y-52070245D01*
X21291183Y-44145565D01*
X41124040Y-44145565D01*
X41191020Y-44385656D01*
X41440048Y-44502756D01*
X41707135Y-44569023D01*
X41982017Y-44581910D01*
X42254133Y-44540922D01*
X42513023Y-44447636D01*
X42628980Y-44385656D01*
X42695960Y-44145565D01*
X41910000Y-43359605D01*
X41124040Y-44145565D01*
X21291183Y-44145565D01*
X21291888Y-43252017D01*
X40508090Y-43252017D01*
X40549078Y-43524133D01*
X40642364Y-43783023D01*
X40704344Y-43898980D01*
X40944435Y-43965960D01*
X41730395Y-43180000D01*
X42089605Y-43180000D01*
X42875565Y-43965960D01*
X43115656Y-43898980D01*
X43179485Y-43763240D01*
X43211995Y-43841727D01*
X43364880Y-44070535D01*
X43559465Y-44265120D01*
X43788273Y-44418005D01*
X44042510Y-44523314D01*
X44312408Y-44577000D01*
X44587592Y-44577000D01*
X44857490Y-44523314D01*
X45111727Y-44418005D01*
X45340535Y-44265120D01*
X45535120Y-44070535D01*
X45688005Y-43841727D01*
X45720000Y-43764485D01*
X45751995Y-43841727D01*
X45904880Y-44070535D01*
X46099465Y-44265120D01*
X46328273Y-44418005D01*
X46582510Y-44523314D01*
X46852408Y-44577000D01*
X47127592Y-44577000D01*
X47397490Y-44523314D01*
X47651727Y-44418005D01*
X47880535Y-44265120D01*
X48000090Y-44145565D01*
X48744040Y-44145565D01*
X48811020Y-44385656D01*
X49060048Y-44502756D01*
X49327135Y-44569023D01*
X49602017Y-44581910D01*
X49874133Y-44540922D01*
X50133023Y-44447636D01*
X50248980Y-44385656D01*
X50315960Y-44145565D01*
X49530000Y-43359605D01*
X48744040Y-44145565D01*
X48000090Y-44145565D01*
X48075120Y-44070535D01*
X48228005Y-43841727D01*
X48257692Y-43770057D01*
X48262364Y-43783023D01*
X48324344Y-43898980D01*
X48564435Y-43965960D01*
X49350395Y-43180000D01*
X49709605Y-43180000D01*
X50495565Y-43965960D01*
X50735656Y-43898980D01*
X50799485Y-43763240D01*
X50831995Y-43841727D01*
X50984880Y-44070535D01*
X51179465Y-44265120D01*
X51408273Y-44418005D01*
X51662510Y-44523314D01*
X51932408Y-44577000D01*
X52207592Y-44577000D01*
X52361571Y-44546372D01*
X53353211Y-45538013D01*
X53377009Y-45567011D01*
X53492734Y-45661984D01*
X53624763Y-45732556D01*
X53768024Y-45776013D01*
X53879677Y-45787010D01*
X53879686Y-45787010D01*
X53917009Y-45790686D01*
X53954332Y-45787010D01*
X72238668Y-45787010D01*
X72275990Y-45790686D01*
X72313312Y-45787010D01*
X72313323Y-45787010D01*
X72424976Y-45776013D01*
X72568237Y-45732556D01*
X72700266Y-45661984D01*
X72815991Y-45567011D01*
X72839794Y-45538007D01*
X73281997Y-45095804D01*
X73311001Y-45072001D01*
X73405974Y-44956276D01*
X73425326Y-44920072D01*
X73671000Y-44920072D01*
X73795482Y-44907812D01*
X73915180Y-44871502D01*
X74025494Y-44812537D01*
X74122185Y-44733185D01*
X74201537Y-44636494D01*
X74260502Y-44526180D01*
X74296812Y-44406482D01*
X74309072Y-44282000D01*
X74309072Y-42482000D01*
X74296812Y-42357518D01*
X74260502Y-42237820D01*
X74201537Y-42127506D01*
X74122185Y-42030815D01*
X74025494Y-41951463D01*
X73915180Y-41892498D01*
X73795482Y-41856188D01*
X73671000Y-41843928D01*
X71871000Y-41843928D01*
X71746518Y-41856188D01*
X71626820Y-41892498D01*
X71516506Y-41951463D01*
X71419815Y-42030815D01*
X71340463Y-42127506D01*
X71281498Y-42237820D01*
X71245188Y-42357518D01*
X71232928Y-42482000D01*
X71232928Y-44267010D01*
X65886162Y-44267010D01*
X66019236Y-44240540D01*
X66243992Y-44147443D01*
X66446267Y-44012287D01*
X66618287Y-43840267D01*
X66753443Y-43637992D01*
X66846540Y-43413236D01*
X66894000Y-43174637D01*
X66894000Y-42931363D01*
X66846540Y-42692764D01*
X66753443Y-42468008D01*
X66618287Y-42265733D01*
X66446267Y-42093713D01*
X66243992Y-41958557D01*
X66019236Y-41865460D01*
X65780637Y-41818000D01*
X65537363Y-41818000D01*
X65298764Y-41865460D01*
X65074008Y-41958557D01*
X64871733Y-42093713D01*
X64699713Y-42265733D01*
X64564557Y-42468008D01*
X64471460Y-42692764D01*
X64424000Y-42931363D01*
X64424000Y-43174637D01*
X64430398Y-43206800D01*
X64327044Y-43310154D01*
X64354000Y-43174637D01*
X64354000Y-42931363D01*
X64306540Y-42692764D01*
X64213443Y-42468008D01*
X64078287Y-42265733D01*
X63906267Y-42093713D01*
X63703992Y-41958557D01*
X63479236Y-41865460D01*
X63240637Y-41818000D01*
X62997363Y-41818000D01*
X62758764Y-41865460D01*
X62534008Y-41958557D01*
X62331733Y-42093713D01*
X62159713Y-42265733D01*
X62141494Y-42293000D01*
X61077655Y-42293000D01*
X61041502Y-42173820D01*
X60982537Y-42063506D01*
X60903185Y-41966815D01*
X60806494Y-41887463D01*
X60696180Y-41828498D01*
X60576482Y-41792188D01*
X60452000Y-41779928D01*
X58928000Y-41779928D01*
X58803518Y-41792188D01*
X58683820Y-41828498D01*
X58573506Y-41887463D01*
X58476815Y-41966815D01*
X58397463Y-42063506D01*
X58338498Y-42173820D01*
X58302188Y-42293518D01*
X58293920Y-42377465D01*
X58235120Y-42289465D01*
X58040535Y-42094880D01*
X57811727Y-41941995D01*
X57557490Y-41836686D01*
X57287592Y-41783000D01*
X57012408Y-41783000D01*
X56742510Y-41836686D01*
X56488273Y-41941995D01*
X56259465Y-42094880D01*
X56064880Y-42289465D01*
X55911995Y-42518273D01*
X55880000Y-42595515D01*
X55848005Y-42518273D01*
X55695120Y-42289465D01*
X55500535Y-42094880D01*
X55271727Y-41941995D01*
X55017490Y-41836686D01*
X54747592Y-41783000D01*
X54472408Y-41783000D01*
X54202510Y-41836686D01*
X53948273Y-41941995D01*
X53719465Y-42094880D01*
X53524880Y-42289465D01*
X53371995Y-42518273D01*
X53340000Y-42595515D01*
X53308005Y-42518273D01*
X53155120Y-42289465D01*
X52960535Y-42094880D01*
X52731727Y-41941995D01*
X52477490Y-41836686D01*
X52207592Y-41783000D01*
X51932408Y-41783000D01*
X51662510Y-41836686D01*
X51408273Y-41941995D01*
X51179465Y-42094880D01*
X50984880Y-42289465D01*
X50831995Y-42518273D01*
X50802308Y-42589943D01*
X50797636Y-42576977D01*
X50735656Y-42461020D01*
X50495565Y-42394040D01*
X49709605Y-43180000D01*
X49350395Y-43180000D01*
X48564435Y-42394040D01*
X48324344Y-42461020D01*
X48260515Y-42596760D01*
X48228005Y-42518273D01*
X48075120Y-42289465D01*
X48000090Y-42214435D01*
X48744040Y-42214435D01*
X49530000Y-43000395D01*
X50315960Y-42214435D01*
X50248980Y-41974344D01*
X49999952Y-41857244D01*
X49732865Y-41790977D01*
X49457983Y-41778090D01*
X49185867Y-41819078D01*
X48926977Y-41912364D01*
X48811020Y-41974344D01*
X48744040Y-42214435D01*
X48000090Y-42214435D01*
X47880535Y-42094880D01*
X47651727Y-41941995D01*
X47397490Y-41836686D01*
X47127592Y-41783000D01*
X46852408Y-41783000D01*
X46582510Y-41836686D01*
X46328273Y-41941995D01*
X46099465Y-42094880D01*
X45904880Y-42289465D01*
X45751995Y-42518273D01*
X45720000Y-42595515D01*
X45688005Y-42518273D01*
X45535120Y-42289465D01*
X45340535Y-42094880D01*
X45111727Y-41941995D01*
X44857490Y-41836686D01*
X44587592Y-41783000D01*
X44312408Y-41783000D01*
X44042510Y-41836686D01*
X43788273Y-41941995D01*
X43559465Y-42094880D01*
X43364880Y-42289465D01*
X43211995Y-42518273D01*
X43182308Y-42589943D01*
X43177636Y-42576977D01*
X43115656Y-42461020D01*
X42875565Y-42394040D01*
X42089605Y-43180000D01*
X41730395Y-43180000D01*
X40944435Y-42394040D01*
X40704344Y-42461020D01*
X40587244Y-42710048D01*
X40520977Y-42977135D01*
X40508090Y-43252017D01*
X21291888Y-43252017D01*
X21292705Y-42214435D01*
X41124040Y-42214435D01*
X41910000Y-43000395D01*
X42695960Y-42214435D01*
X42628980Y-41974344D01*
X42379952Y-41857244D01*
X42112865Y-41790977D01*
X41837983Y-41778090D01*
X41565867Y-41819078D01*
X41306977Y-41912364D01*
X41191020Y-41974344D01*
X41124040Y-42214435D01*
X21292705Y-42214435D01*
X21296436Y-37480989D01*
X21995700Y-37480989D01*
X21995700Y-37753811D01*
X22048925Y-38021389D01*
X22153329Y-38273443D01*
X22304901Y-38500286D01*
X22497814Y-38693199D01*
X22724657Y-38844771D01*
X22976711Y-38949175D01*
X23244289Y-39002400D01*
X23517111Y-39002400D01*
X23662065Y-38973567D01*
X25361049Y-40672552D01*
X25429929Y-40838843D01*
X25581501Y-41065686D01*
X25774414Y-41258599D01*
X26001257Y-41410171D01*
X26253311Y-41514575D01*
X26520889Y-41567800D01*
X26793711Y-41567800D01*
X27061289Y-41514575D01*
X27313343Y-41410171D01*
X27540186Y-41258599D01*
X27733099Y-41065686D01*
X27884671Y-40838843D01*
X27927300Y-40735927D01*
X27969929Y-40838843D01*
X28121501Y-41065686D01*
X28314414Y-41258599D01*
X28541257Y-41410171D01*
X28793311Y-41514575D01*
X29060889Y-41567800D01*
X29333711Y-41567800D01*
X29601289Y-41514575D01*
X29853343Y-41410171D01*
X30080186Y-41258599D01*
X30273099Y-41065686D01*
X30424671Y-40838843D01*
X30467300Y-40735927D01*
X30509929Y-40838843D01*
X30661501Y-41065686D01*
X30854414Y-41258599D01*
X31081257Y-41410171D01*
X31333311Y-41514575D01*
X31600889Y-41567800D01*
X31873711Y-41567800D01*
X32141289Y-41514575D01*
X32393343Y-41410171D01*
X32620186Y-41258599D01*
X32813099Y-41065686D01*
X32964671Y-40838843D01*
X33007300Y-40735927D01*
X33049929Y-40838843D01*
X33201501Y-41065686D01*
X33394414Y-41258599D01*
X33621257Y-41410171D01*
X33873311Y-41514575D01*
X34140889Y-41567800D01*
X34413711Y-41567800D01*
X34681289Y-41514575D01*
X34933343Y-41410171D01*
X35160186Y-41258599D01*
X35353099Y-41065686D01*
X35504671Y-40838843D01*
X35547300Y-40735927D01*
X35589929Y-40838843D01*
X35741501Y-41065686D01*
X35934414Y-41258599D01*
X36161257Y-41410171D01*
X36413311Y-41514575D01*
X36680889Y-41567800D01*
X36953711Y-41567800D01*
X37221289Y-41514575D01*
X37473343Y-41410171D01*
X37700186Y-41258599D01*
X37893099Y-41065686D01*
X38044671Y-40838843D01*
X38087300Y-40735927D01*
X38129929Y-40838843D01*
X38281501Y-41065686D01*
X38474414Y-41258599D01*
X38701257Y-41410171D01*
X38953311Y-41514575D01*
X39220889Y-41567800D01*
X39493711Y-41567800D01*
X39761289Y-41514575D01*
X40013343Y-41410171D01*
X40240186Y-41258599D01*
X40433099Y-41065686D01*
X40584671Y-40838843D01*
X40627300Y-40735927D01*
X40669929Y-40838843D01*
X40821501Y-41065686D01*
X41014414Y-41258599D01*
X41241257Y-41410171D01*
X41493311Y-41514575D01*
X41760889Y-41567800D01*
X42033711Y-41567800D01*
X42301289Y-41514575D01*
X42553343Y-41410171D01*
X42780186Y-41258599D01*
X42973099Y-41065686D01*
X43124671Y-40838843D01*
X43167300Y-40735927D01*
X43209929Y-40838843D01*
X43361501Y-41065686D01*
X43554414Y-41258599D01*
X43781257Y-41410171D01*
X44033311Y-41514575D01*
X44300889Y-41567800D01*
X44573711Y-41567800D01*
X44841289Y-41514575D01*
X45093343Y-41410171D01*
X45320186Y-41258599D01*
X45513099Y-41065686D01*
X45664671Y-40838843D01*
X45707300Y-40735927D01*
X45749929Y-40838843D01*
X45901501Y-41065686D01*
X46094414Y-41258599D01*
X46321257Y-41410171D01*
X46573311Y-41514575D01*
X46840889Y-41567800D01*
X47113711Y-41567800D01*
X47381289Y-41514575D01*
X47633343Y-41410171D01*
X47860186Y-41258599D01*
X48053099Y-41065686D01*
X48204671Y-40838843D01*
X48247300Y-40735927D01*
X48289929Y-40838843D01*
X48441501Y-41065686D01*
X48634414Y-41258599D01*
X48861257Y-41410171D01*
X49113311Y-41514575D01*
X49380889Y-41567800D01*
X49653711Y-41567800D01*
X49921289Y-41514575D01*
X50173343Y-41410171D01*
X50400186Y-41258599D01*
X50593099Y-41065686D01*
X50744671Y-40838843D01*
X50787300Y-40735927D01*
X50829929Y-40838843D01*
X50981501Y-41065686D01*
X51174414Y-41258599D01*
X51401257Y-41410171D01*
X51653311Y-41514575D01*
X51920889Y-41567800D01*
X52193711Y-41567800D01*
X52461289Y-41514575D01*
X52713343Y-41410171D01*
X52940186Y-41258599D01*
X53133099Y-41065686D01*
X53284671Y-40838843D01*
X53327300Y-40735927D01*
X53369929Y-40838843D01*
X53521501Y-41065686D01*
X53714414Y-41258599D01*
X53941257Y-41410171D01*
X54193311Y-41514575D01*
X54460889Y-41567800D01*
X54733711Y-41567800D01*
X55001289Y-41514575D01*
X55253343Y-41410171D01*
X55480186Y-41258599D01*
X55673099Y-41065686D01*
X55824671Y-40838843D01*
X55867300Y-40735927D01*
X55909929Y-40838843D01*
X56061501Y-41065686D01*
X56254414Y-41258599D01*
X56481257Y-41410171D01*
X56733311Y-41514575D01*
X57000889Y-41567800D01*
X57273711Y-41567800D01*
X57541289Y-41514575D01*
X57793343Y-41410171D01*
X58020186Y-41258599D01*
X58213099Y-41065686D01*
X58364671Y-40838843D01*
X58407300Y-40735927D01*
X58449929Y-40838843D01*
X58601501Y-41065686D01*
X58794414Y-41258599D01*
X59021257Y-41410171D01*
X59273311Y-41514575D01*
X59540889Y-41567800D01*
X59813711Y-41567800D01*
X60081289Y-41514575D01*
X60333343Y-41410171D01*
X60560186Y-41258599D01*
X60753099Y-41065686D01*
X60904671Y-40838843D01*
X61009075Y-40586789D01*
X61062300Y-40319211D01*
X61062300Y-40046389D01*
X61009075Y-39778811D01*
X60904671Y-39526757D01*
X60753099Y-39299914D01*
X60560186Y-39107001D01*
X60333343Y-38955429D01*
X60081289Y-38851025D01*
X59813711Y-38797800D01*
X59540889Y-38797800D01*
X59273311Y-38851025D01*
X59021257Y-38955429D01*
X58896735Y-39038632D01*
X57756867Y-37898765D01*
X57785700Y-37753811D01*
X57785700Y-37480989D01*
X57732475Y-37213411D01*
X57628071Y-36961357D01*
X57476499Y-36734514D01*
X57283586Y-36541601D01*
X57056743Y-36390029D01*
X56804689Y-36285625D01*
X56537111Y-36232400D01*
X56264289Y-36232400D01*
X55996711Y-36285625D01*
X55744657Y-36390029D01*
X55517814Y-36541601D01*
X55324901Y-36734514D01*
X55173329Y-36961357D01*
X55130700Y-37064273D01*
X55088071Y-36961357D01*
X54936499Y-36734514D01*
X54743586Y-36541601D01*
X54516743Y-36390029D01*
X54264689Y-36285625D01*
X53997111Y-36232400D01*
X53724289Y-36232400D01*
X53456711Y-36285625D01*
X53204657Y-36390029D01*
X52977814Y-36541601D01*
X52784901Y-36734514D01*
X52633329Y-36961357D01*
X52590700Y-37064273D01*
X52548071Y-36961357D01*
X52396499Y-36734514D01*
X52203586Y-36541601D01*
X51976743Y-36390029D01*
X51724689Y-36285625D01*
X51457111Y-36232400D01*
X51184289Y-36232400D01*
X50916711Y-36285625D01*
X50664657Y-36390029D01*
X50437814Y-36541601D01*
X50244901Y-36734514D01*
X50093329Y-36961357D01*
X50050700Y-37064273D01*
X50008071Y-36961357D01*
X49856499Y-36734514D01*
X49663586Y-36541601D01*
X49436743Y-36390029D01*
X49184689Y-36285625D01*
X48917111Y-36232400D01*
X48644289Y-36232400D01*
X48376711Y-36285625D01*
X48124657Y-36390029D01*
X47897814Y-36541601D01*
X47704901Y-36734514D01*
X47553329Y-36961357D01*
X47510700Y-37064273D01*
X47468071Y-36961357D01*
X47316499Y-36734514D01*
X47123586Y-36541601D01*
X46896743Y-36390029D01*
X46644689Y-36285625D01*
X46377111Y-36232400D01*
X46104289Y-36232400D01*
X45836711Y-36285625D01*
X45584657Y-36390029D01*
X45357814Y-36541601D01*
X45164901Y-36734514D01*
X45013329Y-36961357D01*
X44970700Y-37064273D01*
X44928071Y-36961357D01*
X44776499Y-36734514D01*
X44583586Y-36541601D01*
X44356743Y-36390029D01*
X44104689Y-36285625D01*
X43837111Y-36232400D01*
X43564289Y-36232400D01*
X43296711Y-36285625D01*
X43044657Y-36390029D01*
X42817814Y-36541601D01*
X42624901Y-36734514D01*
X42473329Y-36961357D01*
X42430700Y-37064273D01*
X42388071Y-36961357D01*
X42236499Y-36734514D01*
X42043586Y-36541601D01*
X41816743Y-36390029D01*
X41564689Y-36285625D01*
X41297111Y-36232400D01*
X41024289Y-36232400D01*
X40756711Y-36285625D01*
X40504657Y-36390029D01*
X40277814Y-36541601D01*
X40084901Y-36734514D01*
X39933329Y-36961357D01*
X39890700Y-37064273D01*
X39848071Y-36961357D01*
X39696499Y-36734514D01*
X39503586Y-36541601D01*
X39276743Y-36390029D01*
X39024689Y-36285625D01*
X38757111Y-36232400D01*
X38484289Y-36232400D01*
X38216711Y-36285625D01*
X37964657Y-36390029D01*
X37737814Y-36541601D01*
X37544901Y-36734514D01*
X37393329Y-36961357D01*
X37350700Y-37064273D01*
X37308071Y-36961357D01*
X37156499Y-36734514D01*
X36963586Y-36541601D01*
X36736743Y-36390029D01*
X36484689Y-36285625D01*
X36217111Y-36232400D01*
X35944289Y-36232400D01*
X35676711Y-36285625D01*
X35424657Y-36390029D01*
X35197814Y-36541601D01*
X35004901Y-36734514D01*
X34853329Y-36961357D01*
X34810700Y-37064273D01*
X34768071Y-36961357D01*
X34616499Y-36734514D01*
X34423586Y-36541601D01*
X34196743Y-36390029D01*
X33944689Y-36285625D01*
X33677111Y-36232400D01*
X33404289Y-36232400D01*
X33136711Y-36285625D01*
X32884657Y-36390029D01*
X32657814Y-36541601D01*
X32464901Y-36734514D01*
X32313329Y-36961357D01*
X32270700Y-37064273D01*
X32228071Y-36961357D01*
X32076499Y-36734514D01*
X31883586Y-36541601D01*
X31656743Y-36390029D01*
X31404689Y-36285625D01*
X31137111Y-36232400D01*
X30864289Y-36232400D01*
X30596711Y-36285625D01*
X30344657Y-36390029D01*
X30117814Y-36541601D01*
X29924901Y-36734514D01*
X29773329Y-36961357D01*
X29730700Y-37064273D01*
X29688071Y-36961357D01*
X29536499Y-36734514D01*
X29343586Y-36541601D01*
X29116743Y-36390029D01*
X28864689Y-36285625D01*
X28597111Y-36232400D01*
X28324289Y-36232400D01*
X28056711Y-36285625D01*
X27804657Y-36390029D01*
X27577814Y-36541601D01*
X27384901Y-36734514D01*
X27233329Y-36961357D01*
X27190700Y-37064273D01*
X27148071Y-36961357D01*
X26996499Y-36734514D01*
X26803586Y-36541601D01*
X26576743Y-36390029D01*
X26324689Y-36285625D01*
X26057111Y-36232400D01*
X25784289Y-36232400D01*
X25516711Y-36285625D01*
X25264657Y-36390029D01*
X25037814Y-36541601D01*
X24844901Y-36734514D01*
X24693329Y-36961357D01*
X24650700Y-37064273D01*
X24608071Y-36961357D01*
X24456499Y-36734514D01*
X24263586Y-36541601D01*
X24036743Y-36390029D01*
X23784689Y-36285625D01*
X23517111Y-36232400D01*
X23244289Y-36232400D01*
X22976711Y-36285625D01*
X22724657Y-36390029D01*
X22497814Y-36541601D01*
X22304901Y-36734514D01*
X22153329Y-36961357D01*
X22048925Y-37213411D01*
X21995700Y-37480989D01*
X21296436Y-37480989D01*
X21304074Y-27786080D01*
X71886525Y-27786080D01*
X71970208Y-28040261D01*
X72242775Y-28171158D01*
X72535642Y-28246365D01*
X72837553Y-28262991D01*
X73136907Y-28220397D01*
X73422199Y-28120222D01*
X73571792Y-28040261D01*
X73655475Y-27786080D01*
X72771000Y-26901605D01*
X71886525Y-27786080D01*
X21304074Y-27786080D01*
X21304860Y-26788553D01*
X71230009Y-26788553D01*
X71272603Y-27087907D01*
X71372778Y-27373199D01*
X71452739Y-27522792D01*
X71706920Y-27606475D01*
X72591395Y-26722000D01*
X72950605Y-26722000D01*
X73835080Y-27606475D01*
X74089261Y-27522792D01*
X74220158Y-27250225D01*
X74295365Y-26957358D01*
X74311991Y-26655447D01*
X74269397Y-26356093D01*
X74169222Y-26070801D01*
X74089261Y-25921208D01*
X73835080Y-25837525D01*
X72950605Y-26722000D01*
X72591395Y-26722000D01*
X71706920Y-25837525D01*
X71452739Y-25921208D01*
X71321842Y-26193775D01*
X71246635Y-26486642D01*
X71230009Y-26788553D01*
X21304860Y-26788553D01*
X21305561Y-25899793D01*
X25879912Y-25899793D01*
X25945437Y-26138660D01*
X26192416Y-26254560D01*
X26457260Y-26320050D01*
X26729792Y-26332612D01*
X26999538Y-26291765D01*
X27256132Y-26199077D01*
X27369163Y-26138660D01*
X27434688Y-25899793D01*
X26657300Y-25122405D01*
X25879912Y-25899793D01*
X21305561Y-25899793D01*
X21306258Y-25015292D01*
X25267488Y-25015292D01*
X25308335Y-25285038D01*
X25401023Y-25541632D01*
X25461440Y-25654663D01*
X25700307Y-25720188D01*
X26477695Y-24942800D01*
X25700307Y-24165412D01*
X25461440Y-24230937D01*
X25345540Y-24477916D01*
X25280050Y-24742760D01*
X25267488Y-25015292D01*
X21306258Y-25015292D01*
X21307583Y-23334393D01*
X22603312Y-23334393D01*
X22668837Y-23573260D01*
X22915816Y-23689160D01*
X23180660Y-23754650D01*
X23453192Y-23767212D01*
X23722938Y-23726365D01*
X23979532Y-23633677D01*
X24092563Y-23573260D01*
X24158088Y-23334393D01*
X23380700Y-22557005D01*
X22603312Y-23334393D01*
X21307583Y-23334393D01*
X21308281Y-22449892D01*
X21990888Y-22449892D01*
X22031735Y-22719638D01*
X22124423Y-22976232D01*
X22184840Y-23089263D01*
X22423707Y-23154788D01*
X23201095Y-22377400D01*
X22423707Y-21600012D01*
X22184840Y-21665537D01*
X22068940Y-21912516D01*
X22003450Y-22177360D01*
X21990888Y-22449892D01*
X21308281Y-22449892D01*
X21309260Y-21208754D01*
X22661071Y-21209850D01*
G37*
X22661071Y-21209850D02*
X22603312Y-21420407D01*
X23380700Y-22197795D01*
X24158088Y-21420407D01*
X24100649Y-21211016D01*
X25172084Y-21211885D01*
X25037814Y-21301601D01*
X24844901Y-21494514D01*
X24693329Y-21721357D01*
X24652189Y-21820679D01*
X24636977Y-21778568D01*
X24576560Y-21665537D01*
X24337693Y-21600012D01*
X23560305Y-22377400D01*
X24337693Y-23154788D01*
X24576560Y-23089263D01*
X24650864Y-22930923D01*
X24693329Y-23033443D01*
X24844901Y-23260286D01*
X25037814Y-23453199D01*
X25264657Y-23604771D01*
X25516711Y-23709175D01*
X25784289Y-23762400D01*
X25941196Y-23762400D01*
X25879912Y-23985807D01*
X26657300Y-24763195D01*
X26671443Y-24749053D01*
X26851048Y-24928658D01*
X26836905Y-24942800D01*
X27614293Y-25720188D01*
X27853160Y-25654663D01*
X27927464Y-25496323D01*
X27969929Y-25598843D01*
X28121501Y-25825686D01*
X28314414Y-26018599D01*
X28541257Y-26170171D01*
X28793311Y-26274575D01*
X29060889Y-26327800D01*
X29333711Y-26327800D01*
X29601289Y-26274575D01*
X29853343Y-26170171D01*
X30080186Y-26018599D01*
X30273099Y-25825686D01*
X30424671Y-25598843D01*
X30467300Y-25495927D01*
X30509929Y-25598843D01*
X30661501Y-25825686D01*
X30854414Y-26018599D01*
X31081257Y-26170171D01*
X31333311Y-26274575D01*
X31600889Y-26327800D01*
X31873711Y-26327800D01*
X32141289Y-26274575D01*
X32393343Y-26170171D01*
X32620186Y-26018599D01*
X32813099Y-25825686D01*
X32964671Y-25598843D01*
X33007300Y-25495927D01*
X33049929Y-25598843D01*
X33201501Y-25825686D01*
X33394414Y-26018599D01*
X33621257Y-26170171D01*
X33873311Y-26274575D01*
X34140889Y-26327800D01*
X34413711Y-26327800D01*
X34681289Y-26274575D01*
X34933343Y-26170171D01*
X35160186Y-26018599D01*
X35353099Y-25825686D01*
X35504671Y-25598843D01*
X35547300Y-25495927D01*
X35589929Y-25598843D01*
X35741501Y-25825686D01*
X35934414Y-26018599D01*
X36161257Y-26170171D01*
X36413311Y-26274575D01*
X36680889Y-26327800D01*
X36953711Y-26327800D01*
X37221289Y-26274575D01*
X37473343Y-26170171D01*
X37700186Y-26018599D01*
X37893099Y-25825686D01*
X38044671Y-25598843D01*
X38087300Y-25495927D01*
X38129929Y-25598843D01*
X38281501Y-25825686D01*
X38474414Y-26018599D01*
X38701257Y-26170171D01*
X38953311Y-26274575D01*
X39220889Y-26327800D01*
X39493711Y-26327800D01*
X39761289Y-26274575D01*
X40013343Y-26170171D01*
X40240186Y-26018599D01*
X40433099Y-25825686D01*
X40584671Y-25598843D01*
X40627300Y-25495927D01*
X40669929Y-25598843D01*
X40821501Y-25825686D01*
X41014414Y-26018599D01*
X41241257Y-26170171D01*
X41493311Y-26274575D01*
X41760889Y-26327800D01*
X42033711Y-26327800D01*
X42301289Y-26274575D01*
X42553343Y-26170171D01*
X42780186Y-26018599D01*
X42973099Y-25825686D01*
X43124671Y-25598843D01*
X43167300Y-25495927D01*
X43209929Y-25598843D01*
X43361501Y-25825686D01*
X43554414Y-26018599D01*
X43781257Y-26170171D01*
X44033311Y-26274575D01*
X44300889Y-26327800D01*
X44573711Y-26327800D01*
X44841289Y-26274575D01*
X45093343Y-26170171D01*
X45320186Y-26018599D01*
X45513099Y-25825686D01*
X45664671Y-25598843D01*
X45707300Y-25495927D01*
X45749929Y-25598843D01*
X45901501Y-25825686D01*
X46094414Y-26018599D01*
X46321257Y-26170171D01*
X46573311Y-26274575D01*
X46840889Y-26327800D01*
X47113711Y-26327800D01*
X47381289Y-26274575D01*
X47633343Y-26170171D01*
X47860186Y-26018599D01*
X48053099Y-25825686D01*
X48204671Y-25598843D01*
X48247300Y-25495927D01*
X48289929Y-25598843D01*
X48441501Y-25825686D01*
X48634414Y-26018599D01*
X48861257Y-26170171D01*
X49113311Y-26274575D01*
X49380889Y-26327800D01*
X49653711Y-26327800D01*
X49921289Y-26274575D01*
X50173343Y-26170171D01*
X50400186Y-26018599D01*
X50593099Y-25825686D01*
X50744671Y-25598843D01*
X50787300Y-25495927D01*
X50829929Y-25598843D01*
X50981501Y-25825686D01*
X51174414Y-26018599D01*
X51401257Y-26170171D01*
X51653311Y-26274575D01*
X51920889Y-26327800D01*
X52193711Y-26327800D01*
X52461289Y-26274575D01*
X52713343Y-26170171D01*
X52940186Y-26018599D01*
X53133099Y-25825686D01*
X53284671Y-25598843D01*
X53327300Y-25495927D01*
X53369929Y-25598843D01*
X53521501Y-25825686D01*
X53714414Y-26018599D01*
X53941257Y-26170171D01*
X54193311Y-26274575D01*
X54460889Y-26327800D01*
X54733711Y-26327800D01*
X55001289Y-26274575D01*
X55253343Y-26170171D01*
X55480186Y-26018599D01*
X55673099Y-25825686D01*
X55824671Y-25598843D01*
X55867300Y-25495927D01*
X55909929Y-25598843D01*
X56061501Y-25825686D01*
X56254414Y-26018599D01*
X56481257Y-26170171D01*
X56733311Y-26274575D01*
X57000889Y-26327800D01*
X57273711Y-26327800D01*
X57541289Y-26274575D01*
X57793343Y-26170171D01*
X58020186Y-26018599D01*
X58213099Y-25825686D01*
X58290855Y-25709317D01*
X58301488Y-25817282D01*
X58337798Y-25936980D01*
X58396763Y-26047294D01*
X58476115Y-26143985D01*
X58572806Y-26223337D01*
X58683120Y-26282302D01*
X58802818Y-26318612D01*
X58927300Y-26330872D01*
X60427300Y-26330872D01*
X60551782Y-26318612D01*
X60671480Y-26282302D01*
X60781794Y-26223337D01*
X60878485Y-26143985D01*
X60957837Y-26047294D01*
X61016802Y-25936980D01*
X61053112Y-25817282D01*
X61065372Y-25692800D01*
X61065372Y-25657920D01*
X71886525Y-25657920D01*
X72771000Y-26542395D01*
X73655475Y-25657920D01*
X73571792Y-25403739D01*
X73299225Y-25272842D01*
X73006358Y-25197635D01*
X72704447Y-25181009D01*
X72405093Y-25223603D01*
X72119801Y-25323778D01*
X71970208Y-25403739D01*
X71886525Y-25657920D01*
X61065372Y-25657920D01*
X61065372Y-24192800D01*
X61053112Y-24068318D01*
X61016802Y-23948620D01*
X60957837Y-23838306D01*
X60878485Y-23741615D01*
X60781794Y-23662263D01*
X60671480Y-23603298D01*
X60551782Y-23566988D01*
X60427300Y-23554728D01*
X59652830Y-23554728D01*
X57964504Y-21866403D01*
X57940701Y-21837399D01*
X57824976Y-21742426D01*
X57788772Y-21723074D01*
X57788772Y-21627400D01*
X57776512Y-21502918D01*
X57740202Y-21383220D01*
X57681237Y-21272906D01*
X57652760Y-21238206D01*
X82627001Y-21258445D01*
X82627000Y-52020555D01*
X60350291Y-52038600D01*
X60351727Y-52038005D01*
X60580535Y-51885120D01*
X60775120Y-51690535D01*
X60928005Y-51461727D01*
X61033314Y-51207490D01*
X61087000Y-50937592D01*
X61087000Y-50662408D01*
X61033314Y-50392510D01*
X60928005Y-50138273D01*
X60775120Y-49909465D01*
X60580535Y-49714880D01*
X60351727Y-49561995D01*
X60097490Y-49456686D01*
X59827592Y-49403000D01*
X59552408Y-49403000D01*
X59282510Y-49456686D01*
X59028273Y-49561995D01*
X58799465Y-49714880D01*
X58604880Y-49909465D01*
X58451995Y-50138273D01*
X58420000Y-50215515D01*
X58388005Y-50138273D01*
X58235120Y-49909465D01*
X58040535Y-49714880D01*
X57811727Y-49561995D01*
X57557490Y-49456686D01*
X57287592Y-49403000D01*
X57012408Y-49403000D01*
X56742510Y-49456686D01*
X56488273Y-49561995D01*
X56259465Y-49714880D01*
X56064880Y-49909465D01*
X55911995Y-50138273D01*
X55882308Y-50209943D01*
X55877636Y-50196977D01*
X55815656Y-50081020D01*
X55575565Y-50014040D01*
X54789605Y-50800000D01*
X54803748Y-50814143D01*
X54624143Y-50993748D01*
X54610000Y-50979605D01*
X54595858Y-50993748D01*
X54416253Y-50814143D01*
X54430395Y-50800000D01*
X53644435Y-50014040D01*
X53404344Y-50081020D01*
X53340515Y-50216760D01*
X53308005Y-50138273D01*
X53155120Y-49909465D01*
X53080090Y-49834435D01*
X53824040Y-49834435D01*
X54610000Y-50620395D01*
X55395960Y-49834435D01*
X55328980Y-49594344D01*
X55079952Y-49477244D01*
X54812865Y-49410977D01*
X54537983Y-49398090D01*
X54265867Y-49439078D01*
X54006977Y-49532364D01*
X53891020Y-49594344D01*
X53824040Y-49834435D01*
X53080090Y-49834435D01*
X52960535Y-49714880D01*
X52731727Y-49561995D01*
X52477490Y-49456686D01*
X52207592Y-49403000D01*
X51932408Y-49403000D01*
X51662510Y-49456686D01*
X51408273Y-49561995D01*
X51179465Y-49714880D01*
X50984880Y-49909465D01*
X50831995Y-50138273D01*
X50800000Y-50215515D01*
X50768005Y-50138273D01*
X50615120Y-49909465D01*
X50420535Y-49714880D01*
X50191727Y-49561995D01*
X49937490Y-49456686D01*
X49667592Y-49403000D01*
X49392408Y-49403000D01*
X49122510Y-49456686D01*
X48868273Y-49561995D01*
X48639465Y-49714880D01*
X48444880Y-49909465D01*
X48291995Y-50138273D01*
X48260000Y-50215515D01*
X48228005Y-50138273D01*
X48075120Y-49909465D01*
X47880535Y-49714880D01*
X47651727Y-49561995D01*
X47397490Y-49456686D01*
X47127592Y-49403000D01*
X46852408Y-49403000D01*
X46582510Y-49456686D01*
X46328273Y-49561995D01*
X46099465Y-49714880D01*
X45904880Y-49909465D01*
X45751995Y-50138273D01*
X45720000Y-50215515D01*
X45688005Y-50138273D01*
X45535120Y-49909465D01*
X45340535Y-49714880D01*
X45111727Y-49561995D01*
X44857490Y-49456686D01*
X44587592Y-49403000D01*
X44312408Y-49403000D01*
X44042510Y-49456686D01*
X43788273Y-49561995D01*
X43559465Y-49714880D01*
X43364880Y-49909465D01*
X43211995Y-50138273D01*
X43180000Y-50215515D01*
X43148005Y-50138273D01*
X42995120Y-49909465D01*
X42800535Y-49714880D01*
X42571727Y-49561995D01*
X42317490Y-49456686D01*
X42047592Y-49403000D01*
X41772408Y-49403000D01*
X41502510Y-49456686D01*
X41248273Y-49561995D01*
X41019465Y-49714880D01*
X40824880Y-49909465D01*
X40671995Y-50138273D01*
X40566686Y-50392510D01*
X40513000Y-50662408D01*
X40513000Y-50937592D01*
X40566686Y-51207490D01*
X40671995Y-51461727D01*
X40824880Y-51690535D01*
X41019465Y-51885120D01*
X41248273Y-52038005D01*
X41286990Y-52054042D01*
X21284940Y-52070245D01*
X21291183Y-44145565D01*
X41124040Y-44145565D01*
X41191020Y-44385656D01*
X41440048Y-44502756D01*
X41707135Y-44569023D01*
X41982017Y-44581910D01*
X42254133Y-44540922D01*
X42513023Y-44447636D01*
X42628980Y-44385656D01*
X42695960Y-44145565D01*
X41910000Y-43359605D01*
X41124040Y-44145565D01*
X21291183Y-44145565D01*
X21291888Y-43252017D01*
X40508090Y-43252017D01*
X40549078Y-43524133D01*
X40642364Y-43783023D01*
X40704344Y-43898980D01*
X40944435Y-43965960D01*
X41730395Y-43180000D01*
X42089605Y-43180000D01*
X42875565Y-43965960D01*
X43115656Y-43898980D01*
X43179485Y-43763240D01*
X43211995Y-43841727D01*
X43364880Y-44070535D01*
X43559465Y-44265120D01*
X43788273Y-44418005D01*
X44042510Y-44523314D01*
X44312408Y-44577000D01*
X44587592Y-44577000D01*
X44857490Y-44523314D01*
X45111727Y-44418005D01*
X45340535Y-44265120D01*
X45535120Y-44070535D01*
X45688005Y-43841727D01*
X45720000Y-43764485D01*
X45751995Y-43841727D01*
X45904880Y-44070535D01*
X46099465Y-44265120D01*
X46328273Y-44418005D01*
X46582510Y-44523314D01*
X46852408Y-44577000D01*
X47127592Y-44577000D01*
X47397490Y-44523314D01*
X47651727Y-44418005D01*
X47880535Y-44265120D01*
X48000090Y-44145565D01*
X48744040Y-44145565D01*
X48811020Y-44385656D01*
X49060048Y-44502756D01*
X49327135Y-44569023D01*
X49602017Y-44581910D01*
X49874133Y-44540922D01*
X50133023Y-44447636D01*
X50248980Y-44385656D01*
X50315960Y-44145565D01*
X49530000Y-43359605D01*
X48744040Y-44145565D01*
X48000090Y-44145565D01*
X48075120Y-44070535D01*
X48228005Y-43841727D01*
X48257692Y-43770057D01*
X48262364Y-43783023D01*
X48324344Y-43898980D01*
X48564435Y-43965960D01*
X49350395Y-43180000D01*
X49709605Y-43180000D01*
X50495565Y-43965960D01*
X50735656Y-43898980D01*
X50799485Y-43763240D01*
X50831995Y-43841727D01*
X50984880Y-44070535D01*
X51179465Y-44265120D01*
X51408273Y-44418005D01*
X51662510Y-44523314D01*
X51932408Y-44577000D01*
X52207592Y-44577000D01*
X52361571Y-44546372D01*
X53353211Y-45538013D01*
X53377009Y-45567011D01*
X53492734Y-45661984D01*
X53624763Y-45732556D01*
X53768024Y-45776013D01*
X53879677Y-45787010D01*
X53879686Y-45787010D01*
X53917009Y-45790686D01*
X53954332Y-45787010D01*
X72238668Y-45787010D01*
X72275990Y-45790686D01*
X72313312Y-45787010D01*
X72313323Y-45787010D01*
X72424976Y-45776013D01*
X72568237Y-45732556D01*
X72700266Y-45661984D01*
X72815991Y-45567011D01*
X72839794Y-45538007D01*
X73281997Y-45095804D01*
X73311001Y-45072001D01*
X73405974Y-44956276D01*
X73425326Y-44920072D01*
X73671000Y-44920072D01*
X73795482Y-44907812D01*
X73915180Y-44871502D01*
X74025494Y-44812537D01*
X74122185Y-44733185D01*
X74201537Y-44636494D01*
X74260502Y-44526180D01*
X74296812Y-44406482D01*
X74309072Y-44282000D01*
X74309072Y-42482000D01*
X74296812Y-42357518D01*
X74260502Y-42237820D01*
X74201537Y-42127506D01*
X74122185Y-42030815D01*
X74025494Y-41951463D01*
X73915180Y-41892498D01*
X73795482Y-41856188D01*
X73671000Y-41843928D01*
X71871000Y-41843928D01*
X71746518Y-41856188D01*
X71626820Y-41892498D01*
X71516506Y-41951463D01*
X71419815Y-42030815D01*
X71340463Y-42127506D01*
X71281498Y-42237820D01*
X71245188Y-42357518D01*
X71232928Y-42482000D01*
X71232928Y-44267010D01*
X65886162Y-44267010D01*
X66019236Y-44240540D01*
X66243992Y-44147443D01*
X66446267Y-44012287D01*
X66618287Y-43840267D01*
X66753443Y-43637992D01*
X66846540Y-43413236D01*
X66894000Y-43174637D01*
X66894000Y-42931363D01*
X66846540Y-42692764D01*
X66753443Y-42468008D01*
X66618287Y-42265733D01*
X66446267Y-42093713D01*
X66243992Y-41958557D01*
X66019236Y-41865460D01*
X65780637Y-41818000D01*
X65537363Y-41818000D01*
X65298764Y-41865460D01*
X65074008Y-41958557D01*
X64871733Y-42093713D01*
X64699713Y-42265733D01*
X64564557Y-42468008D01*
X64471460Y-42692764D01*
X64424000Y-42931363D01*
X64424000Y-43174637D01*
X64430398Y-43206800D01*
X64327044Y-43310154D01*
X64354000Y-43174637D01*
X64354000Y-42931363D01*
X64306540Y-42692764D01*
X64213443Y-42468008D01*
X64078287Y-42265733D01*
X63906267Y-42093713D01*
X63703992Y-41958557D01*
X63479236Y-41865460D01*
X63240637Y-41818000D01*
X62997363Y-41818000D01*
X62758764Y-41865460D01*
X62534008Y-41958557D01*
X62331733Y-42093713D01*
X62159713Y-42265733D01*
X62141494Y-42293000D01*
X61077655Y-42293000D01*
X61041502Y-42173820D01*
X60982537Y-42063506D01*
X60903185Y-41966815D01*
X60806494Y-41887463D01*
X60696180Y-41828498D01*
X60576482Y-41792188D01*
X60452000Y-41779928D01*
X58928000Y-41779928D01*
X58803518Y-41792188D01*
X58683820Y-41828498D01*
X58573506Y-41887463D01*
X58476815Y-41966815D01*
X58397463Y-42063506D01*
X58338498Y-42173820D01*
X58302188Y-42293518D01*
X58293920Y-42377465D01*
X58235120Y-42289465D01*
X58040535Y-42094880D01*
X57811727Y-41941995D01*
X57557490Y-41836686D01*
X57287592Y-41783000D01*
X57012408Y-41783000D01*
X56742510Y-41836686D01*
X56488273Y-41941995D01*
X56259465Y-42094880D01*
X56064880Y-42289465D01*
X55911995Y-42518273D01*
X55880000Y-42595515D01*
X55848005Y-42518273D01*
X55695120Y-42289465D01*
X55500535Y-42094880D01*
X55271727Y-41941995D01*
X55017490Y-41836686D01*
X54747592Y-41783000D01*
X54472408Y-41783000D01*
X54202510Y-41836686D01*
X53948273Y-41941995D01*
X53719465Y-42094880D01*
X53524880Y-42289465D01*
X53371995Y-42518273D01*
X53340000Y-42595515D01*
X53308005Y-42518273D01*
X53155120Y-42289465D01*
X52960535Y-42094880D01*
X52731727Y-41941995D01*
X52477490Y-41836686D01*
X52207592Y-41783000D01*
X51932408Y-41783000D01*
X51662510Y-41836686D01*
X51408273Y-41941995D01*
X51179465Y-42094880D01*
X50984880Y-42289465D01*
X50831995Y-42518273D01*
X50802308Y-42589943D01*
X50797636Y-42576977D01*
X50735656Y-42461020D01*
X50495565Y-42394040D01*
X49709605Y-43180000D01*
X49350395Y-43180000D01*
X48564435Y-42394040D01*
X48324344Y-42461020D01*
X48260515Y-42596760D01*
X48228005Y-42518273D01*
X48075120Y-42289465D01*
X48000090Y-42214435D01*
X48744040Y-42214435D01*
X49530000Y-43000395D01*
X50315960Y-42214435D01*
X50248980Y-41974344D01*
X49999952Y-41857244D01*
X49732865Y-41790977D01*
X49457983Y-41778090D01*
X49185867Y-41819078D01*
X48926977Y-41912364D01*
X48811020Y-41974344D01*
X48744040Y-42214435D01*
X48000090Y-42214435D01*
X47880535Y-42094880D01*
X47651727Y-41941995D01*
X47397490Y-41836686D01*
X47127592Y-41783000D01*
X46852408Y-41783000D01*
X46582510Y-41836686D01*
X46328273Y-41941995D01*
X46099465Y-42094880D01*
X45904880Y-42289465D01*
X45751995Y-42518273D01*
X45720000Y-42595515D01*
X45688005Y-42518273D01*
X45535120Y-42289465D01*
X45340535Y-42094880D01*
X45111727Y-41941995D01*
X44857490Y-41836686D01*
X44587592Y-41783000D01*
X44312408Y-41783000D01*
X44042510Y-41836686D01*
X43788273Y-41941995D01*
X43559465Y-42094880D01*
X43364880Y-42289465D01*
X43211995Y-42518273D01*
X43182308Y-42589943D01*
X43177636Y-42576977D01*
X43115656Y-42461020D01*
X42875565Y-42394040D01*
X42089605Y-43180000D01*
X41730395Y-43180000D01*
X40944435Y-42394040D01*
X40704344Y-42461020D01*
X40587244Y-42710048D01*
X40520977Y-42977135D01*
X40508090Y-43252017D01*
X21291888Y-43252017D01*
X21292705Y-42214435D01*
X41124040Y-42214435D01*
X41910000Y-43000395D01*
X42695960Y-42214435D01*
X42628980Y-41974344D01*
X42379952Y-41857244D01*
X42112865Y-41790977D01*
X41837983Y-41778090D01*
X41565867Y-41819078D01*
X41306977Y-41912364D01*
X41191020Y-41974344D01*
X41124040Y-42214435D01*
X21292705Y-42214435D01*
X21296436Y-37480989D01*
X21995700Y-37480989D01*
X21995700Y-37753811D01*
X22048925Y-38021389D01*
X22153329Y-38273443D01*
X22304901Y-38500286D01*
X22497814Y-38693199D01*
X22724657Y-38844771D01*
X22976711Y-38949175D01*
X23244289Y-39002400D01*
X23517111Y-39002400D01*
X23662065Y-38973567D01*
X25361049Y-40672552D01*
X25429929Y-40838843D01*
X25581501Y-41065686D01*
X25774414Y-41258599D01*
X26001257Y-41410171D01*
X26253311Y-41514575D01*
X26520889Y-41567800D01*
X26793711Y-41567800D01*
X27061289Y-41514575D01*
X27313343Y-41410171D01*
X27540186Y-41258599D01*
X27733099Y-41065686D01*
X27884671Y-40838843D01*
X27927300Y-40735927D01*
X27969929Y-40838843D01*
X28121501Y-41065686D01*
X28314414Y-41258599D01*
X28541257Y-41410171D01*
X28793311Y-41514575D01*
X29060889Y-41567800D01*
X29333711Y-41567800D01*
X29601289Y-41514575D01*
X29853343Y-41410171D01*
X30080186Y-41258599D01*
X30273099Y-41065686D01*
X30424671Y-40838843D01*
X30467300Y-40735927D01*
X30509929Y-40838843D01*
X30661501Y-41065686D01*
X30854414Y-41258599D01*
X31081257Y-41410171D01*
X31333311Y-41514575D01*
X31600889Y-41567800D01*
X31873711Y-41567800D01*
X32141289Y-41514575D01*
X32393343Y-41410171D01*
X32620186Y-41258599D01*
X32813099Y-41065686D01*
X32964671Y-40838843D01*
X33007300Y-40735927D01*
X33049929Y-40838843D01*
X33201501Y-41065686D01*
X33394414Y-41258599D01*
X33621257Y-41410171D01*
X33873311Y-41514575D01*
X34140889Y-41567800D01*
X34413711Y-41567800D01*
X34681289Y-41514575D01*
X34933343Y-41410171D01*
X35160186Y-41258599D01*
X35353099Y-41065686D01*
X35504671Y-40838843D01*
X35547300Y-40735927D01*
X35589929Y-40838843D01*
X35741501Y-41065686D01*
X35934414Y-41258599D01*
X36161257Y-41410171D01*
X36413311Y-41514575D01*
X36680889Y-41567800D01*
X36953711Y-41567800D01*
X37221289Y-41514575D01*
X37473343Y-41410171D01*
X37700186Y-41258599D01*
X37893099Y-41065686D01*
X38044671Y-40838843D01*
X38087300Y-40735927D01*
X38129929Y-40838843D01*
X38281501Y-41065686D01*
X38474414Y-41258599D01*
X38701257Y-41410171D01*
X38953311Y-41514575D01*
X39220889Y-41567800D01*
X39493711Y-41567800D01*
X39761289Y-41514575D01*
X40013343Y-41410171D01*
X40240186Y-41258599D01*
X40433099Y-41065686D01*
X40584671Y-40838843D01*
X40627300Y-40735927D01*
X40669929Y-40838843D01*
X40821501Y-41065686D01*
X41014414Y-41258599D01*
X41241257Y-41410171D01*
X41493311Y-41514575D01*
X41760889Y-41567800D01*
X42033711Y-41567800D01*
X42301289Y-41514575D01*
X42553343Y-41410171D01*
X42780186Y-41258599D01*
X42973099Y-41065686D01*
X43124671Y-40838843D01*
X43167300Y-40735927D01*
X43209929Y-40838843D01*
X43361501Y-41065686D01*
X43554414Y-41258599D01*
X43781257Y-41410171D01*
X44033311Y-41514575D01*
X44300889Y-41567800D01*
X44573711Y-41567800D01*
X44841289Y-41514575D01*
X45093343Y-41410171D01*
X45320186Y-41258599D01*
X45513099Y-41065686D01*
X45664671Y-40838843D01*
X45707300Y-40735927D01*
X45749929Y-40838843D01*
X45901501Y-41065686D01*
X46094414Y-41258599D01*
X46321257Y-41410171D01*
X46573311Y-41514575D01*
X46840889Y-41567800D01*
X47113711Y-41567800D01*
X47381289Y-41514575D01*
X47633343Y-41410171D01*
X47860186Y-41258599D01*
X48053099Y-41065686D01*
X48204671Y-40838843D01*
X48247300Y-40735927D01*
X48289929Y-40838843D01*
X48441501Y-41065686D01*
X48634414Y-41258599D01*
X48861257Y-41410171D01*
X49113311Y-41514575D01*
X49380889Y-41567800D01*
X49653711Y-41567800D01*
X49921289Y-41514575D01*
X50173343Y-41410171D01*
X50400186Y-41258599D01*
X50593099Y-41065686D01*
X50744671Y-40838843D01*
X50787300Y-40735927D01*
X50829929Y-40838843D01*
X50981501Y-41065686D01*
X51174414Y-41258599D01*
X51401257Y-41410171D01*
X51653311Y-41514575D01*
X51920889Y-41567800D01*
X52193711Y-41567800D01*
X52461289Y-41514575D01*
X52713343Y-41410171D01*
X52940186Y-41258599D01*
X53133099Y-41065686D01*
X53284671Y-40838843D01*
X53327300Y-40735927D01*
X53369929Y-40838843D01*
X53521501Y-41065686D01*
X53714414Y-41258599D01*
X53941257Y-41410171D01*
X54193311Y-41514575D01*
X54460889Y-41567800D01*
X54733711Y-41567800D01*
X55001289Y-41514575D01*
X55253343Y-41410171D01*
X55480186Y-41258599D01*
X55673099Y-41065686D01*
X55824671Y-40838843D01*
X55867300Y-40735927D01*
X55909929Y-40838843D01*
X56061501Y-41065686D01*
X56254414Y-41258599D01*
X56481257Y-41410171D01*
X56733311Y-41514575D01*
X57000889Y-41567800D01*
X57273711Y-41567800D01*
X57541289Y-41514575D01*
X57793343Y-41410171D01*
X58020186Y-41258599D01*
X58213099Y-41065686D01*
X58364671Y-40838843D01*
X58407300Y-40735927D01*
X58449929Y-40838843D01*
X58601501Y-41065686D01*
X58794414Y-41258599D01*
X59021257Y-41410171D01*
X59273311Y-41514575D01*
X59540889Y-41567800D01*
X59813711Y-41567800D01*
X60081289Y-41514575D01*
X60333343Y-41410171D01*
X60560186Y-41258599D01*
X60753099Y-41065686D01*
X60904671Y-40838843D01*
X61009075Y-40586789D01*
X61062300Y-40319211D01*
X61062300Y-40046389D01*
X61009075Y-39778811D01*
X60904671Y-39526757D01*
X60753099Y-39299914D01*
X60560186Y-39107001D01*
X60333343Y-38955429D01*
X60081289Y-38851025D01*
X59813711Y-38797800D01*
X59540889Y-38797800D01*
X59273311Y-38851025D01*
X59021257Y-38955429D01*
X58896735Y-39038632D01*
X57756867Y-37898765D01*
X57785700Y-37753811D01*
X57785700Y-37480989D01*
X57732475Y-37213411D01*
X57628071Y-36961357D01*
X57476499Y-36734514D01*
X57283586Y-36541601D01*
X57056743Y-36390029D01*
X56804689Y-36285625D01*
X56537111Y-36232400D01*
X56264289Y-36232400D01*
X55996711Y-36285625D01*
X55744657Y-36390029D01*
X55517814Y-36541601D01*
X55324901Y-36734514D01*
X55173329Y-36961357D01*
X55130700Y-37064273D01*
X55088071Y-36961357D01*
X54936499Y-36734514D01*
X54743586Y-36541601D01*
X54516743Y-36390029D01*
X54264689Y-36285625D01*
X53997111Y-36232400D01*
X53724289Y-36232400D01*
X53456711Y-36285625D01*
X53204657Y-36390029D01*
X52977814Y-36541601D01*
X52784901Y-36734514D01*
X52633329Y-36961357D01*
X52590700Y-37064273D01*
X52548071Y-36961357D01*
X52396499Y-36734514D01*
X52203586Y-36541601D01*
X51976743Y-36390029D01*
X51724689Y-36285625D01*
X51457111Y-36232400D01*
X51184289Y-36232400D01*
X50916711Y-36285625D01*
X50664657Y-36390029D01*
X50437814Y-36541601D01*
X50244901Y-36734514D01*
X50093329Y-36961357D01*
X50050700Y-37064273D01*
X50008071Y-36961357D01*
X49856499Y-36734514D01*
X49663586Y-36541601D01*
X49436743Y-36390029D01*
X49184689Y-36285625D01*
X48917111Y-36232400D01*
X48644289Y-36232400D01*
X48376711Y-36285625D01*
X48124657Y-36390029D01*
X47897814Y-36541601D01*
X47704901Y-36734514D01*
X47553329Y-36961357D01*
X47510700Y-37064273D01*
X47468071Y-36961357D01*
X47316499Y-36734514D01*
X47123586Y-36541601D01*
X46896743Y-36390029D01*
X46644689Y-36285625D01*
X46377111Y-36232400D01*
X46104289Y-36232400D01*
X45836711Y-36285625D01*
X45584657Y-36390029D01*
X45357814Y-36541601D01*
X45164901Y-36734514D01*
X45013329Y-36961357D01*
X44970700Y-37064273D01*
X44928071Y-36961357D01*
X44776499Y-36734514D01*
X44583586Y-36541601D01*
X44356743Y-36390029D01*
X44104689Y-36285625D01*
X43837111Y-36232400D01*
X43564289Y-36232400D01*
X43296711Y-36285625D01*
X43044657Y-36390029D01*
X42817814Y-36541601D01*
X42624901Y-36734514D01*
X42473329Y-36961357D01*
X42430700Y-37064273D01*
X42388071Y-36961357D01*
X42236499Y-36734514D01*
X42043586Y-36541601D01*
X41816743Y-36390029D01*
X41564689Y-36285625D01*
X41297111Y-36232400D01*
X41024289Y-36232400D01*
X40756711Y-36285625D01*
X40504657Y-36390029D01*
X40277814Y-36541601D01*
X40084901Y-36734514D01*
X39933329Y-36961357D01*
X39890700Y-37064273D01*
X39848071Y-36961357D01*
X39696499Y-36734514D01*
X39503586Y-36541601D01*
X39276743Y-36390029D01*
X39024689Y-36285625D01*
X38757111Y-36232400D01*
X38484289Y-36232400D01*
X38216711Y-36285625D01*
X37964657Y-36390029D01*
X37737814Y-36541601D01*
X37544901Y-36734514D01*
X37393329Y-36961357D01*
X37350700Y-37064273D01*
X37308071Y-36961357D01*
X37156499Y-36734514D01*
X36963586Y-36541601D01*
X36736743Y-36390029D01*
X36484689Y-36285625D01*
X36217111Y-36232400D01*
X35944289Y-36232400D01*
X35676711Y-36285625D01*
X35424657Y-36390029D01*
X35197814Y-36541601D01*
X35004901Y-36734514D01*
X34853329Y-36961357D01*
X34810700Y-37064273D01*
X34768071Y-36961357D01*
X34616499Y-36734514D01*
X34423586Y-36541601D01*
X34196743Y-36390029D01*
X33944689Y-36285625D01*
X33677111Y-36232400D01*
X33404289Y-36232400D01*
X33136711Y-36285625D01*
X32884657Y-36390029D01*
X32657814Y-36541601D01*
X32464901Y-36734514D01*
X32313329Y-36961357D01*
X32270700Y-37064273D01*
X32228071Y-36961357D01*
X32076499Y-36734514D01*
X31883586Y-36541601D01*
X31656743Y-36390029D01*
X31404689Y-36285625D01*
X31137111Y-36232400D01*
X30864289Y-36232400D01*
X30596711Y-36285625D01*
X30344657Y-36390029D01*
X30117814Y-36541601D01*
X29924901Y-36734514D01*
X29773329Y-36961357D01*
X29730700Y-37064273D01*
X29688071Y-36961357D01*
X29536499Y-36734514D01*
X29343586Y-36541601D01*
X29116743Y-36390029D01*
X28864689Y-36285625D01*
X28597111Y-36232400D01*
X28324289Y-36232400D01*
X28056711Y-36285625D01*
X27804657Y-36390029D01*
X27577814Y-36541601D01*
X27384901Y-36734514D01*
X27233329Y-36961357D01*
X27190700Y-37064273D01*
X27148071Y-36961357D01*
X26996499Y-36734514D01*
X26803586Y-36541601D01*
X26576743Y-36390029D01*
X26324689Y-36285625D01*
X26057111Y-36232400D01*
X25784289Y-36232400D01*
X25516711Y-36285625D01*
X25264657Y-36390029D01*
X25037814Y-36541601D01*
X24844901Y-36734514D01*
X24693329Y-36961357D01*
X24650700Y-37064273D01*
X24608071Y-36961357D01*
X24456499Y-36734514D01*
X24263586Y-36541601D01*
X24036743Y-36390029D01*
X23784689Y-36285625D01*
X23517111Y-36232400D01*
X23244289Y-36232400D01*
X22976711Y-36285625D01*
X22724657Y-36390029D01*
X22497814Y-36541601D01*
X22304901Y-36734514D01*
X22153329Y-36961357D01*
X22048925Y-37213411D01*
X21995700Y-37480989D01*
X21296436Y-37480989D01*
X21304074Y-27786080D01*
X71886525Y-27786080D01*
X71970208Y-28040261D01*
X72242775Y-28171158D01*
X72535642Y-28246365D01*
X72837553Y-28262991D01*
X73136907Y-28220397D01*
X73422199Y-28120222D01*
X73571792Y-28040261D01*
X73655475Y-27786080D01*
X72771000Y-26901605D01*
X71886525Y-27786080D01*
X21304074Y-27786080D01*
X21304860Y-26788553D01*
X71230009Y-26788553D01*
X71272603Y-27087907D01*
X71372778Y-27373199D01*
X71452739Y-27522792D01*
X71706920Y-27606475D01*
X72591395Y-26722000D01*
X72950605Y-26722000D01*
X73835080Y-27606475D01*
X74089261Y-27522792D01*
X74220158Y-27250225D01*
X74295365Y-26957358D01*
X74311991Y-26655447D01*
X74269397Y-26356093D01*
X74169222Y-26070801D01*
X74089261Y-25921208D01*
X73835080Y-25837525D01*
X72950605Y-26722000D01*
X72591395Y-26722000D01*
X71706920Y-25837525D01*
X71452739Y-25921208D01*
X71321842Y-26193775D01*
X71246635Y-26486642D01*
X71230009Y-26788553D01*
X21304860Y-26788553D01*
X21305561Y-25899793D01*
X25879912Y-25899793D01*
X25945437Y-26138660D01*
X26192416Y-26254560D01*
X26457260Y-26320050D01*
X26729792Y-26332612D01*
X26999538Y-26291765D01*
X27256132Y-26199077D01*
X27369163Y-26138660D01*
X27434688Y-25899793D01*
X26657300Y-25122405D01*
X25879912Y-25899793D01*
X21305561Y-25899793D01*
X21306258Y-25015292D01*
X25267488Y-25015292D01*
X25308335Y-25285038D01*
X25401023Y-25541632D01*
X25461440Y-25654663D01*
X25700307Y-25720188D01*
X26477695Y-24942800D01*
X25700307Y-24165412D01*
X25461440Y-24230937D01*
X25345540Y-24477916D01*
X25280050Y-24742760D01*
X25267488Y-25015292D01*
X21306258Y-25015292D01*
X21307583Y-23334393D01*
X22603312Y-23334393D01*
X22668837Y-23573260D01*
X22915816Y-23689160D01*
X23180660Y-23754650D01*
X23453192Y-23767212D01*
X23722938Y-23726365D01*
X23979532Y-23633677D01*
X24092563Y-23573260D01*
X24158088Y-23334393D01*
X23380700Y-22557005D01*
X22603312Y-23334393D01*
X21307583Y-23334393D01*
X21308281Y-22449892D01*
X21990888Y-22449892D01*
X22031735Y-22719638D01*
X22124423Y-22976232D01*
X22184840Y-23089263D01*
X22423707Y-23154788D01*
X23201095Y-22377400D01*
X22423707Y-21600012D01*
X22184840Y-21665537D01*
X22068940Y-21912516D01*
X22003450Y-22177360D01*
X21990888Y-22449892D01*
X21308281Y-22449892D01*
X21309260Y-21208754D01*
X22661071Y-21209850D01*
M02*
